<svg width="1920" height="1791" viewBox="0 0 1920 1791" fill="none" xmlns="http://www.w3.org/2000/svg">
<path d="M1622.05 562.199C1630.77 472.113 1651.62 386.827 1614.76 300.196C1547.1 141.22 1343 56.8169 1184.41 132.119C1103.31 170.519 1033.96 226.699 944.64 247.319C703.564 302.961 331.468 6.51294 200.256 351.652C155.212 470.078 173.376 626.135 254.822 725.13C280.972 756.887 312.921 784.535 332.275 820.862C385.228 920.279 310.272 1029.53 276.48 1122.26C196.224 1341.41 498.816 1462.68 663.052 1485.03C934.54 1522.2 1158.49 1211.16 1428.48 1337.88C1616.64 1426.2 1781.76 1211.16 1747.2 996.119C1724.58 855.345 1610.07 720.599 1620.79 577.137C1621.17 572.183 1621.59 567.23 1622.05 562.199Z" fill="#DD384A"/>
<path opacity="0.7" d="M1622.05 562.199C1630.77 472.113 1651.62 386.827 1614.76 300.196C1547.1 141.22 1343 56.8169 1184.41 132.119C1103.31 170.519 1033.96 226.699 944.64 247.319C703.564 302.961 331.468 6.51294 200.256 351.652C155.212 470.078 173.376 626.135 254.822 725.13C280.972 756.887 312.921 784.535 332.275 820.862C385.228 920.279 310.272 1029.53 276.48 1122.26C196.224 1341.41 498.816 1462.68 663.052 1485.03C934.54 1522.2 1158.49 1211.16 1428.48 1337.88C1616.64 1426.2 1781.76 1211.16 1747.2 996.119C1724.58 855.345 1610.07 720.599 1620.79 577.137C1621.17 572.183 1621.59 567.23 1622.05 562.199Z" fill="white"/>
<path d="M329.356 620.799C402.586 620.799 461.951 561.434 461.951 488.204C461.951 414.973 402.586 355.608 329.356 355.608C256.126 355.608 196.761 414.973 196.761 488.204C196.761 561.434 256.126 620.799 329.356 620.799Z" fill="white" stroke="#2E353A" stroke-linecap="round" stroke-linejoin="round"/>
<path d="M319.488 607.628C392.718 607.628 452.083 548.263 452.083 475.032C452.083 401.802 392.718 342.437 319.488 342.437C246.257 342.437 186.893 401.802 186.893 475.032C186.893 548.263 246.257 607.628 319.488 607.628Z" fill="white" stroke="#2E353A" stroke-linecap="round" stroke-linejoin="round"/>
<path d="M319.487 594.456C385.443 594.456 438.911 540.988 438.911 475.032C438.911 409.076 385.443 355.608 319.487 355.608C253.531 355.608 200.063 409.076 200.063 475.032C200.063 540.988 253.531 594.456 319.487 594.456Z" fill="#2E353A" stroke="#2E353A" stroke-linecap="round" stroke-linejoin="round"/>
<path d="M305.471 385.253C305.471 385.253 292.3 352.306 269.26 329.266C246.22 306.226 152.294 291.365 152.294 291.365C167.461 305.994 181.253 321.984 193.497 339.135C214.886 368.779 285.657 436.325 285.657 436.325C285.657 436.325 251.097 406.68 219.763 403.378C188.428 400.075 109.401 416.549 104.563 416.549C99.7243 416.549 134.207 429.72 158.937 441.24C183.667 452.76 279.167 462.667 279.167 462.667C279.167 462.667 238.003 474.187 210.047 484.095C182.092 494.002 155.596 566.424 155.596 566.424C155.596 566.424 191.846 533.477 223.142 525.259C254.438 517.042 298.905 502.219 298.905 502.219C298.905 502.219 270.911 533.515 264.345 554.943C257.779 576.37 262.694 625.752 262.694 625.752C262.694 625.752 277.516 579.672 295.641 561.509C313.766 543.346 333.465 512.28 333.465 512.28C342.589 527.151 350.845 542.537 358.195 558.36C371.366 586.354 379.583 627.48 379.583 627.48C379.583 627.48 401.011 581.4 399.359 558.36C397.708 535.32 373.017 494.117 373.017 494.117C373.017 494.117 389.491 482.597 414.182 492.466C438.873 502.335 481.727 543.538 481.727 543.538C481.727 543.538 471.82 489.163 455.347 467.775C438.873 446.386 368.063 439.743 368.063 439.743C368.063 439.743 407.615 416.703 432.307 411.749C456.998 406.795 489.907 418.354 489.907 418.354C489.907 418.354 452.044 365.631 422.399 362.328C392.755 359.026 348.287 405.029 348.287 405.029L361.497 339.135C364.761 322.661 358.195 281.535 358.195 281.535C358.195 281.535 340.07 291.403 318.643 322.699C312.372 331.714 307.975 341.895 305.712 352.64C303.45 363.386 303.368 374.476 305.471 385.253Z" fill="#DD384A"/>
<path opacity="0.5" d="M305.471 385.253C305.471 385.253 292.3 352.306 269.26 329.266C246.22 306.226 152.294 291.365 152.294 291.365C167.461 305.994 181.253 321.984 193.497 339.135C214.886 368.779 285.657 436.325 285.657 436.325C285.657 436.325 251.097 406.68 219.763 403.378C188.428 400.075 109.401 416.549 104.563 416.549C99.7243 416.549 134.207 429.72 158.937 441.24C183.667 452.76 279.167 462.667 279.167 462.667C279.167 462.667 238.003 474.187 210.047 484.095C182.092 494.002 155.596 566.424 155.596 566.424C155.596 566.424 191.846 533.477 223.142 525.259C254.438 517.042 298.905 502.219 298.905 502.219C298.905 502.219 270.911 533.515 264.345 554.943C257.779 576.37 262.694 625.752 262.694 625.752C262.694 625.752 277.516 579.672 295.641 561.509C313.766 543.346 333.465 512.28 333.465 512.28C342.589 527.151 350.845 542.537 358.195 558.36C371.366 586.354 379.583 627.48 379.583 627.48C379.583 627.48 401.011 581.4 399.359 558.36C397.708 535.32 373.017 494.117 373.017 494.117C373.017 494.117 389.491 482.597 414.182 492.466C438.873 502.335 481.727 543.538 481.727 543.538C481.727 543.538 471.82 489.163 455.347 467.775C438.873 446.386 368.063 439.743 368.063 439.743C368.063 439.743 407.615 416.703 432.307 411.749C456.998 406.795 489.907 418.354 489.907 418.354C489.907 418.354 452.044 365.631 422.399 362.328C392.755 359.026 348.287 405.029 348.287 405.029L361.497 339.135C364.761 322.661 358.195 281.535 358.195 281.535C358.195 281.535 340.07 291.403 318.643 322.699C312.372 331.714 307.975 341.895 305.712 352.64C303.45 363.386 303.368 374.476 305.471 385.253Z" fill="black"/>
<path d="M337.92 335.104C339.072 330.38 340.339 325.657 341.76 321.011" stroke="#2E353A" stroke-width="0.5" stroke-linecap="round" stroke-linejoin="round"/>
<path d="M227.903 335.104C243.263 346.355 262.463 361.984 272.524 375.385C290.648 400.076 326.898 452.799 326.898 452.799C325.86 417.388 328.667 381.968 335.269 347.161" stroke="#2E353A" stroke-width="0.5" stroke-linecap="round" stroke-linejoin="round"/>
<path d="M205.017 319.359C205.017 319.359 209.817 322.431 216.997 327.385" stroke="#2E353A" stroke-width="0.5" stroke-linecap="round" stroke-linejoin="round"/>
<path d="M326.899 452.799C326.899 452.799 389.491 390.207 415.833 385.254C442.176 380.3 465.254 400.076 465.254 400.076" stroke="#2E353A" stroke-width="0.5" stroke-linecap="round" stroke-linejoin="round"/>
<path d="M215.04 505.138C199.68 514.815 198.413 520.498 198.413 520.498" stroke="#2E353A" stroke-width="0.5" stroke-linecap="round" stroke-linejoin="round"/>
<path d="M463.602 510.438C463.602 510.438 453.734 485.708 419.135 474.188C384.537 462.668 330.239 461.017 330.239 461.017C330.239 461.017 254.015 485.977 226.137 498.995" stroke="#2E353A" stroke-width="0.5" stroke-linecap="round" stroke-linejoin="round"/>
<path d="M296.908 451.608C315.34 456.984 330.201 461.016 330.201 461.016" stroke="#2E353A" stroke-width="0.5" stroke-linecap="round" stroke-linejoin="round"/>
<path d="M180.902 422.348C198.796 423.423 221.836 425.88 234.662 431.372C245.107 435.864 265.689 442.354 285.119 448.152" stroke="#2E353A" stroke-width="0.5" stroke-linecap="round" stroke-linejoin="round"/>
<path d="M155.597 421.503C155.597 421.503 161.625 421.503 170.496 421.849" stroke="#2E353A" stroke-width="0.5" stroke-linecap="round" stroke-linejoin="round"/>
<path d="M326.899 470.885C326.899 470.885 280.819 540.005 277.478 556.556C275.499 566.32 274.394 576.24 274.176 586.2" stroke="#2E353A" stroke-width="0.5" stroke-linecap="round" stroke-linejoin="round"/>
<path d="M347.404 492.658C356.275 504.178 366.911 519.538 371.366 531.826C376.551 546.818 380.406 562.238 382.886 577.906" stroke="#2E353A" stroke-width="0.5" stroke-linecap="round" stroke-linejoin="round"/>
<path d="M333.465 475.839C333.465 475.839 337.305 479.91 342.259 486.169" stroke="#2E353A" stroke-width="0.5" stroke-linecap="round" stroke-linejoin="round"/>
<path d="M284.543 399.461C284.543 399.461 276.056 364.901 281.317 332.837C286.578 300.773 354.277 233.842 354.277 233.842C350.515 254.57 348.651 275.598 348.709 296.665C348.709 333.221 330.469 429.375 330.469 429.375C330.469 429.375 341.26 385.138 364.76 364.095C388.261 343.052 462.104 310.335 466.098 307.532C470.092 304.729 449.701 335.525 436.376 359.333C423.052 383.142 351.128 447.001 351.128 447.001C351.128 447.001 391.295 432.332 419.788 423.961C448.28 415.59 511.948 459.135 511.948 459.135C511.948 459.135 463.295 453.529 433.074 465.087C402.853 476.646 358.079 490.546 358.079 490.546C358.079 490.546 399.09 499.647 416.908 513.202C434.725 526.758 459.608 569.881 459.608 569.881C459.608 569.881 420.671 541.042 395.365 536.895C370.06 532.748 335.768 518.886 335.768 518.886C337.069 536.28 339.351 553.588 342.604 570.726C348.248 601.177 365.644 639.423 365.644 639.423C365.644 639.423 321.368 614.463 309.234 594.764C297.1 575.065 293.183 527.218 293.183 527.218C293.183 527.218 273.061 527.449 258.623 549.874C244.184 572.3 233.548 630.745 233.548 630.745C233.548 630.745 209.893 580.825 210.776 553.945C211.659 527.065 265.343 480.294 265.343 480.294C265.343 480.294 219.8 484.633 196.837 495.001C173.874 505.369 153.829 533.977 153.829 533.977C153.829 533.977 153.829 469.081 176.024 449.113C198.22 429.145 261.234 440.665 261.234 440.665L212.082 394.854C199.794 383.334 181.131 346.086 181.131 346.086C181.131 346.086 201.637 343.551 237.272 356.492C247.63 360.118 257.153 365.791 265.274 373.173C273.395 380.555 279.947 389.495 284.543 399.461V399.461Z" fill="#DD384A"/>
<path d="M228.94 377.65C225.1 374.463 221.49 371.391 217.65 368.396" stroke="#2E353A" stroke-width="0.5" stroke-linecap="round" stroke-linejoin="round"/>
<path d="M318.298 313.484C312.346 331.609 305.702 355.456 305.549 372.198C305.242 402.918 306.547 466.777 306.547 466.777C286.727 437.416 263.769 410.299 238.08 385.907" stroke="#2E353A" stroke-width="0.5" stroke-linecap="round" stroke-linejoin="round"/>
<path d="M327.744 287.334C327.744 287.334 325.593 292.633 322.675 300.812" stroke="#2E353A" stroke-width="0.5" stroke-linecap="round" stroke-linejoin="round"/>
<path d="M306.546 466.776C306.546 466.776 219.186 452.453 194.917 463.82C170.648 475.186 163.429 504.6 163.429 504.6" stroke="#2E353A" stroke-width="0.5" stroke-linecap="round" stroke-linejoin="round"/>
<path d="M427.967 444.044C445.977 443.045 450.278 446.693 450.278 446.693" stroke="#2E353A" stroke-width="0.5" stroke-linecap="round" stroke-linejoin="round"/>
<path d="M229.133 593.343C229.133 593.343 222.758 567.499 244.109 537.97C265.459 508.44 308.698 475.416 308.698 475.416C308.698 475.416 385.152 451.186 415.373 445.541" stroke="#2E353A" stroke-width="0.5" stroke-linecap="round" stroke-linejoin="round"/>
<path d="M330.24 448.344C318.413 463.435 308.736 475.416 308.736 475.416" stroke="#2E353A" stroke-width="0.5" stroke-linecap="round" stroke-linejoin="round"/>
<path d="M407.385 356.914C393.485 368.434 376.205 383.794 368.985 395.582C363.11 405.336 350.169 422.462 337.766 438.629" stroke="#2E353A" stroke-width="0.5" stroke-linecap="round" stroke-linejoin="round"/>
<path d="M427.43 341.439C427.43 341.439 422.554 344.972 415.526 350.425" stroke="#2E353A" stroke-width="0.5" stroke-linecap="round" stroke-linejoin="round"/>
<path d="M317.106 481.56C317.106 481.56 394.943 510.821 407.192 522.302C414.497 529.077 421.18 536.492 427.16 544.459" stroke="#2E353A" stroke-width="0.5" stroke-linecap="round" stroke-linejoin="round"/>
<path d="M313.152 511.128C312.614 525.644 312.883 544.268 316.531 556.94C321.058 572.164 326.931 586.955 334.08 601.138" stroke="#2E353A" stroke-width="0.5" stroke-linecap="round" stroke-linejoin="round"/>
<path d="M314.649 489.24C314.649 489.24 314.035 494.693 313.574 502.757" stroke="#2E353A" stroke-width="0.5" stroke-linecap="round" stroke-linejoin="round"/>
<path d="M540.788 575.372H1411.2C1422.07 575.372 1432.49 579.689 1440.17 587.373C1447.86 595.057 1452.17 605.478 1452.17 616.345V1180.82C1452.17 1186.71 1451.01 1192.54 1448.76 1197.97C1446.51 1203.41 1443.21 1208.35 1439.05 1212.51C1434.89 1216.67 1429.95 1219.97 1424.51 1222.23C1419.07 1224.48 1413.25 1225.64 1407.36 1225.64H544.628C538.743 1225.64 532.916 1224.48 527.479 1222.23C522.042 1219.97 517.102 1216.67 512.94 1212.51C508.779 1208.35 505.478 1203.41 503.226 1197.97C500.974 1192.54 499.815 1186.71 499.815 1180.82V616.345C499.815 605.478 504.132 595.057 511.816 587.373C519.499 579.689 529.921 575.372 540.788 575.372Z" fill="white" stroke="#2E353A" stroke-linecap="round" stroke-linejoin="round"/>
<path d="M859.354 639.384H805.748V674.597H859.354V639.384Z" fill="#2E353A"/>
<path d="M685.671 856.614H635.904V905.997H685.671V856.614Z" fill="#2E353A"/>
<path d="M905.548 683.045H855.398V732.428H905.548V683.045Z" fill="#2E353A"/>
<path d="M797.261 639.384H743.655V674.597H797.261V639.384Z" fill="#2E353A"/>
<path d="M964.147 683.045H913.997V732.428H964.147V683.045Z" fill="#2E353A"/>
<path d="M921.407 639.384H867.801V674.597H921.407V639.384Z" fill="#2E353A"/>
<path d="M655.603 798.745H561.292V848.127H655.603V798.745Z" fill="#2E353A"/>
<path d="M788.313 683.045H738.163V732.428H788.313V683.045Z" fill="#2E353A"/>
<path d="M627.456 856.614H561.292V905.997H627.456V856.614Z" fill="#2E353A"/>
<path d="M983.501 639.384H929.895V674.597H983.501V639.384Z" fill="#2E353A"/>
<path d="M671.078 683.045H620.927V732.428H671.078V683.045Z" fill="#2E353A"/>
<path d="M673.114 639.384H619.508V674.597H673.114V639.384Z" fill="#2E353A"/>
<path d="M735.207 639.384H681.6V674.597H735.207V639.384Z" fill="#2E353A"/>
<path d="M729.677 683.045H679.526V732.428H729.677V683.045Z" fill="#2E353A"/>
<path d="M846.912 683.045H796.761V732.428H846.912V683.045Z" fill="#2E353A"/>
<path d="M1231.83 639.384H1178.23V674.597H1231.83V639.384Z" fill="#2E353A"/>
<path d="M1293.89 639.384H1240.28V674.597H1293.89V639.384Z" fill="#2E353A"/>
<path d="M1257.25 683.045H1207.1V732.428H1257.25V683.045Z" fill="#2E353A"/>
<path d="M1315.89 683.045H1265.74V732.428H1315.89V683.045Z" fill="#2E353A"/>
<path d="M1408.63 856.614H1334.78V905.997H1408.63V856.614Z" fill="#2E353A"/>
<path d="M1355.98 639.384H1302.38V674.597H1355.98V639.384Z" fill="#2E353A"/>
<path d="M612.48 683.045H561.292V732.428H612.48V683.045Z" fill="#2E353A"/>
<path d="M1045.59 639.384H991.987V674.597H1045.59V639.384Z" fill="#2E353A"/>
<path d="M1107.65 639.384H1054.04V674.597H1107.65V639.384Z" fill="#2E353A"/>
<path d="M1081.42 683.045H1031.27V732.428H1081.42V683.045Z" fill="#2E353A"/>
<path d="M1198.66 683.045H1148.51V732.428H1198.66V683.045Z" fill="#2E353A"/>
<path d="M1022.78 683.045H972.634V732.428H1022.78V683.045Z" fill="#2E353A"/>
<path d="M1140.02 683.045H1089.87V732.428H1140.02V683.045Z" fill="#2E353A"/>
<path d="M1169.74 639.384H1116.13V674.597H1169.74V639.384Z" fill="#2E353A"/>
<path d="M1093.36 856.614H1043.6V905.997H1093.36V856.614Z" fill="#2E353A"/>
<path d="M1354.48 798.745H1304.72V848.127H1354.48V798.745Z" fill="#2E353A"/>
<path d="M1296.23 798.745H1246.46V848.127H1296.23V798.745Z" fill="#2E353A"/>
<path d="M1326.3 856.614H1276.53V905.997H1326.3V856.614Z" fill="#2E353A"/>
<path d="M1268.08 856.614H1218.32V905.997H1268.08V856.614Z" fill="#2E353A"/>
<path d="M1151.58 856.614H1101.81V905.997H1151.58V856.614Z" fill="#2E353A"/>
<path d="M1209.83 856.614H1160.06V905.997H1209.83V856.614Z" fill="#2E353A"/>
<path d="M1237.98 798.745H1188.21V848.127H1237.98V798.745Z" fill="#2E353A"/>
<path d="M1179.76 798.745H1130V848.127H1179.76V798.745Z" fill="#2E353A"/>
<path d="M1408.67 639.384H1364.47V674.597H1408.67V639.384Z" fill="#2E353A"/>
<path d="M611.059 639.384H561.292V674.597H611.059V639.384Z" fill="#2E353A"/>
<path d="M1408.67 914.443H561.292V965.784H1408.67V914.443Z" fill="#2E353A"/>
<path d="M1408.63 683.045H1324.34V732.428H1408.63V683.045Z" fill="#2E353A"/>
<path d="M1408.63 798.745H1362.93V848.127H1408.63V798.745Z" fill="#2E353A"/>
<path d="M1348.88 789.912H1340.39V740.914H1290.62V789.912H1282.18V740.914H1232.41V789.912H1223.92V740.914H1174.16V789.912H1165.67V740.914H1115.9V789.912H1107.46V740.914H1057.69V789.912H1049.2V740.914H999.436V789.912H990.95V740.914H941.184V789.912H932.736V740.914H882.969V789.912H874.483V740.914H824.717V789.912H816.23V740.914H766.464V789.912H758.016V740.914H708.249V789.912H699.763V740.914H649.997V789.912H641.51V740.914H561.292V790.296H1408.63V740.914H1348.88V789.912Z" fill="#2E353A"/>
<path d="M946.791 798.745H897.024V848.127H946.791V798.745Z" fill="#2E353A"/>
<path d="M1121.51 798.745H1071.74V848.127H1121.51V798.745Z" fill="#2E353A"/>
<path d="M830.323 798.745H780.557V848.127H830.323V798.745Z" fill="#2E353A"/>
<path d="M860.391 856.614H810.625V905.997H860.391V856.614Z" fill="#2E353A"/>
<path d="M888.537 798.745H838.771V848.127H888.537V798.745Z" fill="#2E353A"/>
<path d="M772.071 798.745H722.305V848.127H772.071V798.745Z" fill="#2E353A"/>
<path d="M743.924 856.614H694.157V905.997H743.924V856.614Z" fill="#2E353A"/>
<path d="M802.137 856.614H752.371V905.997H802.137V856.614Z" fill="#2E353A"/>
<path d="M1005.04 798.745H955.277V848.127H1005.04V798.745Z" fill="#2E353A"/>
<path d="M1035.11 856.614H985.345V905.997H1035.11V856.614Z" fill="#2E353A"/>
<path d="M1063.26 798.745H1013.49V848.127H1063.26V798.745Z" fill="#2E353A"/>
<path d="M918.643 856.614H868.877V905.997H918.643V856.614Z" fill="#2E353A"/>
<path d="M976.857 856.614H927.09V905.997H976.857V856.614Z" fill="#2E353A"/>
<path d="M713.817 798.745H664.05V848.127H713.817V798.745Z" fill="#2E353A"/>
<path d="M1506.55 222.092H440.333C435.104 222.096 429.946 223.302 425.258 225.618C420.57 227.934 416.478 231.296 413.297 235.446C410.116 239.596 407.931 244.421 406.913 249.55C405.895 254.679 406.07 259.973 407.424 265.023L485.376 555.25C487.319 562.495 491.596 568.897 497.545 573.465C503.495 578.033 510.784 580.512 518.285 580.517H627.11V600.601H1324.8V580.633H1428.48C1435.98 580.627 1443.27 578.148 1449.22 573.58C1455.17 569.012 1459.45 562.61 1461.39 555.365L1539.34 265.138C1540.71 260.09 1540.91 254.793 1539.9 249.658C1538.9 244.524 1536.73 239.688 1533.56 235.527C1530.39 231.365 1526.31 227.989 1521.62 225.659C1516.94 223.329 1511.78 222.109 1506.55 222.092V222.092Z" fill="#2E353A" stroke="#2E353A" stroke-linecap="round" stroke-linejoin="round"/>
<path d="M1385.97 554.904H560.909L478.388 257.957H1468.45L1385.97 554.904Z" fill="#DD384A" stroke="#2E353A" stroke-linecap="round" stroke-linejoin="round"/>
<path d="M615.667 424.575V428.415H601.114V424.575H615.667Z" fill="#2E353A"/>
<path d="M633.792 424.575V428.415H619.2V424.575H633.792Z" fill="#2E353A"/>
<path d="M651.917 424.575V428.415H637.44V424.575H651.917Z" fill="#2E353A"/>
<path d="M670.003 424.575V428.415H655.45V424.575H670.003Z" fill="#2E353A"/>
<path d="M688.128 424.575V428.415H673.536V424.575H688.128Z" fill="#2E353A"/>
<path d="M706.253 424.575V428.415H691.661V424.575H706.253Z" fill="#2E353A"/>
<path d="M724.339 424.575V428.415H709.785V424.575H724.339Z" fill="#2E353A"/>
<path d="M742.272 444.811L726.221 402.034H730.061L746.112 444.811H742.272Z" fill="#2E353A"/>
<path d="M600.998 362.29V366.13H586.444V362.29H600.998Z" fill="#2E353A"/>
<path d="M619.123 362.29V366.13H604.57V362.29H619.123Z" fill="#2E353A"/>
<path d="M637.439 362.29V366.13H622.847V362.29H637.439Z" fill="#2E353A"/>
<path d="M655.373 362.29V366.13H640.781V362.29H655.373Z" fill="#2E353A"/>
<path d="M673.459 362.29V366.13H658.905V362.29H673.459Z" fill="#2E353A"/>
<path d="M704.103 362.29V366.13H689.511V362.29H704.103Z" fill="#2E353A"/>
<path d="M722.188 362.29V366.13H707.635V362.29H722.188Z" fill="#2E353A"/>
<path d="M740.314 362.29V366.13H725.76V362.29H740.314Z" fill="#2E353A"/>
<path d="M758.439 362.29V366.13H743.847V362.29H758.439Z" fill="#2E353A"/>
<path d="M776.524 362.29V366.13H761.971V362.29H776.524Z" fill="#2E353A"/>
<path d="M794.649 362.29V366.13H780.096V362.29H794.649Z" fill="#2E353A"/>
<path d="M812.774 362.29V366.13H798.182V362.29H812.774Z" fill="#2E353A"/>
<path d="M843.379 362.29V366.13H828.825V362.29H843.379Z" fill="#2E353A"/>
<path d="M861.504 362.29V366.13H846.912V362.29H861.504Z" fill="#2E353A"/>
<path d="M879.629 362.29V366.13H865.037V362.29H879.629Z" fill="#2E353A"/>
<path d="M910.08 362.29V366.13H895.526V362.29H910.08Z" fill="#2E353A"/>
<path d="M928.359 362.29V366.13H913.92V362.29H928.359Z" fill="#2E353A"/>
<path d="M946.483 362.29V366.13H931.891V362.29H946.483Z" fill="#2E353A"/>
<path d="M1014.6 362.29V366.13H1000.05V362.29H1014.6Z" fill="#2E353A"/>
<path d="M1032.73 362.29V366.13H1018.14V362.29H1032.73Z" fill="#2E353A"/>
<path d="M1050.85 362.29V366.13H1036.26V362.29H1050.85Z" fill="#2E353A"/>
<path d="M1068.94 362.29V366.13H1054.39V362.29H1068.94Z" fill="#2E353A"/>
<path d="M1087.07 362.29V366.13H1072.47V362.29H1087.07Z" fill="#2E353A"/>
<path d="M1117.67 362.29V366.13H1103.12V362.29H1117.67Z" fill="#2E353A"/>
<path d="M1135.8 362.29V366.13H1121.28V362.29H1135.8Z" fill="#2E353A"/>
<path d="M1153.92 362.29V366.13H1139.33V362.29H1153.92Z" fill="#2E353A"/>
<path d="M1184.52 362.29V366.13H1169.97V362.29H1184.52Z" fill="#2E353A"/>
<path d="M1215.17 362.29V366.13H1200.58V362.29H1215.17Z" fill="#2E353A"/>
<path d="M1458.01 993.394L1416.92 1151.91L1455.78 1163.31L1458.01 993.394Z" fill="white" stroke="#2E353A" stroke-linecap="round" stroke-linejoin="round"/>
<path d="M1476.44 825.854C1471.81 818.731 1470.11 810.086 1471.72 801.739C1473.83 786.11 1492.69 782.539 1492.69 782.539C1492.69 782.539 1496.79 779.429 1511.89 785.15C1526.98 790.872 1643.67 806.693 1718.25 816.792C1792.82 826.891 1816.97 820.363 1815.94 845.976C1814.9 871.589 1749.47 1101.45 1748.47 1108.67C1747.47 1115.89 1476.44 825.854 1476.44 825.854Z" fill="white" stroke="#2E353A" stroke-miterlimit="10"/>
<path d="M1790.11 868.387L1476.41 825.861L1425.72 1199.8L1739.42 1242.32L1790.11 868.387Z" fill="white" stroke="#2E353A" stroke-linecap="round" stroke-linejoin="round"/>
<path d="M1731.8 942.975L1750.04 945.471" stroke="#2E353A" stroke-width="0.5" stroke-linecap="round" stroke-linejoin="round"/>
<path d="M1617.56 927.499L1717.36 941.054" stroke="#2E353A" stroke-width="0.5" stroke-linecap="round" stroke-linejoin="round"/>
<path d="M1496.6 911.103L1603.12 925.541" stroke="#2E353A" stroke-width="0.5" stroke-linecap="round" stroke-linejoin="round"/>
<path d="M1703.23 972.964L1745.55 978.724" stroke="#2E353A" stroke-width="0.5" stroke-linecap="round" stroke-linejoin="round"/>
<path d="M1492.11 944.357L1659.96 967.09" stroke="#2E353A" stroke-width="0.5" stroke-linecap="round" stroke-linejoin="round"/>
<path d="M1577.28 989.745L1741.06 1011.94" stroke="#2E353A" stroke-width="0.5" stroke-linecap="round" stroke-linejoin="round"/>
<path d="M1487.58 977.573L1560.42 987.48" stroke="#2E353A" stroke-width="0.5" stroke-linecap="round" stroke-linejoin="round"/>
<path d="M1631.69 1030.99L1736.53 1045.2" stroke="#2E353A" stroke-width="0.5" stroke-linecap="round" stroke-linejoin="round"/>
<path d="M1542.72 1018.89L1619.67 1029.34" stroke="#2E353A" stroke-width="0.5" stroke-linecap="round" stroke-linejoin="round"/>
<path d="M1483.09 1010.83L1529.47 1017.13" stroke="#2E353A" stroke-width="0.5" stroke-linecap="round" stroke-linejoin="round"/>
<path d="M1694.52 1073.34L1732.03 1078.41" stroke="#2E353A" stroke-width="0.5" stroke-linecap="round" stroke-linejoin="round"/>
<path d="M1478.59 1044.08L1669.29 1069.92" stroke="#2E353A" stroke-width="0.5" stroke-linecap="round" stroke-linejoin="round"/>
<path d="M1621.48 1097.27L1727.54 1111.67" stroke="#2E353A" stroke-width="0.5" stroke-linecap="round" stroke-linejoin="round"/>
<path d="M1474.06 1077.3L1603.43 1094.85" stroke="#2E353A" stroke-width="0.5" stroke-linecap="round" stroke-linejoin="round"/>
<path d="M1654.23 1135.59L1723.01 1144.88" stroke="#2E353A" stroke-width="0.5" stroke-linecap="round" stroke-linejoin="round"/>
<path d="M1514.77 1116.66L1637.42 1133.29" stroke="#2E353A" stroke-width="0.5" stroke-linecap="round" stroke-linejoin="round"/>
<path d="M1469.57 1110.55L1500.33 1114.7" stroke="#2E353A" stroke-width="0.5" stroke-linecap="round" stroke-linejoin="round"/>
<path d="M1790.13 868.402C1790.13 868.402 1795.51 816.255 1814.71 837.221" stroke="#2E353A" stroke-linecap="round" stroke-linejoin="round"/>
<path d="M1683.76 1270.1L1683.42 1303.24L1664.1 1275.98L1586.57 1015.2L1606.24 1009.33L1683.76 1270.1Z" fill="white" stroke="#2E353A" stroke-linecap="round" stroke-linejoin="round"/>
<path d="M1598.54 1020.47L1587.81 1023.6L1663.99 1284.78L1674.72 1281.65L1598.54 1020.47Z" fill="#DD384A" stroke="#2E353A" stroke-width="0.5" stroke-linecap="round" stroke-linejoin="round"/>
<path d="M1683.76 1270.18L1664.14 1276.02L1683.42 1303.24L1683.76 1270.18Z" stroke="#2E353A" stroke-linecap="round" stroke-linejoin="round"/>
<path d="M1673.78 1289.61L1683.42 1303.24L1683.61 1286.69L1673.78 1289.61Z" fill="#2E353A" stroke="#2E353A" stroke-linecap="round" stroke-linejoin="round"/>
<path d="M1587.73 983.064C1585.12 983.846 1582.94 985.626 1581.64 988.014C1580.35 990.402 1580.05 993.205 1580.81 995.812L1586.57 1015.2L1606.23 1009.37L1600.47 989.976C1599.69 987.374 1597.91 985.187 1595.52 983.893C1593.14 982.598 1590.33 982.3 1587.73 983.064V983.064Z" fill="white" stroke="#2E353A" stroke-linecap="round" stroke-linejoin="round"/>
<path d="M1587.73 983.064C1585.12 983.846 1582.94 985.626 1581.64 988.014C1580.35 990.402 1580.05 993.205 1580.81 995.812L1583.58 1005.07L1603.2 999.23L1600.47 989.976C1599.69 987.374 1597.91 985.187 1595.52 983.893C1593.14 982.598 1590.33 982.3 1587.73 983.064V983.064Z" fill="#2E353A" stroke="#2E353A" stroke-linecap="round" stroke-linejoin="round"/>
<path d="M620.736 829.042C618.278 832.498 615.859 836.108 613.44 839.91" stroke="white" stroke-linecap="round" stroke-linejoin="round"/>
<path d="M660.902 782.809C650.203 792.726 640.303 803.473 631.296 814.949" stroke="white" stroke-linecap="round" stroke-linejoin="round"/>
<path d="M617.317 803.198C606.826 817.913 597.32 833.307 588.863 849.278" stroke="white" stroke-linecap="round" stroke-linejoin="round"/>
<path d="M888.152 887.64C885.733 891.096 883.276 894.706 880.856 898.469" stroke="white" stroke-linecap="round" stroke-linejoin="round"/>
<path d="M928.319 841.406C917.639 851.331 907.753 862.078 898.751 873.547" stroke="white" stroke-linecap="round" stroke-linejoin="round"/>
<path d="M884.774 861.72C874.289 876.519 864.784 891.989 856.32 908.031" stroke="white" stroke-linecap="round" stroke-linejoin="round"/>
<path d="M1271.46 792.6C1267.97 790.22 1264.28 787.839 1260.48 785.458" stroke="white" stroke-linecap="round" stroke-linejoin="round"/>
<path d="M1318.31 832.075C1308.21 821.557 1297.31 811.838 1285.71 803.006" stroke="white" stroke-linecap="round" stroke-linejoin="round"/>
<path d="M1297.27 788.76C1282.32 778.498 1266.73 769.224 1250.57 760.997" stroke="white" stroke-linecap="round" stroke-linejoin="round"/>
<path d="M876.48 1030.68C874.483 1045.12 871.488 1065.24 868.493 1077.18" stroke="#2E353A" stroke-linecap="round" stroke-linejoin="round"/>
<path d="M878.706 1013.13C878.706 1013.13 878.399 1015.86 877.823 1020.27" stroke="#2E353A" stroke-linecap="round" stroke-linejoin="round"/>
<path d="M888.96 1054.1C884.767 1068.09 879.636 1081.78 873.6 1095.08" stroke="#2E353A" stroke-linecap="round" stroke-linejoin="round"/>
<path d="M1080.96 1074.57C1080.96 1074.57 1083.53 1107.86 1101.43 1125.8" stroke="#2E353A" stroke-linecap="round" stroke-linejoin="round"/>
<path d="M1078.39 1107.86C1078.39 1107.86 1086.07 1130.9 1101.43 1141.16" stroke="#2E353A" stroke-linecap="round" stroke-linejoin="round"/>
<g style="mix-blend-mode:multiply">
<path d="M556.8 1285.81C556.8 1285.81 573.849 1272.1 573.849 1154.25C573.849 1036.4 593.472 950.309 617.664 912.562C641.856 874.815 664.473 859.685 675.072 859.685C685.67 859.685 678.067 873.279 662.976 892.901C647.885 912.524 634.291 923.122 628.224 947.314C622.157 971.506 622.195 1001.69 629.76 998.655C637.325 995.621 649.382 935.218 659.942 912.562C670.502 889.906 696.23 861.183 711.321 847.589C726.413 833.996 759.667 793.215 774.758 803.775C789.849 814.335 780.825 829.464 771.763 835.493C762.701 841.522 726.413 877.733 709.824 900.466C693.235 923.199 682.637 980.53 691.699 982.028C700.761 983.525 727.949 898.968 743.04 880.844C758.131 862.719 818.573 812.837 832.166 811.34C845.76 809.842 847.296 830.962 835.2 841.56C823.104 852.159 782.323 897.432 768.729 924.62C755.136 951.807 749.069 1001.69 761.049 989.592C773.03 977.496 792.768 927.653 809.395 911.026C826.022 894.399 875.865 841.56 887.961 847.589C900.057 853.618 897.024 868.748 886.464 879.308C875.904 889.868 835.085 947.314 824.525 977.496C813.965 1007.68 801.83 1092.31 807.897 1080.25C813.965 1068.2 833.587 1006.22 844.147 980.415C854.707 954.61 875.865 942.668 878.899 954.725C881.933 966.783 875.865 972.85 868.301 1000.08C860.736 1027.3 860.621 1099.92 838.118 1140.54C815.616 1181.17 725.299 1268.11 713.241 1298.29C704.507 1319.08 694.079 1339.11 682.061 1358.19" fill="#DD384A"/>
</g>
<g style="mix-blend-mode:multiply">
<path d="M1396.03 1296.02C1396.03 1296.02 1378.56 1272.1 1378.56 1154.25C1378.56 1036.4 1358.9 950.309 1334.75 912.562C1310.59 874.815 1287.9 859.685 1277.34 859.685C1266.78 859.685 1274.3 873.279 1289.43 892.901C1304.56 912.524 1318.12 923.122 1323.99 947.314C1329.87 971.506 1330.06 1001.69 1322.5 998.655C1314.93 995.621 1302.87 935.218 1292.28 912.562C1281.68 889.906 1256.03 861.183 1240.93 847.589C1225.84 833.996 1192.59 793.215 1177.46 803.775C1162.33 814.335 1171.43 829.464 1180.49 835.493C1189.56 841.522 1225.8 877.733 1242.43 900.466C1259.06 923.199 1269.62 980.53 1260.56 982.028C1251.49 983.525 1224.42 898.968 1209.33 880.92C1194.24 862.872 1133.76 812.914 1120.17 811.416C1106.57 809.919 1105.08 831.039 1117.17 841.637C1129.27 852.236 1170.05 897.509 1183.64 924.696C1197.24 951.884 1203.26 1001.77 1191.32 989.669C1179.38 977.573 1159.6 927.73 1143.01 911.103C1126.43 894.476 1076.54 841.637 1064.45 847.666C1052.35 853.695 1055.39 868.824 1065.95 879.384C1076.51 889.944 1117.32 947.391 1127.88 977.573C1138.44 1007.76 1150.54 1092.39 1144.51 1080.33C1138.48 1068.27 1118.82 1006.3 1108.26 980.492C1097.7 954.687 1076.54 942.744 1073.51 954.802C1070.48 966.86 1076.54 972.927 1084.07 1000.15C1091.6 1027.38 1091.75 1099.99 1114.29 1140.62C1136.83 1181.25 1224.58 1260.54 1236.67 1290.76C1248.77 1320.98 1270.66 1368.6 1270.66 1368.6" fill="#DD384A"/>
</g>
<path d="M551.04 1314.84C551.04 1314.84 573.696 1240.84 573.696 1122.84C573.696 1004.84 593.318 918.898 617.51 881.15C641.702 843.403 664.32 828.274 674.918 828.274C685.517 828.274 677.914 841.867 662.822 861.49C647.731 881.112 634.138 891.71 628.07 915.864C622.003 940.018 622.042 970.277 629.606 967.243C637.171 964.21 649.229 903.806 659.789 881.15C670.349 858.494 696.077 829.771 711.168 816.178C726.259 802.584 759.514 761.803 774.605 772.363C789.696 782.923 780.672 798.053 771.61 804.082C762.547 810.11 726.259 846.322 709.67 869.054C693.082 891.787 682.483 949.118 691.546 950.616C700.608 952.114 727.795 867.557 742.886 849.394C757.978 831.23 818.419 781.426 832.013 779.928C845.606 778.43 847.142 799.55 835.046 810.149C822.95 820.747 782.17 866.021 768.576 893.208C754.982 920.395 748.915 970.277 760.896 958.181C772.877 946.085 792.614 896.242 809.242 879.614C825.869 862.987 875.712 810.149 887.808 816.178C899.904 822.206 896.87 837.336 886.31 847.896C875.75 858.456 834.931 915.864 824.371 946.085C813.811 976.306 801.677 1060.9 807.744 1048.8C813.811 1036.71 833.434 974.808 843.994 948.965C854.554 923.122 875.712 911.179 878.746 923.275C881.779 935.371 875.712 941.4 868.147 968.587C860.582 995.774 860.467 1068.43 837.965 1109.09C815.462 1149.76 727.68 1260.16 715.584 1290.38C703.488 1320.6 676.301 1387.07 676.301 1387.07" fill="white"/>
<path d="M551.04 1314.84C551.04 1314.84 573.696 1240.84 573.696 1122.84C573.696 1004.84 593.318 918.898 617.51 881.15C641.702 843.403 664.32 828.274 674.918 828.274C685.517 828.274 677.914 841.867 662.822 861.49C647.731 881.112 634.138 891.71 628.07 915.864C622.003 940.018 622.042 970.277 629.606 967.243C637.171 964.21 649.229 903.806 659.789 881.15C670.349 858.494 696.077 829.771 711.168 816.178C726.259 802.584 759.514 761.803 774.605 772.363C789.696 782.923 780.672 798.053 771.61 804.082C762.547 810.11 726.259 846.322 709.67 869.054C693.082 891.787 682.483 949.118 691.546 950.616C700.608 952.114 727.795 867.557 742.886 849.394C757.978 831.23 818.419 781.426 832.013 779.928C845.606 778.43 847.142 799.55 835.046 810.149C822.95 820.747 782.17 866.021 768.576 893.208C754.982 920.395 748.915 970.277 760.896 958.181C772.877 946.085 792.614 896.242 809.242 879.614C825.869 862.987 875.712 810.149 887.808 816.178C899.904 822.206 896.87 837.336 886.31 847.896C875.75 858.456 834.931 915.864 824.371 946.085C813.811 976.306 801.677 1060.9 807.744 1048.8C813.811 1036.71 833.434 974.808 843.994 948.965C854.554 923.122 875.712 911.179 878.746 923.275C881.779 935.371 875.712 941.4 868.147 968.587C860.582 995.774 860.467 1068.43 837.965 1109.09C815.462 1149.76 727.68 1260.16 715.584 1290.38C703.488 1320.6 676.301 1387.07 676.301 1387.07" stroke="#2E353A" stroke-linecap="round" stroke-linejoin="round"/>
<path d="M1401.18 1314.84C1401.18 1314.84 1378.52 1240.84 1378.52 1122.84C1378.52 1004.84 1358.86 918.898 1334.71 881.15C1310.55 843.403 1287.86 828.274 1277.3 828.274C1266.74 828.274 1274.27 841.867 1289.39 861.49C1304.52 881.112 1318.08 891.71 1323.95 915.864C1329.83 940.018 1330.02 970.277 1322.46 967.243C1314.89 964.21 1302.83 903.806 1292.24 881.15C1281.64 858.494 1255.99 829.771 1240.9 816.178C1225.8 802.584 1192.55 761.803 1177.42 772.363C1162.29 782.923 1171.39 798.053 1180.45 804.082C1189.52 810.11 1225.77 846.322 1242.39 869.054C1259.02 891.787 1269.58 949.118 1260.52 950.616C1251.46 952.114 1224.27 867.557 1209.18 849.394C1194.09 831.23 1133.61 781.426 1120.01 779.928C1106.42 778.43 1104.92 799.55 1117.02 810.149C1129.11 820.747 1169.89 866.021 1183.49 893.208C1197.08 920.395 1203.11 970.277 1191.17 958.181C1179.23 946.085 1159.45 896.242 1142.86 879.614C1126.27 862.987 1076.39 810.149 1064.29 816.178C1052.2 822.206 1055.23 837.336 1065.79 847.896C1076.35 858.456 1117.17 915.864 1127.73 946.085C1138.29 976.306 1150.39 1060.9 1144.36 1048.8C1138.33 1036.71 1118.67 974.808 1108.11 948.965C1097.55 923.122 1076.39 911.179 1073.36 923.275C1070.32 935.371 1076.39 941.4 1083.92 968.587C1091.44 995.774 1091.6 1068.43 1114.14 1109.09C1136.68 1149.76 1224.42 1260.16 1236.52 1290.38C1248.61 1320.6 1275.8 1387.07 1275.8 1387.07" fill="white"/>
<path d="M1401.18 1314.84C1401.18 1314.84 1378.52 1240.84 1378.52 1122.84C1378.52 1004.84 1358.86 918.898 1334.71 881.15C1310.55 843.403 1287.86 828.274 1277.3 828.274C1266.74 828.274 1274.27 841.867 1289.39 861.49C1304.52 881.112 1318.08 891.71 1323.95 915.864C1329.83 940.018 1330.02 970.277 1322.46 967.243C1314.89 964.21 1302.83 903.806 1292.24 881.15C1281.64 858.494 1255.99 829.771 1240.9 816.178C1225.8 802.584 1192.55 761.803 1177.42 772.363C1162.29 782.923 1171.39 798.053 1180.45 804.082C1189.52 810.11 1225.77 846.322 1242.39 869.054C1259.02 891.787 1269.58 949.118 1260.52 950.616C1251.46 952.114 1224.27 867.557 1209.18 849.394C1194.09 831.23 1133.61 781.426 1120.01 779.928C1106.42 778.43 1104.92 799.55 1117.02 810.149C1129.11 820.747 1169.89 866.021 1183.49 893.208C1197.08 920.395 1203.11 970.277 1191.17 958.181C1179.23 946.085 1159.45 896.242 1142.86 879.614C1126.27 862.987 1076.39 810.149 1064.29 816.178C1052.2 822.206 1055.23 837.336 1065.79 847.896C1076.35 858.456 1117.17 915.864 1127.73 946.085C1138.29 976.306 1150.39 1060.9 1144.36 1048.8C1138.33 1036.71 1118.67 974.808 1108.11 948.965C1097.55 923.122 1076.39 911.179 1073.36 923.275C1070.32 935.371 1076.39 941.4 1083.92 968.587C1091.44 995.774 1091.6 1068.43 1114.14 1109.09C1136.68 1149.76 1224.42 1260.16 1236.52 1290.38C1248.61 1320.6 1275.8 1387.07 1275.8 1387.07" stroke="#2E353A" stroke-linecap="round" stroke-linejoin="round"/>
<path d="M455.423 1545.24H685.823C688.818 1533.72 692.581 1520.82 697.343 1506.84C715.468 1452.54 774.143 1384.65 774.143 1384.65C732.09 1347.62 682.674 1319.9 629.144 1303.32C540.824 1276.13 476.159 1284.12 476.159 1284.12C488.063 1333.2 489.372 1384.25 479.999 1433.88C468.479 1489.79 460.799 1525.16 455.423 1545.24Z" fill="#2E353A" stroke="#2E353A" stroke-linecap="round" stroke-linejoin="round"/>
<path d="M1264.9 1545.24H1504.28C1496.6 1525.35 1480.01 1482.15 1463.42 1438.95C1440.77 1380.12 1449.83 1300.94 1440.77 1300.94C1431.71 1300.94 1329.91 1294.14 1280.14 1309.96C1230.37 1325.78 1173.77 1371.06 1173.77 1371.06C1199.4 1400.83 1221.42 1433.52 1239.4 1468.44C1250.95 1492.92 1259.51 1518.71 1264.9 1545.24V1545.24Z" fill="#2E353A" stroke="#2E353A" stroke-linecap="round" stroke-linejoin="round"/>
<path d="M599.347 1330.97C597.696 1324.44 573.12 1334.27 573.12 1334.27C573.12 1334.27 581.337 1303.17 568.243 1303.17C555.148 1303.17 553.497 1326.21 553.497 1326.21C553.497 1326.21 528.921 1316.41 528.921 1331.12C528.921 1345.83 545.28 1345.56 545.28 1345.56C545.28 1345.56 525.619 1370.14 540.364 1375.01C555.11 1379.89 564.902 1361.92 564.902 1361.92C564.902 1361.92 574.732 1378.32 587.942 1371.75C601.152 1365.18 591.206 1350.48 591.206 1350.48C591.206 1350.48 600.96 1337.53 599.347 1330.97ZM566.592 1355.54C565.356 1355.27 564.222 1354.65 563.323 1353.76C562.423 1352.87 561.793 1351.74 561.506 1350.51C561.219 1349.28 561.286 1347.99 561.699 1346.79C562.113 1345.59 562.856 1344.54 563.844 1343.74C564.831 1342.95 566.023 1342.45 567.28 1342.31C568.538 1342.16 569.812 1342.38 570.954 1342.92C572.096 1343.47 573.06 1344.33 573.735 1345.4C574.411 1346.47 574.769 1347.71 574.771 1348.98C574.494 1350.91 573.495 1352.66 571.977 1353.87C570.458 1355.09 568.533 1355.69 566.592 1355.54V1355.54ZM635.366 1514.52C633.715 1507.99 609.139 1517.82 609.139 1517.82C609.139 1517.82 617.356 1486.72 604.224 1486.72C591.091 1486.72 589.516 1509.76 589.516 1509.76C589.516 1509.76 564.94 1499.93 564.94 1514.64C564.94 1529.34 581.337 1529.38 581.337 1529.38C581.337 1529.38 561.676 1553.96 576.422 1558.87C591.168 1563.79 600.96 1545.74 600.96 1545.74C600.96 1545.74 610.79 1562.14 624 1555.57C637.209 1549 627.264 1534.3 627.264 1534.3C627.264 1534.3 636.979 1520.89 635.366 1514.52ZM602.611 1539.1C601.375 1538.82 600.242 1538.2 599.342 1537.31C598.442 1536.42 597.812 1535.29 597.525 1534.06C597.238 1532.83 597.305 1531.54 597.719 1530.34C598.132 1529.14 598.876 1528.09 599.863 1527.3C600.85 1526.5 602.042 1526.01 603.3 1525.86C604.557 1525.72 605.831 1525.93 606.973 1526.48C608.115 1527.02 609.079 1527.88 609.754 1528.95C610.43 1530.02 610.789 1531.26 610.79 1532.53C610.513 1534.44 609.507 1536.17 607.982 1537.36C606.458 1538.55 604.533 1539.1 602.611 1538.9V1539.1ZM491.251 1539.1C489.6 1532.53 465.062 1542.36 465.062 1542.36C465.062 1542.36 473.241 1511.26 460.147 1511.26C447.052 1511.26 445.401 1534.3 445.401 1534.3C445.401 1534.3 420.825 1524.47 420.825 1539.21C420.825 1553.96 437.222 1553.96 437.222 1553.96C437.222 1553.96 417.561 1578.49 432.307 1583.41C447.052 1588.32 456.844 1570.32 456.844 1570.32C456.844 1570.32 466.675 1586.67 479.884 1580.15C493.094 1573.62 483.187 1558.87 483.187 1558.87C483.187 1558.87 492.902 1545.43 491.289 1538.9L491.251 1539.1ZM458.496 1563.63C457.258 1563.36 456.124 1562.74 455.223 1561.85C454.323 1560.95 453.694 1559.82 453.408 1558.59C453.122 1557.35 453.192 1556.06 453.608 1554.87C454.025 1553.67 454.772 1552.61 455.763 1551.82C456.754 1551.03 457.948 1550.54 459.208 1550.4C460.468 1550.25 461.743 1550.47 462.884 1551.03C464.025 1551.58 464.986 1552.44 465.657 1553.52C466.328 1554.59 466.681 1555.84 466.675 1557.11C466.389 1559 465.385 1560.72 463.87 1561.9C462.355 1563.08 460.444 1563.63 458.534 1563.44L458.496 1563.63ZM669.696 1411.38H687.705C700.8 1411.38 708.979 1426.12 708.979 1426.12C681.177 1434.11 669.734 1411.19 669.734 1411.19L669.696 1411.38ZM651.686 1539.1H669.696C682.79 1539.1 690.969 1553.84 690.969 1553.84C663.168 1561.83 651.724 1538.9 651.724 1538.9L651.686 1539.1ZM494.553 1514.52H512.563C525.657 1514.52 533.836 1529.27 533.836 1529.27C505.996 1537.25 494.553 1514.52 494.553 1514.52ZM581.606 1398.97L592.128 1413.6C599.808 1424.28 592.55 1439.49 592.55 1439.49C569.664 1421.48 581.606 1398.78 581.606 1398.78V1398.97ZM491.52 1447.9L499.737 1431.88C505.766 1420.36 522.585 1419.67 522.585 1419.67C516.94 1448.16 491.52 1447.9 491.52 1447.9Z" fill="white"/>
<path d="M1370.46 1362.07C1368.81 1355.54 1344.23 1365.37 1344.23 1365.37C1344.23 1365.37 1352.45 1334.27 1339.35 1334.27C1326.26 1334.27 1324.61 1357.31 1324.61 1357.31C1324.61 1357.31 1300.03 1347.52 1300.03 1362.23C1300.03 1376.93 1316.43 1376.97 1316.43 1376.97C1316.43 1376.97 1296.77 1401.55 1311.51 1406.46C1326.26 1411.38 1336.05 1393.33 1336.05 1393.33C1336.05 1393.33 1345.88 1409.73 1359.09 1403.16C1372.3 1396.59 1362.35 1381.89 1362.35 1381.89C1362.35 1381.89 1372.07 1368.6 1370.46 1362.07ZM1337.7 1386.65C1336.47 1386.37 1335.33 1385.75 1334.43 1384.86C1333.53 1383.97 1332.9 1382.85 1332.62 1381.61C1332.33 1380.38 1332.4 1379.09 1332.81 1377.89C1333.22 1376.7 1333.97 1375.64 1334.95 1374.85C1335.94 1374.06 1337.13 1373.56 1338.39 1373.41C1339.65 1373.27 1340.92 1373.48 1342.06 1374.03C1343.21 1374.57 1344.17 1375.43 1344.84 1376.5C1345.52 1377.58 1345.88 1378.82 1345.88 1380.08C1345.65 1382.03 1344.66 1383.81 1343.13 1385.04C1341.6 1386.26 1339.65 1386.84 1337.7 1386.65V1386.65ZM1447.37 1489.79C1445.76 1483.22 1421.18 1493.05 1421.18 1493.05C1421.18 1493.05 1429.36 1461.95 1416.27 1461.95C1403.17 1461.95 1401.56 1484.99 1401.56 1484.99C1401.56 1484.99 1376.98 1475.16 1376.98 1489.91C1376.98 1504.65 1393.34 1504.65 1393.34 1504.65C1393.34 1504.65 1373.72 1529.19 1388.47 1534.1C1403.21 1539.02 1413 1521.01 1413 1521.01C1413 1521.01 1422.83 1537.37 1436.04 1530.84C1449.25 1524.31 1439.31 1509.57 1439.31 1509.57C1439.31 1509.57 1449.02 1496.32 1447.37 1489.79ZM1414.65 1514.52C1413.42 1514.24 1412.28 1513.63 1411.38 1512.73C1410.48 1511.84 1409.85 1510.71 1409.57 1509.48C1409.28 1508.24 1409.35 1506.95 1409.77 1505.75C1410.18 1504.55 1410.93 1503.5 1411.92 1502.71C1412.91 1501.92 1414.11 1501.42 1415.37 1501.28C1416.63 1501.14 1417.9 1501.36 1419.04 1501.91C1420.18 1502.46 1421.15 1503.33 1421.82 1504.4C1422.49 1505.48 1422.84 1506.72 1422.83 1507.99C1422.59 1509.93 1421.6 1511.7 1420.07 1512.92C1418.55 1514.14 1416.6 1514.72 1414.65 1514.52ZM1365.54 1539.1C1363.89 1532.53 1339.35 1542.36 1339.35 1542.36C1339.35 1542.36 1347.53 1511.26 1334.44 1511.26C1321.34 1511.26 1319.69 1534.3 1319.69 1534.3C1319.69 1534.3 1295.12 1524.47 1295.12 1539.21C1295.12 1553.96 1311.51 1553.96 1311.51 1553.96C1311.51 1553.96 1291.85 1578.49 1306.6 1583.41C1321.34 1588.33 1331.13 1570.32 1331.13 1570.32C1331.13 1570.32 1340.97 1586.67 1354.17 1580.15C1367.38 1573.62 1357.48 1558.87 1357.48 1558.87C1357.48 1558.87 1367.04 1545.43 1365.54 1538.9V1539.1ZM1332.79 1563.63C1331.55 1563.36 1330.41 1562.74 1329.51 1561.85C1328.61 1560.95 1327.98 1559.82 1327.7 1558.59C1327.41 1557.35 1327.48 1556.06 1327.9 1554.87C1328.32 1553.67 1329.06 1552.61 1330.05 1551.82C1331.04 1551.03 1332.24 1550.54 1333.5 1550.4C1334.76 1550.25 1336.03 1550.47 1337.17 1551.03C1338.32 1551.58 1339.28 1552.44 1339.95 1553.52C1340.62 1554.59 1340.97 1555.84 1340.97 1557.11C1340.68 1559.01 1339.67 1560.73 1338.15 1561.91C1336.62 1563.09 1334.7 1563.64 1332.79 1563.44V1563.63ZM1440.84 1442.48H1458.85C1471.95 1442.48 1480.13 1457.23 1480.13 1457.23C1452.29 1465.21 1440.84 1442.29 1440.84 1442.29V1442.48ZM1247.65 1535.64H1265.66C1278.76 1535.64 1286.94 1550.35 1286.94 1550.35C1259.1 1558.57 1247.65 1535.64 1247.65 1535.64ZM1352.72 1430.04L1363.24 1444.67C1370.92 1455.35 1363.66 1470.55 1363.66 1470.55C1340.77 1452.58 1352.72 1430.04 1352.72 1430.04ZM1459.2 1521.59L1469.68 1536.22C1477.36 1546.85 1470.1 1562.1 1470.1 1562.1C1447.22 1544.24 1459.2 1521.59 1459.2 1521.59ZM1262.48 1479L1270.69 1462.99C1276.72 1451.47 1293.73 1450.78 1293.73 1450.78C1288.05 1479.27 1262.44 1479 1262.44 1479H1262.48Z" fill="white"/>
</svg>
