<svg width="1920" height="1791" viewBox="0 0 1920 1791" fill="none" xmlns="http://www.w3.org/2000/svg">
<g opacity="0.15" filter="url(#filter0_f)">
<path d="M1622.05 562.199C1630.77 472.113 1651.62 386.827 1614.76 300.196C1547.1 141.22 1343 56.8169 1184.41 132.119C1103.31 170.519 1033.96 226.699 944.64 247.319C703.564 302.961 331.468 6.51294 200.256 351.652C155.212 470.078 173.376 626.135 254.822 725.13C280.972 756.887 312.921 784.535 332.275 820.862C385.228 920.279 310.272 1029.53 276.48 1122.26C196.224 1341.41 498.816 1462.68 663.052 1485.03C934.54 1522.2 1158.49 1211.16 1428.48 1337.88C1616.64 1426.2 1781.76 1211.16 1747.2 996.119C1724.58 855.345 1610.07 720.599 1620.79 577.137C1621.17 572.183 1621.59 567.23 1622.05 562.199Z" fill="#DD384A"/>
<path opacity="0.7" d="M1622.05 562.199C1630.77 472.113 1651.62 386.827 1614.76 300.196C1547.1 141.22 1343 56.8169 1184.41 132.119C1103.31 170.519 1033.96 226.699 944.64 247.319C703.564 302.961 331.468 6.51294 200.256 351.652C155.212 470.078 173.376 626.135 254.822 725.13C280.972 756.887 312.921 784.535 332.275 820.862C385.228 920.279 310.272 1029.53 276.48 1122.26C196.224 1341.41 498.816 1462.68 663.052 1485.03C934.54 1522.2 1158.49 1211.16 1428.48 1337.88C1616.64 1426.2 1781.76 1211.16 1747.2 996.119C1724.58 855.345 1610.07 720.599 1620.79 577.137C1621.17 572.183 1621.59 567.23 1622.05 562.199Z" fill="white"/>
<path d="M329.356 620.799C402.586 620.799 461.951 561.434 461.951 488.204C461.951 414.974 402.586 355.609 329.356 355.609C256.126 355.609 196.761 414.974 196.761 488.204C196.761 561.434 256.126 620.799 329.356 620.799Z" fill="white" stroke="#2E353A" stroke-linecap="round" stroke-linejoin="round"/>
<path d="M319.488 607.627C392.718 607.627 452.083 548.262 452.083 475.032C452.083 401.802 392.718 342.437 319.488 342.437C246.257 342.437 186.893 401.802 186.893 475.032C186.893 548.262 246.257 607.627 319.488 607.627Z" fill="white" stroke="#2E353A" stroke-linecap="round" stroke-linejoin="round"/>
<path d="M319.487 594.457C385.443 594.457 438.911 540.989 438.911 475.033C438.911 409.077 385.443 355.609 319.487 355.609C253.531 355.609 200.063 409.077 200.063 475.033C200.063 540.989 253.531 594.457 319.487 594.457Z" fill="#2E353A" stroke="#2E353A" stroke-linecap="round" stroke-linejoin="round"/>
<path d="M305.471 385.253C305.471 385.253 292.3 352.306 269.26 329.266C246.22 306.226 152.294 291.365 152.294 291.365C167.461 305.994 181.253 321.985 193.497 339.135C214.886 368.78 285.657 436.325 285.657 436.325C285.657 436.325 251.097 406.681 219.763 403.378C188.428 400.076 109.401 416.549 104.563 416.549C99.7243 416.549 134.207 429.721 158.937 441.241C183.667 452.761 279.167 462.668 279.167 462.668C279.167 462.668 238.003 474.188 210.047 484.095C182.092 494.002 155.596 566.425 155.596 566.425C155.596 566.425 191.846 533.477 223.142 525.26C254.438 517.042 298.905 502.22 298.905 502.22C298.905 502.22 270.911 533.516 264.345 554.943C257.779 576.37 262.694 625.753 262.694 625.753C262.694 625.753 277.516 579.673 295.641 561.509C313.766 543.346 333.465 512.281 333.465 512.281C342.589 527.152 350.845 542.537 358.195 558.361C371.366 586.354 379.583 627.481 379.583 627.481C379.583 627.481 401.011 581.401 399.359 558.361C397.708 535.321 373.017 494.117 373.017 494.117C373.017 494.117 389.491 482.597 414.182 492.466C438.873 502.335 481.727 543.538 481.727 543.538C481.727 543.538 471.82 489.164 455.347 467.775C438.873 446.386 368.063 439.743 368.063 439.743C368.063 439.743 407.615 416.703 432.307 411.749C456.998 406.796 489.907 418.354 489.907 418.354C489.907 418.354 452.044 365.631 422.399 362.328C392.755 359.026 348.287 405.029 348.287 405.029L361.497 339.135C364.761 322.661 358.195 281.535 358.195 281.535C358.195 281.535 340.07 291.404 318.643 322.7C312.372 331.714 307.975 341.895 305.712 352.641C303.45 363.386 303.368 374.476 305.471 385.253Z" fill="#DD384A"/>
<path opacity="0.5" d="M305.471 385.253C305.471 385.253 292.3 352.306 269.26 329.266C246.22 306.226 152.294 291.365 152.294 291.365C167.461 305.994 181.253 321.985 193.497 339.135C214.886 368.78 285.657 436.325 285.657 436.325C285.657 436.325 251.097 406.681 219.763 403.378C188.428 400.076 109.401 416.549 104.563 416.549C99.7243 416.549 134.207 429.721 158.937 441.241C183.667 452.761 279.167 462.668 279.167 462.668C279.167 462.668 238.003 474.188 210.047 484.095C182.092 494.002 155.596 566.425 155.596 566.425C155.596 566.425 191.846 533.477 223.142 525.26C254.438 517.042 298.905 502.22 298.905 502.22C298.905 502.22 270.911 533.516 264.345 554.943C257.779 576.37 262.694 625.753 262.694 625.753C262.694 625.753 277.516 579.673 295.641 561.509C313.766 543.346 333.465 512.281 333.465 512.281C342.589 527.152 350.845 542.537 358.195 558.361C371.366 586.354 379.583 627.481 379.583 627.481C379.583 627.481 401.011 581.401 399.359 558.361C397.708 535.321 373.017 494.117 373.017 494.117C373.017 494.117 389.491 482.597 414.182 492.466C438.873 502.335 481.727 543.538 481.727 543.538C481.727 543.538 471.82 489.164 455.347 467.775C438.873 446.386 368.063 439.743 368.063 439.743C368.063 439.743 407.615 416.703 432.307 411.749C456.998 406.796 489.907 418.354 489.907 418.354C489.907 418.354 452.044 365.631 422.399 362.328C392.755 359.026 348.287 405.029 348.287 405.029L361.497 339.135C364.761 322.661 358.195 281.535 358.195 281.535C358.195 281.535 340.07 291.404 318.643 322.7C312.372 331.714 307.975 341.895 305.712 352.641C303.45 363.386 303.368 374.476 305.471 385.253Z" fill="black"/>
<path d="M337.92 335.104C339.072 330.38 340.339 325.657 341.76 321.011" stroke="#2E353A" stroke-width="0.5" stroke-linecap="round" stroke-linejoin="round"/>
<path d="M227.903 335.103C243.263 346.355 262.463 361.983 272.524 375.385C290.648 400.076 326.898 452.799 326.898 452.799C325.86 417.387 328.667 381.967 335.269 347.161" stroke="#2E353A" stroke-width="0.5" stroke-linecap="round" stroke-linejoin="round"/>
<path d="M205.017 319.359C205.017 319.359 209.817 322.431 216.997 327.385" stroke="#2E353A" stroke-width="0.5" stroke-linecap="round" stroke-linejoin="round"/>
<path d="M326.899 452.799C326.899 452.799 389.491 390.207 415.833 385.254C442.176 380.3 465.254 400.076 465.254 400.076" stroke="#2E353A" stroke-width="0.5" stroke-linecap="round" stroke-linejoin="round"/>
<path d="M215.04 505.138C199.68 514.815 198.413 520.498 198.413 520.498" stroke="#2E353A" stroke-width="0.5" stroke-linecap="round" stroke-linejoin="round"/>
<path d="M463.602 510.438C463.602 510.438 453.734 485.708 419.135 474.188C384.537 462.668 330.239 461.017 330.239 461.017C330.239 461.017 254.015 485.977 226.137 498.995" stroke="#2E353A" stroke-width="0.5" stroke-linecap="round" stroke-linejoin="round"/>
<path d="M296.908 451.609C315.34 456.985 330.201 461.017 330.201 461.017" stroke="#2E353A" stroke-width="0.5" stroke-linecap="round" stroke-linejoin="round"/>
<path d="M180.902 422.348C198.796 423.423 221.836 425.88 234.662 431.372C245.107 435.864 265.689 442.354 285.119 448.152" stroke="#2E353A" stroke-width="0.5" stroke-linecap="round" stroke-linejoin="round"/>
<path d="M155.597 421.503C155.597 421.503 161.625 421.503 170.496 421.849" stroke="#2E353A" stroke-width="0.5" stroke-linecap="round" stroke-linejoin="round"/>
<path d="M326.899 470.885C326.899 470.885 280.819 540.005 277.478 556.556C275.499 566.32 274.394 576.24 274.176 586.201" stroke="#2E353A" stroke-width="0.5" stroke-linecap="round" stroke-linejoin="round"/>
<path d="M347.404 492.658C356.275 504.178 366.911 519.538 371.366 531.826C376.551 546.818 380.406 562.238 382.886 577.906" stroke="#2E353A" stroke-width="0.5" stroke-linecap="round" stroke-linejoin="round"/>
<path d="M333.465 475.839C333.465 475.839 337.305 479.91 342.259 486.169" stroke="#2E353A" stroke-width="0.5" stroke-linecap="round" stroke-linejoin="round"/>
<path d="M284.543 399.461C284.543 399.461 276.056 364.901 281.317 332.837C286.578 300.773 354.277 233.842 354.277 233.842C350.515 254.57 348.651 275.598 348.709 296.665C348.709 333.221 330.469 429.375 330.469 429.375C330.469 429.375 341.26 385.138 364.76 364.095C388.261 343.052 462.104 310.335 466.098 307.532C470.092 304.729 449.701 335.525 436.376 359.333C423.052 383.142 351.128 447.001 351.128 447.001C351.128 447.001 391.295 432.332 419.788 423.961C448.28 415.59 511.948 459.135 511.948 459.135C511.948 459.135 463.295 453.529 433.074 465.087C402.853 476.646 358.079 490.546 358.079 490.546C358.079 490.546 399.09 499.647 416.908 513.202C434.725 526.758 459.608 569.881 459.608 569.881C459.608 569.881 420.671 541.042 395.365 536.895C370.06 532.748 335.768 518.886 335.768 518.886C337.069 536.28 339.351 553.588 342.604 570.726C348.248 601.177 365.644 639.423 365.644 639.423C365.644 639.423 321.368 614.463 309.234 594.764C297.1 575.065 293.183 527.218 293.183 527.218C293.183 527.218 273.061 527.449 258.623 549.874C244.184 572.3 233.548 630.745 233.548 630.745C233.548 630.745 209.893 580.825 210.776 553.945C211.659 527.065 265.343 480.294 265.343 480.294C265.343 480.294 219.8 484.633 196.837 495.001C173.874 505.369 153.829 533.977 153.829 533.977C153.829 533.977 153.829 469.081 176.024 449.113C198.22 429.145 261.234 440.665 261.234 440.665L212.082 394.854C199.794 383.334 181.131 346.086 181.131 346.086C181.131 346.086 201.637 343.551 237.272 356.492C247.63 360.118 257.153 365.791 265.274 373.173C273.395 380.555 279.947 389.495 284.543 399.461V399.461Z" fill="#DD384A"/>
<path d="M228.94 377.65C225.1 374.463 221.49 371.391 217.65 368.396" stroke="#2E353A" stroke-width="0.5" stroke-linecap="round" stroke-linejoin="round"/>
<path d="M318.298 313.485C312.346 331.609 305.702 355.456 305.549 372.198C305.242 402.918 306.547 466.777 306.547 466.777C286.727 437.416 263.769 410.3 238.08 385.907" stroke="#2E353A" stroke-width="0.5" stroke-linecap="round" stroke-linejoin="round"/>
<path d="M327.744 287.334C327.744 287.334 325.593 292.633 322.675 300.812" stroke="#2E353A" stroke-width="0.5" stroke-linecap="round" stroke-linejoin="round"/>
<path d="M306.546 466.776C306.546 466.776 219.186 452.453 194.917 463.82C170.648 475.186 163.429 504.6 163.429 504.6" stroke="#2E353A" stroke-width="0.5" stroke-linecap="round" stroke-linejoin="round"/>
<path d="M427.967 444.044C445.977 443.045 450.278 446.693 450.278 446.693" stroke="#2E353A" stroke-width="0.5" stroke-linecap="round" stroke-linejoin="round"/>
<path d="M229.133 593.343C229.133 593.343 222.758 567.5 244.109 537.97C265.459 508.44 308.698 475.416 308.698 475.416C308.698 475.416 385.152 451.186 415.373 445.541" stroke="#2E353A" stroke-width="0.5" stroke-linecap="round" stroke-linejoin="round"/>
<path d="M330.24 448.344C318.413 463.435 308.736 475.416 308.736 475.416" stroke="#2E353A" stroke-width="0.5" stroke-linecap="round" stroke-linejoin="round"/>
<path d="M407.385 356.914C393.485 368.434 376.205 383.794 368.985 395.582C363.11 405.336 350.169 422.463 337.766 438.629" stroke="#2E353A" stroke-width="0.5" stroke-linecap="round" stroke-linejoin="round"/>
<path d="M427.43 341.439C427.43 341.439 422.554 344.972 415.526 350.425" stroke="#2E353A" stroke-width="0.5" stroke-linecap="round" stroke-linejoin="round"/>
<path d="M317.106 481.56C317.106 481.56 394.943 510.821 407.192 522.302C414.497 529.077 421.18 536.492 427.16 544.459" stroke="#2E353A" stroke-width="0.5" stroke-linecap="round" stroke-linejoin="round"/>
<path d="M313.152 511.129C312.614 525.644 312.883 544.268 316.531 556.94C321.058 572.164 326.931 586.955 334.08 601.138" stroke="#2E353A" stroke-width="0.5" stroke-linecap="round" stroke-linejoin="round"/>
<path d="M314.649 489.24C314.649 489.24 314.035 494.693 313.574 502.757" stroke="#2E353A" stroke-width="0.5" stroke-linecap="round" stroke-linejoin="round"/>
<path d="M540.788 575.372H1411.2C1422.07 575.372 1432.49 579.689 1440.17 587.373C1447.86 595.056 1452.17 605.478 1452.17 616.345V1180.82C1452.17 1186.71 1451.01 1192.54 1448.76 1197.97C1446.51 1203.41 1443.21 1208.35 1439.05 1212.51C1434.89 1216.67 1429.95 1219.97 1424.51 1222.23C1419.07 1224.48 1413.25 1225.64 1407.36 1225.64H544.628C538.743 1225.64 532.916 1224.48 527.479 1222.23C522.042 1219.97 517.102 1216.67 512.94 1212.51C508.779 1208.35 505.478 1203.41 503.226 1197.97C500.974 1192.54 499.815 1186.71 499.815 1180.82V616.345C499.815 605.478 504.132 595.056 511.816 587.373C519.499 579.689 529.921 575.372 540.788 575.372Z" fill="white" stroke="#2E353A" stroke-linecap="round" stroke-linejoin="round"/>
<path d="M859.354 639.384H805.748V674.597H859.354V639.384Z" fill="#2E353A"/>
<path d="M685.671 856.614H635.904V905.996H685.671V856.614Z" fill="#2E353A"/>
<path d="M905.548 683.046H855.398V732.428H905.548V683.046Z" fill="#2E353A"/>
<path d="M797.261 639.384H743.655V674.597H797.261V639.384Z" fill="#2E353A"/>
<path d="M964.147 683.046H913.997V732.428H964.147V683.046Z" fill="#2E353A"/>
<path d="M921.407 639.384H867.801V674.597H921.407V639.384Z" fill="#2E353A"/>
<path d="M655.603 798.744H561.292V848.127H655.603V798.744Z" fill="#2E353A"/>
<path d="M788.313 683.046H738.163V732.428H788.313V683.046Z" fill="#2E353A"/>
<path d="M627.456 856.614H561.292V905.996H627.456V856.614Z" fill="#2E353A"/>
<path d="M983.501 639.384H929.895V674.597H983.501V639.384Z" fill="#2E353A"/>
<path d="M671.078 683.046H620.927V732.428H671.078V683.046Z" fill="#2E353A"/>
<path d="M673.114 639.384H619.508V674.597H673.114V639.384Z" fill="#2E353A"/>
<path d="M735.207 639.384H681.6V674.597H735.207V639.384Z" fill="#2E353A"/>
<path d="M729.677 683.046H679.526V732.428H729.677V683.046Z" fill="#2E353A"/>
<path d="M846.912 683.046H796.761V732.428H846.912V683.046Z" fill="#2E353A"/>
<path d="M1231.83 639.384H1178.23V674.597H1231.83V639.384Z" fill="#2E353A"/>
<path d="M1293.89 639.384H1240.28V674.597H1293.89V639.384Z" fill="#2E353A"/>
<path d="M1257.25 683.046H1207.1V732.428H1257.25V683.046Z" fill="#2E353A"/>
<path d="M1315.89 683.046H1265.74V732.428H1315.89V683.046Z" fill="#2E353A"/>
<path d="M1408.63 856.614H1334.78V905.996H1408.63V856.614Z" fill="#2E353A"/>
<path d="M1355.98 639.384H1302.38V674.597H1355.98V639.384Z" fill="#2E353A"/>
<path d="M612.48 683.046H561.292V732.428H612.48V683.046Z" fill="#2E353A"/>
<path d="M1045.59 639.384H991.987V674.597H1045.59V639.384Z" fill="#2E353A"/>
<path d="M1107.65 639.384H1054.04V674.597H1107.65V639.384Z" fill="#2E353A"/>
<path d="M1081.42 683.046H1031.27V732.428H1081.42V683.046Z" fill="#2E353A"/>
<path d="M1198.66 683.046H1148.51V732.428H1198.66V683.046Z" fill="#2E353A"/>
<path d="M1022.78 683.046H972.634V732.428H1022.78V683.046Z" fill="#2E353A"/>
<path d="M1140.02 683.046H1089.87V732.428H1140.02V683.046Z" fill="#2E353A"/>
<path d="M1169.74 639.384H1116.13V674.597H1169.74V639.384Z" fill="#2E353A"/>
<path d="M1093.36 856.614H1043.6V905.996H1093.36V856.614Z" fill="#2E353A"/>
<path d="M1354.48 798.744H1304.72V848.127H1354.48V798.744Z" fill="#2E353A"/>
<path d="M1296.23 798.744H1246.46V848.127H1296.23V798.744Z" fill="#2E353A"/>
<path d="M1326.3 856.614H1276.53V905.996H1326.3V856.614Z" fill="#2E353A"/>
<path d="M1268.08 856.614H1218.32V905.996H1268.08V856.614Z" fill="#2E353A"/>
<path d="M1151.58 856.614H1101.81V905.996H1151.58V856.614Z" fill="#2E353A"/>
<path d="M1209.83 856.614H1160.06V905.996H1209.83V856.614Z" fill="#2E353A"/>
<path d="M1237.98 798.744H1188.21V848.127H1237.98V798.744Z" fill="#2E353A"/>
<path d="M1179.76 798.744H1130V848.127H1179.76V798.744Z" fill="#2E353A"/>
<path d="M1408.67 639.384H1364.47V674.597H1408.67V639.384Z" fill="#2E353A"/>
<path d="M611.059 639.384H561.292V674.597H611.059V639.384Z" fill="#2E353A"/>
<path d="M1408.67 914.443H561.292V965.784H1408.67V914.443Z" fill="#2E353A"/>
<path d="M1408.63 683.046H1324.34V732.428H1408.63V683.046Z" fill="#2E353A"/>
<path d="M1408.63 798.744H1362.93V848.127H1408.63V798.744Z" fill="#2E353A"/>
<path d="M1348.88 789.912H1340.39V740.914H1290.62V789.912H1282.18V740.914H1232.41V789.912H1223.92V740.914H1174.16V789.912H1165.67V740.914H1115.9V789.912H1107.46V740.914H1057.69V789.912H1049.2V740.914H999.436V789.912H990.95V740.914H941.184V789.912H932.736V740.914H882.969V789.912H874.483V740.914H824.717V789.912H816.23V740.914H766.464V789.912H758.016V740.914H708.249V789.912H699.763V740.914H649.997V789.912H641.51V740.914H561.292V790.296H1408.63V740.914H1348.88V789.912Z" fill="#2E353A"/>
<path d="M946.791 798.744H897.024V848.127H946.791V798.744Z" fill="#2E353A"/>
<path d="M1121.51 798.744H1071.74V848.127H1121.51V798.744Z" fill="#2E353A"/>
<path d="M830.323 798.744H780.557V848.127H830.323V798.744Z" fill="#2E353A"/>
<path d="M860.391 856.614H810.625V905.996H860.391V856.614Z" fill="#2E353A"/>
<path d="M888.537 798.744H838.771V848.127H888.537V798.744Z" fill="#2E353A"/>
<path d="M772.071 798.744H722.305V848.127H772.071V798.744Z" fill="#2E353A"/>
<path d="M743.924 856.614H694.157V905.996H743.924V856.614Z" fill="#2E353A"/>
<path d="M802.137 856.614H752.371V905.996H802.137V856.614Z" fill="#2E353A"/>
<path d="M1005.04 798.744H955.277V848.127H1005.04V798.744Z" fill="#2E353A"/>
<path d="M1035.11 856.614H985.345V905.996H1035.11V856.614Z" fill="#2E353A"/>
<path d="M1063.26 798.744H1013.49V848.127H1063.26V798.744Z" fill="#2E353A"/>
<path d="M918.643 856.614H868.877V905.996H918.643V856.614Z" fill="#2E353A"/>
<path d="M976.857 856.614H927.09V905.996H976.857V856.614Z" fill="#2E353A"/>
<path d="M713.817 798.744H664.05V848.127H713.817V798.744Z" fill="#2E353A"/>
<path d="M1506.55 222.092H440.333C435.104 222.096 429.946 223.302 425.258 225.618C420.57 227.934 416.478 231.296 413.297 235.446C410.116 239.596 407.931 244.421 406.913 249.55C405.895 254.679 406.07 259.973 407.424 265.023L485.376 555.25C487.319 562.495 491.596 568.897 497.545 573.465C503.495 578.033 510.784 580.512 518.285 580.517H627.11V600.601H1324.8V580.633H1428.48C1435.98 580.627 1443.27 578.148 1449.22 573.58C1455.17 569.012 1459.45 562.61 1461.39 555.365L1539.34 265.138C1540.71 260.09 1540.91 254.793 1539.9 249.658C1538.9 244.524 1536.73 239.688 1533.56 235.527C1530.39 231.365 1526.31 227.989 1521.62 225.659C1516.94 223.329 1511.78 222.109 1506.55 222.092V222.092Z" fill="#2E353A" stroke="#2E353A" stroke-linecap="round" stroke-linejoin="round"/>
<path d="M1385.97 554.904H560.909L478.388 257.957H1468.45L1385.97 554.904Z" fill="#DD384A" stroke="#2E353A" stroke-linecap="round" stroke-linejoin="round"/>
<path d="M615.667 424.575V428.415H601.114V424.575H615.667Z" fill="#2E353A"/>
<path d="M633.792 424.575V428.415H619.2V424.575H633.792Z" fill="#2E353A"/>
<path d="M651.917 424.575V428.415H637.44V424.575H651.917Z" fill="#2E353A"/>
<path d="M670.003 424.575V428.415H655.45V424.575H670.003Z" fill="#2E353A"/>
<path d="M688.128 424.575V428.415H673.536V424.575H688.128Z" fill="#2E353A"/>
<path d="M706.253 424.575V428.415H691.661V424.575H706.253Z" fill="#2E353A"/>
<path d="M724.339 424.575V428.415H709.785V424.575H724.339Z" fill="#2E353A"/>
<path d="M742.272 444.811L726.221 402.034H730.061L746.112 444.811H742.272Z" fill="#2E353A"/>
<path d="M600.998 362.29V366.13H586.444V362.29H600.998Z" fill="#2E353A"/>
<path d="M619.123 362.29V366.13H604.57V362.29H619.123Z" fill="#2E353A"/>
<path d="M637.439 362.29V366.13H622.847V362.29H637.439Z" fill="#2E353A"/>
<path d="M655.373 362.29V366.13H640.781V362.29H655.373Z" fill="#2E353A"/>
<path d="M673.459 362.29V366.13H658.905V362.29H673.459Z" fill="#2E353A"/>
<path d="M704.103 362.29V366.13H689.511V362.29H704.103Z" fill="#2E353A"/>
<path d="M722.188 362.29V366.13H707.635V362.29H722.188Z" fill="#2E353A"/>
<path d="M740.314 362.29V366.13H725.76V362.29H740.314Z" fill="#2E353A"/>
<path d="M758.439 362.29V366.13H743.847V362.29H758.439Z" fill="#2E353A"/>
<path d="M776.524 362.29V366.13H761.971V362.29H776.524Z" fill="#2E353A"/>
<path d="M794.649 362.29V366.13H780.096V362.29H794.649Z" fill="#2E353A"/>
<path d="M812.774 362.29V366.13H798.182V362.29H812.774Z" fill="#2E353A"/>
<path d="M843.379 362.29V366.13H828.825V362.29H843.379Z" fill="#2E353A"/>
<path d="M861.504 362.29V366.13H846.912V362.29H861.504Z" fill="#2E353A"/>
<path d="M879.629 362.29V366.13H865.037V362.29H879.629Z" fill="#2E353A"/>
<path d="M910.08 362.29V366.13H895.526V362.29H910.08Z" fill="#2E353A"/>
<path d="M928.359 362.29V366.13H913.92V362.29H928.359Z" fill="#2E353A"/>
<path d="M946.483 362.29V366.13H931.891V362.29H946.483Z" fill="#2E353A"/>
<path d="M1014.6 362.29V366.13H1000.05V362.29H1014.6Z" fill="#2E353A"/>
<path d="M1032.73 362.29V366.13H1018.14V362.29H1032.73Z" fill="#2E353A"/>
<path d="M1050.85 362.29V366.13H1036.26V362.29H1050.85Z" fill="#2E353A"/>
<path d="M1068.94 362.29V366.13H1054.39V362.29H1068.94Z" fill="#2E353A"/>
<path d="M1087.07 362.29V366.13H1072.47V362.29H1087.07Z" fill="#2E353A"/>
<path d="M1117.67 362.29V366.13H1103.12V362.29H1117.67Z" fill="#2E353A"/>
<path d="M1135.8 362.29V366.13H1121.28V362.29H1135.8Z" fill="#2E353A"/>
<path d="M1153.92 362.29V366.13H1139.33V362.29H1153.92Z" fill="#2E353A"/>
<path d="M1184.52 362.29V366.13H1169.97V362.29H1184.52Z" fill="#2E353A"/>
<path d="M1215.17 362.29V366.13H1200.58V362.29H1215.17Z" fill="#2E353A"/>
<path d="M1458.01 993.394L1416.92 1151.91L1455.78 1163.31L1458.01 993.394Z" fill="white" stroke="#2E353A" stroke-linecap="round" stroke-linejoin="round"/>
<path d="M1476.44 825.854C1471.81 818.731 1470.11 810.086 1471.72 801.739C1473.83 786.11 1492.69 782.539 1492.69 782.539C1492.69 782.539 1496.79 779.429 1511.89 785.15C1526.98 790.872 1643.67 806.693 1718.25 816.792C1792.82 826.891 1816.97 820.363 1815.94 845.976C1814.9 871.589 1749.47 1101.45 1748.47 1108.67C1747.47 1115.89 1476.44 825.854 1476.44 825.854Z" fill="white" stroke="#2E353A" stroke-miterlimit="10"/>
<path d="M1790.11 868.387L1476.41 825.861L1425.72 1199.8L1739.42 1242.32L1790.11 868.387Z" fill="white" stroke="#2E353A" stroke-linecap="round" stroke-linejoin="round"/>
<path d="M1731.8 942.975L1750.04 945.471" stroke="#2E353A" stroke-width="0.5" stroke-linecap="round" stroke-linejoin="round"/>
<path d="M1617.56 927.499L1717.36 941.054" stroke="#2E353A" stroke-width="0.5" stroke-linecap="round" stroke-linejoin="round"/>
<path d="M1496.6 911.102L1603.12 925.541" stroke="#2E353A" stroke-width="0.5" stroke-linecap="round" stroke-linejoin="round"/>
<path d="M1703.23 972.964L1745.55 978.724" stroke="#2E353A" stroke-width="0.5" stroke-linecap="round" stroke-linejoin="round"/>
<path d="M1492.11 944.357L1659.96 967.09" stroke="#2E353A" stroke-width="0.5" stroke-linecap="round" stroke-linejoin="round"/>
<path d="M1577.28 989.745L1741.06 1011.94" stroke="#2E353A" stroke-width="0.5" stroke-linecap="round" stroke-linejoin="round"/>
<path d="M1487.58 977.573L1560.42 987.48" stroke="#2E353A" stroke-width="0.5" stroke-linecap="round" stroke-linejoin="round"/>
<path d="M1631.69 1030.99L1736.53 1045.2" stroke="#2E353A" stroke-width="0.5" stroke-linecap="round" stroke-linejoin="round"/>
<path d="M1542.72 1018.89L1619.67 1029.34" stroke="#2E353A" stroke-width="0.5" stroke-linecap="round" stroke-linejoin="round"/>
<path d="M1483.09 1010.83L1529.47 1017.13" stroke="#2E353A" stroke-width="0.5" stroke-linecap="round" stroke-linejoin="round"/>
<path d="M1694.52 1073.34L1732.03 1078.41" stroke="#2E353A" stroke-width="0.5" stroke-linecap="round" stroke-linejoin="round"/>
<path d="M1478.59 1044.08L1669.29 1069.92" stroke="#2E353A" stroke-width="0.5" stroke-linecap="round" stroke-linejoin="round"/>
<path d="M1621.48 1097.27L1727.54 1111.67" stroke="#2E353A" stroke-width="0.5" stroke-linecap="round" stroke-linejoin="round"/>
<path d="M1474.06 1077.3L1603.43 1094.85" stroke="#2E353A" stroke-width="0.5" stroke-linecap="round" stroke-linejoin="round"/>
<path d="M1654.23 1135.59L1723.01 1144.88" stroke="#2E353A" stroke-width="0.5" stroke-linecap="round" stroke-linejoin="round"/>
<path d="M1514.77 1116.66L1637.42 1133.29" stroke="#2E353A" stroke-width="0.5" stroke-linecap="round" stroke-linejoin="round"/>
<path d="M1469.57 1110.55L1500.33 1114.7" stroke="#2E353A" stroke-width="0.5" stroke-linecap="round" stroke-linejoin="round"/>
<path d="M1790.13 868.402C1790.13 868.402 1795.51 816.255 1814.71 837.221" stroke="#2E353A" stroke-linecap="round" stroke-linejoin="round"/>
<path d="M1683.76 1270.1L1683.42 1303.24L1664.1 1275.98L1586.57 1015.2L1606.24 1009.33L1683.76 1270.1Z" fill="white" stroke="#2E353A" stroke-linecap="round" stroke-linejoin="round"/>
<path d="M1598.54 1020.47L1587.81 1023.6L1663.99 1284.78L1674.72 1281.65L1598.54 1020.47Z" fill="#DD384A" stroke="#2E353A" stroke-width="0.5" stroke-linecap="round" stroke-linejoin="round"/>
<path d="M1683.76 1270.18L1664.14 1276.02L1683.42 1303.24L1683.76 1270.18Z" stroke="#2E353A" stroke-linecap="round" stroke-linejoin="round"/>
<path d="M1673.78 1289.61L1683.42 1303.24L1683.61 1286.69L1673.78 1289.61Z" fill="#2E353A" stroke="#2E353A" stroke-linecap="round" stroke-linejoin="round"/>
<path d="M1587.73 983.064C1585.12 983.846 1582.94 985.626 1581.64 988.014C1580.35 990.402 1580.05 993.206 1580.81 995.813L1586.57 1015.2L1606.23 1009.37L1600.47 989.976C1599.69 987.374 1597.91 985.188 1595.52 983.893C1593.14 982.598 1590.33 982.3 1587.73 983.064V983.064Z" fill="white" stroke="#2E353A" stroke-linecap="round" stroke-linejoin="round"/>
<path d="M1587.73 983.064C1585.12 983.846 1582.94 985.626 1581.64 988.014C1580.35 990.402 1580.05 993.206 1580.81 995.813L1583.58 1005.07L1603.2 999.23L1600.47 989.976C1599.69 987.374 1597.91 985.188 1595.52 983.893C1593.14 982.598 1590.33 982.3 1587.73 983.064V983.064Z" fill="#2E353A" stroke="#2E353A" stroke-linecap="round" stroke-linejoin="round"/>
</g>
<defs>
<filter id="filter0_f" x="-10" y="-10" width="1940" height="1811" filterUnits="userSpaceOnUse" color-interpolation-filters="sRGB">
<feFlood flood-opacity="0" result="BackgroundImageFix"/>
<feBlend mode="normal" in="SourceGraphic" in2="BackgroundImageFix" result="shape"/>
<feGaussianBlur stdDeviation="5" result="effect1_foregroundBlur"/>
</filter>
</defs>
</svg>
