<svg width="33" height="32" viewBox="0 0 33 32" fill="none" xmlns="http://www.w3.org/2000/svg">
<path d="M26.0357 15.7911C25.2632 15.3316 24.4507 15.2032 23.6902 15.4264C22.9359 15.6479 22.3054 16.1931 21.8636 17.0092L20.4795 19.556C20.2955 19.5149 20.1132 19.4801 19.937 19.4435C19.6845 19.3953 19.4461 19.3497 19.2366 19.2889C17.0906 18.6414 15.01 17.5874 12.8703 16.0615C11.8258 15.2944 11.0767 14.6106 10.4652 13.8727C10.8362 13.2542 11.1652 12.6276 11.4871 12.0234C11.6096 11.7972 11.7303 11.5647 11.8528 11.3384C12.7714 9.64173 12.2931 7.93383 10.6358 6.99334L8.48146 5.77069C8.23682 5.63186 7.98429 5.48854 7.74403 5.34163C7.26702 5.06036 6.7681 4.77193 6.26394 4.51222C5.50023 4.08408 4.69912 3.9727 3.9509 4.19236C3.20269 4.41202 2.56869 4.94471 2.12422 5.72755C2.11985 5.73563 2.11985 5.73563 2.11547 5.74371L0.633475 8.50958C0.0735601 9.54376 -0.0998036 10.6547 0.120374 11.82C0.486691 13.6967 1.49246 15.2498 2.21026 16.2486C3.9723 18.7009 6.16869 20.8082 9.1459 22.8833C12.7519 25.3786 16.7102 27.023 20.914 27.7663C22.5162 28.0366 24.6259 28.2939 26.7682 27.8144C26.8987 27.7829 27.0354 27.7496 27.1581 27.7136C28.5748 27.2977 29.6186 26.4272 30.2606 25.1175C30.2633 25.1031 30.2738 25.0932 30.2764 25.0789C30.4845 24.5897 30.7522 24.1238 31.0313 23.6273C31.223 23.2924 31.4172 22.9432 31.6018 22.5832C32.0278 21.7583 32.1357 20.9111 31.9194 20.1388C31.7013 19.3602 31.167 18.7084 30.3717 18.2624L26.0357 15.7911ZM30.0831 21.7584C30.0787 21.7664 30.077 21.7602 30.0831 21.7584C29.9178 22.0923 29.7393 22.4029 29.5494 22.7441C29.2598 23.2504 28.9694 23.7774 28.7175 24.3474C28.288 25.2073 27.6479 25.7418 26.6911 26.0227C26.5992 26.0497 26.501 26.0785 26.4073 26.0993C24.5524 26.5147 22.6557 26.2833 21.2121 26.0343C17.259 25.333 13.5268 23.7852 10.127 21.4333C7.31286 19.4666 5.24629 17.491 3.60272 15.2011C2.59446 13.805 2.04478 12.6481 1.81495 11.472C1.67053 10.7194 1.77593 10.0293 2.13899 9.3587L3.63064 6.60359C3.85026 6.22653 4.12521 5.97593 4.43799 5.8841C4.82436 5.77067 5.20397 5.91745 5.4565 6.06076C5.46439 6.06524 5.47228 6.06972 5.48017 6.0742C5.95452 6.32228 6.41398 6.58831 6.89888 6.87406C7.14528 7.01917 7.39781 7.16249 7.65209 7.31208L9.80648 8.53473C10.643 9.00945 10.8153 9.6248 10.3516 10.4812C10.2248 10.7155 10.1041 10.948 9.97545 11.1761C9.61152 11.8673 9.26157 12.5137 8.86518 13.1601C8.85643 13.1762 8.84592 13.1861 8.84331 13.2005C8.46711 13.8953 8.71296 14.3939 8.92359 14.7194C8.935 14.7365 8.94641 14.7535 8.95782 14.7705C9.69573 15.7227 10.5939 16.5599 11.8655 17.498L11.8734 17.5025C14.164 19.1405 16.4147 20.2805 18.7404 20.9772C19.0376 21.0666 19.3321 21.1228 19.6126 21.1764C19.865 21.2246 20.1034 21.2701 20.3129 21.3309C20.341 21.3363 20.3708 21.3479 20.3988 21.3533C20.6373 21.3988 20.8476 21.3914 21.05 21.332C21.559 21.1826 21.7865 20.7624 21.8608 20.6251L23.3568 17.8619C23.5056 17.5872 23.7646 17.2325 24.151 17.1191C24.5313 17.0074 24.9126 17.1605 25.1625 17.3182C25.1704 17.3227 25.1704 17.3227 25.1783 17.3271L29.5265 19.7948C30.3376 20.2498 30.5223 20.9091 30.0831 21.7584Z" fill="#AB0000"/>
</svg>
