<svg width="628" height="60" viewBox="0 0 628 60" fill="none" xmlns="http://www.w3.org/2000/svg">
<path d="M35.1 43.76C34.38 44.24 33.4 44.78 32.16 45.38C30.92 45.98 29.46 46.5 27.78 46.94C26.14 47.34 24.34 47.52 22.38 47.48C18.98 47.44 15.94 46.84 13.26 45.68C10.58 44.52 8.28 42.94 6.36 40.94C4.48 38.9 3.04 36.58 2.04 33.98C1.04 31.38 0.54 28.6 0.54 25.64C0.54 22.4 1.06 19.42 2.1 16.7C3.18 13.94 4.68 11.56 6.6 9.56C8.52 7.52 10.78 5.94 13.38 4.82C16.02 3.7 18.9 3.14 22.02 3.14C24.62 3.14 26.98 3.5 29.1 4.22C31.22 4.9 33.04 5.7 34.56 6.62L32.22 12.08C31.02 11.28 29.56 10.52 27.84 9.8C26.12 9.08 24.24 8.72 22.2 8.72C20.08 8.72 18.08 9.16 16.2 10.04C14.32 10.88 12.66 12.06 11.22 13.58C9.78 15.06 8.64 16.82 7.8 18.86C7 20.86 6.6 23.02 6.6 25.34C6.6 28.46 7.24 31.28 8.52 33.8C9.84 36.28 11.68 38.24 14.04 39.68C16.44 41.12 19.24 41.84 22.44 41.84C24.68 41.84 26.64 41.52 28.32 40.88C30.04 40.2 31.46 39.42 32.58 38.54L35.1 43.76ZM48.5002 22.16L48.9202 27.98C49.6002 26.58 50.5402 25.38 51.7402 24.38C52.9402 23.34 54.1802 22.56 55.4602 22.04C56.7802 21.48 57.9202 21.18 58.8802 21.14L58.6402 26.72C56.7602 26.64 55.1002 27.02 53.6602 27.86C52.2202 28.66 51.1002 29.76 50.3002 31.16C49.5002 32.56 49.1002 34.06 49.1002 35.66V47H43.5202V22.16H48.5002ZM75.8728 47.6C73.5128 47.6 71.3728 47.1 69.4528 46.1C67.5728 45.1 66.0728 43.64 64.9528 41.72C63.8728 39.76 63.3328 37.38 63.3328 34.58C63.3328 31.78 63.8928 29.38 65.0128 27.38C66.1728 25.38 67.7128 23.84 69.6328 22.76C71.5928 21.68 73.7328 21.14 76.0528 21.14C78.2928 21.14 80.1928 21.62 81.7528 22.58C83.3128 23.54 84.5328 24.7 85.4128 26.06L85.8328 22.16H90.9928V47H85.4128V42.92C84.9328 43.56 84.2328 44.24 83.3128 44.96C82.4328 45.68 81.3528 46.3 80.0728 46.82C78.8328 47.34 77.4328 47.6 75.8728 47.6ZM77.3728 42.98C79.4128 42.98 81.1528 42.42 82.5928 41.3C84.0328 40.14 84.9728 38.58 85.4128 36.62V31.7C84.9328 29.98 83.9328 28.56 82.4128 27.44C80.8928 26.32 79.1528 25.76 77.1928 25.76C75.6728 25.76 74.2928 26.12 73.0528 26.84C71.8128 27.56 70.8128 28.56 70.0528 29.84C69.3328 31.12 68.9728 32.6 68.9728 34.28C68.9728 35.92 69.3528 37.4 70.1128 38.72C70.8728 40 71.8928 41.04 73.1728 41.84C74.4528 42.6 75.8528 42.98 77.3728 42.98ZM105.748 22.16L106.108 26.96C106.948 25.2 108.248 23.8 110.008 22.76C111.768 21.72 113.808 21.2 116.128 21.2C118.448 21.2 120.348 21.9 121.828 23.3C123.348 24.66 124.148 26.44 124.228 28.64V47H118.588V30.56C118.508 29.24 118.088 28.16 117.328 27.32C116.608 26.48 115.468 26.04 113.908 26C111.748 26 109.928 26.88 108.448 28.64C107.008 30.36 106.288 32.6 106.288 35.36V47H100.708V22.16H105.748ZM292.56 3.62H321.36V9.2H309.72V47H303.9V9.2H292.56V3.62ZM334.357 47.6C331.557 47.6 329.117 47.04 327.037 45.92C324.997 44.76 323.417 43.18 322.297 41.18C321.217 39.18 320.677 36.92 320.677 34.4C320.677 31.96 321.277 29.74 322.477 27.74C323.717 25.7 325.377 24.1 327.457 22.94C329.577 21.74 331.917 21.14 334.477 21.14C337.757 21.14 340.477 22.1 342.637 24.02C344.797 25.94 346.277 28.58 347.077 31.94L327.397 38.84C328.077 40.08 329.037 41.06 330.277 41.78C331.517 42.46 332.917 42.8 334.477 42.8C335.597 42.8 336.657 42.6 337.657 42.2C338.657 41.8 339.617 41.28 340.537 40.64L343.117 44.78C341.837 45.62 340.417 46.3 338.857 46.82C337.337 47.34 335.837 47.6 334.357 47.6ZM326.197 34.1C326.157 34.58 326.177 35.04 326.257 35.48L340.717 30.14C340.157 28.94 339.337 27.88 338.257 26.96C337.217 26.04 335.817 25.58 334.057 25.58C331.777 25.58 329.897 26.38 328.417 27.98C326.937 29.58 326.197 31.62 326.197 34.1ZM374.168 44.66C373.048 45.58 371.708 46.3 370.148 46.82C368.588 47.34 367.028 47.6 365.468 47.6C362.788 47.6 360.408 47.06 358.328 45.98C356.288 44.9 354.688 43.38 353.528 41.42C352.408 39.46 351.848 37.16 351.848 34.52C351.848 31.88 352.448 29.6 353.648 27.68C354.888 25.72 356.488 24.2 358.448 23.12C360.448 22.04 362.608 21.5 364.928 21.5C366.928 21.5 368.708 21.78 370.268 22.34C371.828 22.9 373.188 23.66 374.348 24.62L371.528 28.28C370.808 27.76 369.928 27.28 368.888 26.84C367.848 26.36 366.688 26.12 365.408 26.12C363.928 26.12 362.588 26.5 361.388 27.26C360.188 27.98 359.228 28.98 358.508 30.26C357.788 31.5 357.428 32.92 357.428 34.52C357.428 36.08 357.788 37.5 358.508 38.78C359.228 40.06 360.228 41.08 361.508 41.84C362.788 42.6 364.268 42.98 365.948 42.98C366.988 42.98 367.948 42.82 368.828 42.5C369.748 42.18 370.568 41.74 371.288 41.18L374.168 44.66ZM381.372 47V0.499998H386.832V26.66C387.712 25.06 389.012 23.76 390.732 22.76C392.452 21.72 394.472 21.2 396.792 21.2C399.112 21.2 401.012 21.9 402.492 23.3C404.012 24.66 404.812 26.44 404.892 28.64V47H399.252V30.56C399.172 29.24 398.752 28.16 397.992 27.32C397.272 26.48 396.132 26.04 394.572 26C393.132 26 391.832 26.42 390.672 27.26C389.552 28.06 388.652 29.16 387.972 30.56C387.292 31.96 386.952 33.56 386.952 35.36V47H381.372Z" fill="#DD384A"/>
<path d="M149.052 47.6C146.932 47.6 145.052 47.2 143.412 46.4C141.812 45.56 140.492 44.5 139.452 43.22V47H133.872V0.499998H139.452V25.52C140.452 24.2 141.852 23.14 143.652 22.34C145.452 21.54 147.492 21.14 149.772 21.14C151.972 21.14 153.992 21.68 155.832 22.76C157.672 23.8 159.152 25.3 160.272 27.26C161.392 29.22 161.952 31.52 161.952 34.16C161.952 37 161.352 39.42 160.152 41.42C158.952 43.42 157.372 44.96 155.412 46.04C153.452 47.08 151.332 47.6 149.052 47.6ZM147.852 42.8C150.292 42.8 152.292 42 153.852 40.4C155.452 38.76 156.252 36.68 156.252 34.16C156.252 32.56 155.872 31.12 155.112 29.84C154.392 28.52 153.392 27.48 152.112 26.72C150.872 25.96 149.452 25.58 147.852 25.58C145.772 25.58 143.972 26.14 142.452 27.26C140.932 28.38 139.932 29.82 139.452 31.58V36.68C139.932 38.44 140.912 39.9 142.392 41.06C143.872 42.22 145.692 42.8 147.852 42.8ZM180.958 47.6C178.158 47.6 175.718 47.04 173.638 45.92C171.598 44.76 170.018 43.18 168.898 41.18C167.818 39.18 167.278 36.92 167.278 34.4C167.278 31.96 167.878 29.74 169.078 27.74C170.318 25.7 171.978 24.1 174.058 22.94C176.178 21.74 178.518 21.14 181.078 21.14C184.358 21.14 187.078 22.1 189.238 24.02C191.398 25.94 192.878 28.58 193.678 31.94L173.998 38.84C174.678 40.08 175.638 41.06 176.878 41.78C178.118 42.46 179.518 42.8 181.078 42.8C182.198 42.8 183.258 42.6 184.258 42.2C185.258 41.8 186.218 41.28 187.138 40.64L189.718 44.78C188.438 45.62 187.018 46.3 185.458 46.82C183.938 47.34 182.438 47.6 180.958 47.6ZM172.798 34.1C172.758 34.58 172.778 35.04 172.858 35.48L187.318 30.14C186.758 28.94 185.938 27.88 184.858 26.96C183.818 26.04 182.418 25.58 180.658 25.58C178.378 25.58 176.498 26.38 175.018 27.98C173.538 29.58 172.798 31.62 172.798 34.1ZM205.59 22.16L206.01 27.98C206.69 26.58 207.63 25.38 208.83 24.38C210.03 23.34 211.27 22.56 212.55 22.04C213.87 21.48 215.01 21.18 215.97 21.14L215.73 26.72C213.85 26.64 212.19 27.02 210.75 27.86C209.31 28.66 208.19 29.76 207.39 31.16C206.59 32.56 206.19 34.06 206.19 35.66V47H200.61V22.16H205.59ZM228.149 22.16L228.569 27.98C229.249 26.58 230.189 25.38 231.389 24.38C232.589 23.34 233.829 22.56 235.109 22.04C236.429 21.48 237.569 21.18 238.529 21.14L238.289 26.72C236.409 26.64 234.749 27.02 233.309 27.86C231.869 28.66 230.749 29.76 229.949 31.16C229.149 32.56 228.749 34.06 228.749 35.66V47H223.169V22.16H228.149ZM247.827 58.94L253.527 46.22L242.007 22.16H248.307L256.287 39.86L264.207 22.16H269.367L253.347 58.94H247.827ZM419.576 22.16L419.936 26.96C420.776 25.2 422.076 23.8 423.836 22.76C425.596 21.72 427.636 21.2 429.956 21.2C432.276 21.2 434.176 21.9 435.656 23.3C437.176 24.66 437.976 26.44 438.056 28.64V47H432.416V30.56C432.336 29.24 431.916 28.16 431.156 27.32C430.436 26.48 429.296 26.04 427.736 26C425.576 26 423.756 26.88 422.276 28.64C420.836 30.36 420.116 32.6 420.116 35.36V47H414.536V22.16H419.576ZM445.54 34.34C445.54 31.86 446.12 29.62 447.28 27.62C448.48 25.62 450.12 24.04 452.2 22.88C454.28 21.72 456.66 21.14 459.34 21.14C462.02 21.14 464.38 21.72 466.42 22.88C468.46 24.04 470.04 25.62 471.16 27.62C472.32 29.62 472.9 31.86 472.9 34.34C472.9 36.82 472.32 39.06 471.16 41.06C470.04 43.06 468.44 44.66 466.36 45.86C464.32 47.02 461.94 47.6 459.22 47.6C456.58 47.6 454.22 47.06 452.14 45.98C450.1 44.9 448.48 43.36 447.28 41.36C446.12 39.36 445.54 37.02 445.54 34.34ZM451.18 34.4C451.18 36 451.52 37.46 452.2 38.78C452.92 40.06 453.88 41.08 455.08 41.84C456.28 42.6 457.64 42.98 459.16 42.98C460.72 42.98 462.1 42.6 463.3 41.84C464.5 41.08 465.44 40.06 466.12 38.78C466.84 37.46 467.2 36 467.2 34.4C467.2 32.8 466.84 31.36 466.12 30.08C465.44 28.76 464.5 27.72 463.3 26.96C462.1 26.16 460.72 25.76 459.16 25.76C457.64 25.76 456.26 26.16 455.02 26.96C453.82 27.76 452.88 28.82 452.2 30.14C451.52 31.42 451.18 32.84 451.18 34.4ZM480.395 0.499998H485.975V47H480.395V0.499998ZM493.528 34.34C493.528 31.86 494.108 29.62 495.268 27.62C496.468 25.62 498.108 24.04 500.188 22.88C502.268 21.72 504.648 21.14 507.328 21.14C510.008 21.14 512.368 21.72 514.408 22.88C516.448 24.04 518.028 25.62 519.148 27.62C520.308 29.62 520.888 31.86 520.888 34.34C520.888 36.82 520.308 39.06 519.148 41.06C518.028 43.06 516.428 44.66 514.348 45.86C512.308 47.02 509.928 47.6 507.208 47.6C504.568 47.6 502.208 47.06 500.128 45.98C498.088 44.9 496.468 43.36 495.268 41.36C494.108 39.36 493.528 37.02 493.528 34.34ZM499.168 34.4C499.168 36 499.508 37.46 500.188 38.78C500.908 40.06 501.868 41.08 503.068 41.84C504.268 42.6 505.628 42.98 507.148 42.98C508.708 42.98 510.088 42.6 511.288 41.84C512.488 41.08 513.428 40.06 514.108 38.78C514.828 37.46 515.188 36 515.188 34.4C515.188 32.8 514.828 31.36 514.108 30.08C513.428 28.76 512.488 27.72 511.288 26.96C510.088 26.16 508.708 25.76 507.148 25.76C505.628 25.76 504.248 26.16 503.008 26.96C501.808 27.76 500.868 28.82 500.188 30.14C499.508 31.42 499.168 32.84 499.168 34.4ZM540.383 59.3C537.623 59.3 535.323 58.82 533.483 57.86C531.643 56.94 529.943 55.76 528.383 54.32L531.683 50.48C532.963 51.76 534.283 52.72 535.643 53.36C537.003 54.04 538.543 54.38 540.263 54.38C543.063 54.38 545.203 53.7 546.683 52.34C548.163 51.02 548.923 49.26 548.963 47.06V42.5C548.123 43.98 546.823 45.2 545.063 46.16C543.303 47.12 541.223 47.6 538.823 47.6C536.503 47.6 534.383 47.02 532.463 45.86C530.583 44.7 529.063 43.14 527.903 41.18C526.783 39.18 526.223 36.94 526.223 34.46C526.223 31.86 526.823 29.56 528.023 27.56C529.223 25.56 530.803 24 532.763 22.88C534.723 21.72 536.863 21.14 539.183 21.14C541.343 21.14 543.303 21.56 545.063 22.4C546.823 23.24 548.143 24.32 549.023 25.64L549.503 22.16H554.603V47.18C554.603 49.42 554.023 51.46 552.863 53.3C551.703 55.14 550.063 56.6 547.943 57.68C545.823 58.76 543.303 59.3 540.383 59.3ZM531.863 34.28C531.863 35.92 532.243 37.4 533.003 38.72C533.763 40 534.783 41.04 536.063 41.84C537.383 42.6 538.843 42.98 540.443 42.98C542.603 42.98 544.443 42.4 545.963 41.24C547.523 40.04 548.523 38.52 548.963 36.68V31.76C548.443 30 547.403 28.56 545.843 27.44C544.283 26.32 542.483 25.76 540.443 25.76C538.803 25.76 537.323 26.12 536.003 26.84C534.723 27.56 533.703 28.56 532.943 29.84C532.223 31.12 531.863 32.6 531.863 34.28ZM564.301 22.16H569.881V47H564.301V22.16ZM563.881 13.22C563.881 12.3 564.221 11.56 564.901 11C565.621 10.4 566.401 10.1 567.241 10.1C568.081 10.1 568.841 10.4 569.521 11C570.201 11.56 570.541 12.3 570.541 13.22C570.541 14.14 570.201 14.9 569.521 15.5C568.841 16.06 568.081 16.34 567.241 16.34C566.401 16.34 565.621 16.06 564.901 15.5C564.221 14.9 563.881 14.14 563.881 13.22ZM591.114 47.6C588.314 47.6 585.874 47.04 583.794 45.92C581.754 44.76 580.174 43.18 579.054 41.18C577.974 39.18 577.434 36.92 577.434 34.4C577.434 31.96 578.034 29.74 579.234 27.74C580.474 25.7 582.134 24.1 584.214 22.94C586.334 21.74 588.674 21.14 591.234 21.14C594.514 21.14 597.234 22.1 599.394 24.02C601.554 25.94 603.034 28.58 603.834 31.94L584.154 38.84C584.834 40.08 585.794 41.06 587.034 41.78C588.274 42.46 589.674 42.8 591.234 42.8C592.354 42.8 593.414 42.6 594.414 42.2C595.414 41.8 596.374 41.28 597.294 40.64L599.874 44.78C598.594 45.62 597.174 46.3 595.614 46.82C594.094 47.34 592.594 47.6 591.114 47.6ZM582.954 34.1C582.914 34.58 582.934 35.04 583.014 35.48L597.474 30.14C596.914 28.94 596.094 27.88 595.014 26.96C593.974 26.04 592.574 25.58 590.814 25.58C588.534 25.58 586.654 26.38 585.174 27.98C583.694 29.58 582.954 31.62 582.954 34.1ZM617.786 47.48C615.986 47.48 614.246 47.18 612.566 46.58C610.926 45.94 609.566 45 608.486 43.76L610.886 40.52C611.886 41.52 612.946 42.28 614.066 42.8C615.186 43.28 616.266 43.52 617.306 43.52C618.506 43.52 619.546 43.28 620.426 42.8C621.346 42.32 621.806 41.5 621.806 40.34C621.806 39.46 621.506 38.76 620.906 38.24C620.346 37.72 619.606 37.32 618.686 37.04C617.806 36.72 616.886 36.4 615.926 36.08C611.686 34.72 609.566 32.3 609.566 28.82C609.566 27.54 609.886 26.32 610.526 25.16C611.206 24 612.186 23.06 613.466 22.34C614.786 21.62 616.406 21.26 618.326 21.26C620.046 21.26 621.586 21.48 622.946 21.92C624.306 22.36 625.586 23.06 626.786 24.02L624.566 27.44C623.846 26.72 622.986 26.18 621.986 25.82C621.026 25.42 620.146 25.2 619.346 25.16C618.266 25.16 617.306 25.42 616.466 25.94C615.666 26.46 615.266 27.18 615.266 28.1C615.226 28.94 615.486 29.62 616.046 30.14C616.606 30.62 617.326 31.02 618.206 31.34C619.126 31.66 620.046 31.96 620.966 32.24C622.766 32.84 624.286 33.66 625.526 34.7C626.806 35.74 627.446 37.26 627.446 39.26C627.446 41.5 626.646 43.44 625.046 45.08C623.446 46.68 621.026 47.48 617.786 47.48Z" fill="black"/>
</svg>
