<svg width="808" height="45" viewBox="0 0 808 45" fill="none" xmlns="http://www.w3.org/2000/svg">
<path d="M22.02 44.84C15.7 44.8 10.54 42.78 6.54 38.78C2.58 34.78 0.6 29.52 0.6 23C0.6 16.44 2.58 11.16 6.54 7.16C10.54 3.16 15.82 1.16 22.38 1.16C27.74 1.16 32.48 2.52 36.6 5.24L37.8 13.7H37.26C36.38 10.26 34.6 7.62 31.92 5.78C29.24 3.9 26.06 2.96 22.38 2.96C17.14 2.96 12.94 4.78 9.78 8.42C6.66 12.06 5.1 16.88 5.1 22.88C5.1 28.88 6.64 33.72 9.72 37.4C12.84 41.04 16.94 42.92 22.02 43.04C26.5 43.04 30.24 41.82 33.24 39.38C36.48 36.74 38.44 32.44 39.12 26.48H39.6L38.88 35.9C35.24 41.86 29.62 44.84 22.02 44.84ZM57.1059 9.86H53.9259V40.16C53.9659 41.4 54.5259 42.34 55.6059 42.98C56.1259 43.26 56.7059 43.4 57.3459 43.4H58.1259L58.1859 44H45.8859V43.4H46.7259C47.6459 43.4 48.4259 43.1 49.0659 42.5C49.7459 41.86 50.0859 41.1 50.0859 40.22V11.72C50.0859 10.84 49.7459 10.1 49.0659 9.5C48.4259 8.9 47.6459 8.6 46.7259 8.6H45.8859V8H60.9459C64.7059 8 67.6659 8.86 69.8259 10.58C72.0259 12.3 73.1259 14.56 73.1259 17.36C73.1259 20.16 72.2459 22.5 70.4859 24.38C68.7259 26.26 66.4859 27.34 63.7659 27.62C65.0459 28.18 66.5859 29.74 68.3859 32.3C68.3459 32.3 69.0259 33.18 70.4259 34.94C71.8659 36.7 73.0059 38.08 73.8459 39.08C74.7259 40.04 75.4459 40.78 76.0059 41.3C77.4859 42.7 79.1859 43.4 81.1059 43.4V44H79.2459C76.0859 44 73.6059 43.38 71.8059 42.14C70.4459 41.22 69.2059 40.08 68.0859 38.72C67.8459 38.4 66.8259 37 65.0259 34.52C63.2659 32 62.3259 30.66 62.2059 30.5C60.0459 27.82 58.0259 26.48 56.1459 26.48V25.88C60.8259 25.88 63.6459 25.64 64.6059 25.16C65.9259 24.48 66.8259 23.76 67.3059 23C68.3059 21.4 68.8059 19.64 68.8059 17.72C68.8059 15.28 68.0859 13.4 66.6459 12.08C65.2059 10.76 63.2659 10.04 60.8259 9.92C59.7459 9.88 58.5059 9.86 57.1059 9.86ZM119.803 43.4H120.283V44H107.983V43.4H108.463C109.223 43.4 109.803 43.14 110.203 42.62C110.603 42.1 110.803 41.62 110.803 41.18C110.803 40.7 110.723 40.24 110.563 39.8L107.263 31.82H92.0831L88.7831 39.62C88.5831 40.14 88.4831 40.64 88.4831 41.12C88.4831 41.56 88.6831 42.06 89.0831 42.62C89.4831 43.14 90.0831 43.4 90.8831 43.4H91.3631V44H79.9031V43.4H80.3831C81.2231 43.4 82.0631 43.12 82.9031 42.56C83.7831 41.96 84.5031 41.08 85.0631 39.92C93.8231 21.2 98.3831 11.4 98.7431 10.52C99.4231 8.84 99.7831 7.72 99.8231 7.16H100.363L115.183 39.92C116.343 42.24 117.883 43.4 119.803 43.4ZM92.8631 30.02H106.543L99.8231 13.58L92.8631 30.02ZM163.608 8.6C162.728 8.6 161.968 8.9 161.328 9.5C160.688 10.06 160.348 10.76 160.308 11.6V37.16C160.308 39.48 160.448 41.68 160.728 43.76L160.848 44.84H160.308L129.108 15.26V40.28C129.108 41.16 129.428 41.9 130.068 42.5C130.708 43.1 131.488 43.4 132.408 43.4H133.428V44H122.088V43.4H123.108C124.028 43.4 124.808 43.1 125.448 42.5C126.088 41.9 126.408 41.16 126.408 40.28V14.6C126.408 12.16 126.268 9.98 125.988 8.06L125.868 7.1L126.528 7.16L157.668 36.5V11.6C157.588 10.76 157.228 10.06 156.588 9.5C155.948 8.9 155.188 8.6 154.308 8.6H153.288V8H164.628V8.6H163.608ZM394.391 7.34C394.391 6.38 394.051 5.56 393.371 4.88C392.691 4.16 391.891 3.78 390.971 3.74H379.571V39.68C379.611 40.72 379.991 41.6 380.711 42.32C381.471 43.04 382.371 43.4 383.411 43.4H384.191V44H371.051V43.4H371.831C372.871 43.4 373.751 43.04 374.471 42.32C375.231 41.6 375.631 40.74 375.671 39.74V3.74H364.271C363.311 3.78 362.491 4.16 361.811 4.88C361.171 5.56 360.851 6.38 360.851 7.34V8.36L360.251 8.42V0.859998C360.851 1.1 361.891 1.34 363.371 1.58C364.851 1.82 366.211 1.94 367.451 1.94H387.731C389.691 1.94 391.311 1.8 392.591 1.52C393.911 1.2 394.711 0.979998 394.991 0.859998V8.42L394.391 8.36V7.34ZM400.281 43.4C401.241 43.4 402.041 43.1 402.681 42.5C403.361 41.86 403.721 41.1 403.761 40.22V11.72C403.761 10.84 403.421 10.1 402.741 9.5C402.061 8.9 401.241 8.6 400.281 8.6H399.441V8H416.961C418.601 8 420.041 7.88 421.281 7.64C422.521 7.4 423.321 7.2 423.681 7.04V13.88L423.021 13.82V12.92C423.021 12.08 422.741 11.36 422.181 10.76C421.621 10.16 420.901 9.86 420.021 9.86H407.541V25.1H417.801C418.601 25.1 419.201 24.86 419.601 24.38C420.041 23.9 420.261 23.3 420.261 22.58V21.8H420.921V30.2H420.261V29.42C420.261 28.3 419.841 27.54 419.001 27.14C418.681 27.02 418.341 26.94 417.981 26.9H407.541V42.14H416.961C418.801 42.14 420.341 41.82 421.581 41.18C422.861 40.54 423.821 39.78 424.461 38.9C425.141 38.02 425.821 36.86 426.501 35.42H427.101L423.801 44H399.441V43.4H400.281ZM451.695 44.84C445.575 44.8 440.735 43.1 437.175 39.74C433.655 36.38 431.895 31.8 431.895 26C431.895 20.16 433.655 15.56 437.175 12.2C440.735 8.84 445.575 7.16 451.695 7.16C454.175 7.16 456.675 7.48 459.195 8.12C461.715 8.76 463.895 9.64 465.735 10.76L467.055 19.28H466.515C464.795 12.4 459.835 8.96 451.635 8.96C446.875 8.96 443.115 10.48 440.355 13.52C437.595 16.56 436.215 20.72 436.215 26C436.215 29.44 436.835 32.44 438.075 35C439.315 37.52 441.115 39.48 443.475 40.88C445.835 42.28 448.575 42.98 451.695 42.98C454.815 42.98 457.535 42.52 459.855 41.6C462.215 40.64 464.155 39.08 465.675 36.92C467.235 34.76 468.115 32.08 468.315 28.88H468.855L468.195 37.1C466.635 39.5 464.375 41.4 461.415 42.8C458.455 44.16 455.215 44.84 451.695 44.84ZM501.199 43.4C502.119 43.4 502.919 43.1 503.599 42.5C504.279 41.86 504.639 41.1 504.679 40.22V27.14H482.539V40.22C482.579 41.1 482.939 41.86 483.619 42.5C484.299 43.1 485.099 43.4 486.019 43.4H486.739V44H474.499V43.4H475.219C476.179 43.4 476.979 43.08 477.619 42.44C478.299 41.8 478.659 41.04 478.699 40.16V11.84C478.659 10.96 478.299 10.2 477.619 9.56C476.939 8.92 476.139 8.6 475.219 8.6H474.499V8H486.739V8.6H486.019C485.099 8.6 484.299 8.92 483.619 9.56C482.939 10.16 482.579 10.9 482.539 11.78V25.34H504.679V11.84C504.679 10.96 504.419 10.28 503.899 9.8C503.059 9 502.159 8.6 501.199 8.6H500.479V8H512.719V8.6H511.999C511.079 8.6 510.279 8.9 509.599 9.5C508.919 10.1 508.559 10.84 508.519 11.72V40.22C508.559 41.1 508.819 41.76 509.299 42.2C510.179 43 511.079 43.4 511.999 43.4H512.719V44H500.479V43.4H501.199Z" fill="#DD384A"/>
<path d="M193.866 12.98C194.466 14.14 194.766 15.54 194.766 17.18C194.766 18.82 194.106 20.34 192.786 21.74C191.466 23.1 189.926 24 188.166 24.44C191.086 24.76 193.486 25.82 195.366 27.62C197.286 29.42 198.246 31.4 198.246 33.56C198.246 35.68 197.826 37.42 196.986 38.78C196.186 40.14 195.106 41.18 193.746 41.9C191.146 43.3 188.206 44 184.926 44H170.046V43.4H170.766C171.766 43.4 172.606 43.1 173.286 42.5C173.966 41.86 174.326 41.08 174.366 40.16V11.84C174.326 10.52 173.726 9.58 172.566 9.02C172.046 8.74 171.446 8.6 170.766 8.6H170.046V8H182.286C188.246 8 192.106 9.66 193.866 12.98ZM193.986 33.92C193.986 27.96 189.326 24.98 180.006 24.98V24.38C187.046 24.38 190.566 21.92 190.566 17C190.566 12.2 187.786 9.8 182.226 9.8H178.146V42.2H184.866C187.586 42.2 189.786 41.52 191.466 40.16C193.146 38.76 193.986 36.68 193.986 33.92ZM205.105 43.4C206.065 43.4 206.865 43.1 207.505 42.5C208.185 41.86 208.545 41.1 208.585 40.22V11.72C208.585 10.84 208.245 10.1 207.565 9.5C206.885 8.9 206.065 8.6 205.105 8.6H204.265V8H221.785C223.425 8 224.865 7.88 226.105 7.64C227.345 7.4 228.145 7.2 228.505 7.04V13.88L227.845 13.82V12.92C227.845 12.08 227.565 11.36 227.005 10.76C226.445 10.16 225.725 9.86 224.845 9.86H212.365V25.1H222.625C223.425 25.1 224.025 24.86 224.425 24.38C224.865 23.9 225.085 23.3 225.085 22.58V21.8H225.745V30.2H225.085V29.42C225.085 28.3 224.665 27.54 223.825 27.14C223.505 27.02 223.165 26.94 222.805 26.9H212.365V42.14H221.785C223.625 42.14 225.165 41.82 226.405 41.18C227.685 40.54 228.645 39.78 229.285 38.9C229.965 38.02 230.645 36.86 231.325 35.42H231.925L228.625 44H204.265V43.4H205.105ZM247.653 9.86H244.473V40.16C244.513 41.4 245.073 42.34 246.153 42.98C246.673 43.26 247.253 43.4 247.893 43.4H248.673L248.733 44H236.433V43.4H237.273C238.193 43.4 238.973 43.1 239.613 42.5C240.293 41.86 240.633 41.1 240.633 40.22V11.72C240.633 10.84 240.293 10.1 239.613 9.5C238.973 8.9 238.193 8.6 237.273 8.6H236.433V8H251.493C255.253 8 258.213 8.86 260.373 10.58C262.573 12.3 263.673 14.56 263.673 17.36C263.673 20.16 262.793 22.5 261.033 24.38C259.273 26.26 257.033 27.34 254.313 27.62C255.593 28.18 257.133 29.74 258.933 32.3C258.893 32.3 259.573 33.18 260.973 34.94C262.413 36.7 263.553 38.08 264.393 39.08C265.273 40.04 265.993 40.78 266.553 41.3C268.033 42.7 269.733 43.4 271.653 43.4V44H269.793C266.633 44 264.153 43.38 262.353 42.14C260.993 41.22 259.753 40.08 258.633 38.72C258.393 38.4 257.373 37 255.573 34.52C253.813 32 252.873 30.66 252.753 30.5C250.593 27.82 248.573 26.48 246.693 26.48V25.88C251.373 25.88 254.193 25.64 255.153 25.16C256.473 24.48 257.373 23.76 257.853 23C258.853 21.4 259.353 19.64 259.353 17.72C259.353 15.28 258.633 13.4 257.193 12.08C255.753 10.76 253.813 10.04 251.373 9.92C250.293 9.88 249.053 9.86 247.653 9.86ZM285.27 9.86H282.09V40.16C282.13 41.4 282.69 42.34 283.77 42.98C284.29 43.26 284.87 43.4 285.51 43.4H286.29L286.35 44H274.05V43.4H274.89C275.81 43.4 276.59 43.1 277.23 42.5C277.91 41.86 278.25 41.1 278.25 40.22V11.72C278.25 10.84 277.91 10.1 277.23 9.5C276.59 8.9 275.81 8.6 274.89 8.6H274.05V8H289.11C292.87 8 295.83 8.86 297.99 10.58C300.19 12.3 301.29 14.56 301.29 17.36C301.29 20.16 300.41 22.5 298.65 24.38C296.89 26.26 294.65 27.34 291.93 27.62C293.21 28.18 294.75 29.74 296.55 32.3C296.51 32.3 297.19 33.18 298.59 34.94C300.03 36.7 301.17 38.08 302.01 39.08C302.89 40.04 303.61 40.78 304.17 41.3C305.65 42.7 307.35 43.4 309.27 43.4V44H307.41C304.25 44 301.77 43.38 299.97 42.14C298.61 41.22 297.37 40.08 296.25 38.72C296.01 38.4 294.99 37 293.19 34.52C291.43 32 290.49 30.66 290.37 30.5C288.21 27.82 286.19 26.48 284.31 26.48V25.88C288.99 25.88 291.81 25.64 292.77 25.16C294.09 24.48 294.99 23.76 295.47 23C296.47 21.4 296.97 19.64 296.97 17.72C296.97 15.28 296.25 13.4 294.81 12.08C293.37 10.76 291.43 10.04 288.99 9.92C287.91 9.88 286.67 9.86 285.27 9.86ZM344.372 8.6H343.652C342.572 8.6 341.532 8.9 340.532 9.5C339.572 10.06 338.772 10.78 338.132 11.66L326.612 29.12V40.16C326.612 41.04 326.952 41.8 327.632 42.44C328.312 43.08 329.132 43.4 330.092 43.4H330.812V44H318.512V43.4H319.232C320.192 43.4 321.012 43.08 321.692 42.44C322.372 41.8 322.712 41.04 322.712 40.16V29.06L311.612 11.6C310.252 9.6 308.412 8.6 306.092 8.6H305.372V8H319.292V8.6H318.572C317.812 8.6 317.252 8.84 316.892 9.32C316.572 9.8 316.412 10.22 316.412 10.58C316.412 10.9 316.452 11.2 316.532 11.48L325.292 27.02L334.592 11.54C334.712 11.22 334.772 10.9 334.772 10.58C334.772 10.22 334.592 9.8 334.232 9.32C333.912 8.84 333.352 8.6 332.552 8.6H331.832V8H344.372V8.6ZM559.585 8.6C558.705 8.6 557.945 8.9 557.305 9.5C556.665 10.06 556.325 10.76 556.285 11.6V37.16C556.285 39.48 556.425 41.68 556.705 43.76L556.825 44.84H556.285L525.085 15.26V40.28C525.085 41.16 525.405 41.9 526.045 42.5C526.685 43.1 527.465 43.4 528.385 43.4H529.405V44H518.065V43.4H519.085C520.005 43.4 520.785 43.1 521.425 42.5C522.065 41.9 522.385 41.16 522.385 40.28V14.6C522.385 12.16 522.245 9.98 521.965 8.06L521.845 7.1L522.505 7.16L553.645 36.5V11.6C553.565 10.76 553.205 10.06 552.565 9.5C551.925 8.9 551.165 8.6 550.285 8.6H549.265V8H560.605V8.6H559.585ZM575.51 9.56C578.59 7.96 581.97 7.16 585.65 7.16C589.37 7.16 592.77 7.96 595.85 9.56C598.93 11.12 601.37 13.34 603.17 16.22C605.01 19.1 605.93 22.36 605.93 26C605.93 29.64 605.01 32.9 603.17 35.78C601.37 38.66 598.93 40.9 595.85 42.5C592.77 44.06 589.61 44.84 586.37 44.84C583.13 44.84 580.27 44.38 577.79 43.46C575.31 42.54 573.15 41.26 571.31 39.62C569.51 37.98 568.07 35.98 566.99 33.62C565.95 31.26 565.43 28.5 565.43 25.34C565.43 22.14 566.33 19.1 568.13 16.22C569.97 13.34 572.43 11.12 575.51 9.56ZM574.37 38.3C577.41 41.46 581.17 43.04 585.65 43.04C590.13 43.04 593.89 41.46 596.93 38.3C599.97 35.1 601.49 31 601.49 26C601.49 21 599.97 16.92 596.93 13.76C593.89 10.56 590.13 8.96 585.65 8.96C581.17 8.96 577.41 10.56 574.37 13.76C571.37 16.92 569.87 21 569.87 26C569.87 31 571.37 35.1 574.37 38.3ZM612.156 43.4C613.116 43.4 613.916 43.1 614.556 42.5C615.236 41.86 615.596 41.1 615.636 40.22V11.84C615.596 10.96 615.216 10.2 614.496 9.56C613.816 8.92 612.996 8.6 612.036 8.6H611.316V8H623.736V8.6H623.016C622.056 8.6 621.216 8.92 620.496 9.56C619.816 10.2 619.476 10.96 619.476 11.84V42.14H628.836C630.676 42.14 632.236 41.82 633.516 41.18C634.796 40.54 635.756 39.78 636.396 38.9C637.076 38.02 637.736 36.86 638.376 35.42H638.976L635.676 44H611.316V43.4H612.156ZM652.971 9.56C656.051 7.96 659.431 7.16 663.111 7.16C666.831 7.16 670.231 7.96 673.311 9.56C676.391 11.12 678.831 13.34 680.631 16.22C682.471 19.1 683.391 22.36 683.391 26C683.391 29.64 682.471 32.9 680.631 35.78C678.831 38.66 676.391 40.9 673.311 42.5C670.231 44.06 667.071 44.84 663.831 44.84C660.591 44.84 657.731 44.38 655.251 43.46C652.771 42.54 650.611 41.26 648.771 39.62C646.971 37.98 645.531 35.98 644.451 33.62C643.411 31.26 642.891 28.5 642.891 25.34C642.891 22.14 643.791 19.1 645.591 16.22C647.431 13.34 649.891 11.12 652.971 9.56ZM651.831 38.3C654.871 41.46 658.631 43.04 663.111 43.04C667.591 43.04 671.351 41.46 674.391 38.3C677.431 35.1 678.951 31 678.951 26C678.951 21 677.431 16.92 674.391 13.76C671.351 10.56 667.591 8.96 663.111 8.96C658.631 8.96 654.871 10.56 651.831 13.76C648.831 16.92 647.331 21 647.331 26C647.331 31 648.831 35.1 651.831 38.3ZM709.035 44.84C703.075 44.8 698.295 43.1 694.695 39.74C691.135 36.34 689.355 31.76 689.355 26C689.355 20.2 691.135 15.62 694.695 12.26C698.295 8.86 702.915 7.16 708.555 7.16C714.235 7.16 719.055 8.36 723.015 10.76L724.335 19.28H723.795C722.955 15.76 721.315 13.16 718.875 11.48C716.475 9.8 713.055 8.96 708.615 8.96C704.215 8.96 700.615 10.5 697.815 13.58C695.055 16.62 693.675 20.76 693.675 26C693.675 31.24 695.075 35.4 697.875 38.48C700.675 41.52 704.535 43.04 709.455 43.04C714.415 43.04 718.675 41.3 722.235 37.82L722.295 29.84C722.335 29.12 722.095 28.56 721.575 28.16C721.095 27.72 720.415 27.5 719.535 27.5H718.695V26.9H729.675V27.5H728.835C727.035 27.5 726.135 28.3 726.135 29.9V37.1C724.455 39.18 722.135 41 719.175 42.56C716.255 44.08 712.875 44.84 709.035 44.84ZM734.148 43.4C735.228 43.4 736.168 43.08 736.968 42.44C737.768 41.8 738.168 41.04 738.168 40.16V11.84C738.168 10.96 737.768 10.2 736.968 9.56C736.168 8.92 735.208 8.6 734.088 8.6H733.308V8H746.868V8.6H746.088C745.008 8.6 744.068 8.9 743.268 9.5C742.508 10.1 742.088 10.84 742.008 11.72V40.22C742.048 41.1 742.468 41.86 743.268 42.5C744.068 43.1 745.008 43.4 746.088 43.4H746.868L746.928 44H733.308V43.4H734.148ZM754.304 43.4C755.264 43.4 756.064 43.1 756.704 42.5C757.384 41.86 757.744 41.1 757.784 40.22V11.72C757.784 10.84 757.444 10.1 756.764 9.5C756.084 8.9 755.264 8.6 754.304 8.6H753.464V8H770.984C772.624 8 774.064 7.88 775.304 7.64C776.544 7.4 777.344 7.2 777.704 7.04V13.88L777.044 13.82V12.92C777.044 12.08 776.764 11.36 776.204 10.76C775.644 10.16 774.924 9.86 774.044 9.86H761.564V25.1H771.824C772.624 25.1 773.224 24.86 773.624 24.38C774.064 23.9 774.284 23.3 774.284 22.58V21.8H774.944V30.2H774.284V29.42C774.284 28.3 773.864 27.54 773.024 27.14C772.704 27.02 772.364 26.94 772.004 26.9H761.564V42.14H770.984C772.824 42.14 774.364 41.82 775.604 41.18C776.884 40.54 777.844 39.78 778.484 38.9C779.164 38.02 779.844 36.86 780.524 35.42H781.124L777.824 44H753.464V43.4H754.304ZM786.398 42.02C786.278 41.54 786.218 40.56 786.218 39.08C786.218 37.6 786.478 36.1 786.998 34.58H787.718C787.678 34.94 787.658 35.3 787.658 35.66C787.658 37.82 788.358 39.6 789.758 41C791.198 42.36 793.178 43.04 795.698 43.04C798.338 43.04 800.398 42.44 801.878 41.24C803.358 40 804.098 38.42 804.098 36.5C804.098 34.54 803.378 32.92 801.938 31.64L789.938 22.4C788.018 20.76 787.058 18.56 787.058 15.8C787.058 14.24 787.478 12.8 788.318 11.48C789.198 10.16 790.398 9.12 791.918 8.36C793.478 7.56 795.298 7.16 797.378 7.16C799.458 7.16 801.298 7.34 802.898 7.7H804.878L804.998 14.24H804.338C804.338 12.56 803.758 11.26 802.598 10.34C801.438 9.42 799.778 8.96 797.618 8.96C795.458 8.96 793.678 9.52 792.278 10.64C790.878 11.72 790.178 13.14 790.178 14.9C790.178 16.62 790.958 18.12 792.518 19.4L804.638 28.76C806.478 30.28 807.398 32.4 807.398 35.12C807.398 37.84 806.358 40.14 804.278 42.02C802.238 43.9 799.738 44.84 796.778 44.84C794.818 44.84 792.858 44.6 790.898 44.12C788.938 43.64 787.438 42.94 786.398 42.02Z" fill="black"/>
</svg>
