<svg width="589" height="60" viewBox="0 0 589 60" fill="none" xmlns="http://www.w3.org/2000/svg">
<path d="M21.52 45.84C17.44 45.84 13.8 44.94 10.6 43.14C7.4 41.34 4.88 38.8 3.04 35.52C1.24 32.2 0.34 28.36 0.34 24C0.34 19.64 1.26 15.82 3.1 12.54C4.94 9.22 7.48 6.66 10.72 4.86C13.96 3.06 17.64 2.16 21.76 2.16C23.8 2.16 25.8 2.38 27.76 2.82C29.72 3.26 31.46 3.86 32.98 4.62L32.38 9.9C28.78 8.18 25.22 7.32 21.7 7.32C18.5 7.32 15.76 8.06 13.48 9.54C11.2 10.98 9.48 12.96 8.32 15.48C7.16 18 6.58 20.84 6.58 24C6.58 27.16 7.16 30 8.32 32.52C9.48 35.04 11.18 37.04 13.42 38.52C15.66 39.96 18.38 40.68 21.58 40.68C25.34 40.68 28.94 39.84 32.38 38.16L32.98 43.44C29.5 45.04 25.68 45.84 21.52 45.84ZM38.2225 15.6H42.6625L43.3225 20.46C44.8425 18.58 46.2825 17.2 47.6425 16.32C49.0425 15.44 50.5025 15 52.0225 15C52.5025 15 52.9625 15.06 53.4025 15.18L52.8625 21.12C52.3425 21 51.7425 20.94 51.0625 20.94C49.5825 20.94 48.1825 21.28 46.8625 21.96C45.5425 22.6 44.5825 23.36 43.9825 24.24V45H38.2225V15.6ZM63.6367 45.6C60.9167 45.6 58.7167 44.8 57.0367 43.2C55.3967 41.6 54.5767 39.56 54.5767 37.08C54.5767 33.36 56.3367 30.7 59.8567 29.1C63.3767 27.5 67.4767 26.66 72.1567 26.58C72.1567 23.94 71.6367 22.16 70.5967 21.24C69.5967 20.28 67.9767 19.8 65.7367 19.8C64.4967 19.8 63.2567 20 62.0167 20.4C60.7767 20.76 59.4367 21.44 57.9967 22.44L57.2167 18.06C58.4167 17.14 59.8967 16.4 61.6567 15.84C63.4167 15.28 65.2567 15 67.1767 15C69.6967 15 71.6967 15.44 73.1767 16.32C74.6967 17.2 75.7967 18.66 76.4767 20.7C77.1967 22.74 77.5567 25.54 77.5567 29.1V35.1C77.5567 36.7 77.6167 37.92 77.7367 38.76C77.8967 39.56 78.2167 40.18 78.6967 40.62C79.1767 41.06 79.9167 41.28 80.9167 41.28H81.4567L80.6167 45.6H80.1967C78.5167 45.6 77.1967 45.44 76.2367 45.12C75.2767 44.8 74.5367 44.34 74.0167 43.74C73.5367 43.14 73.0767 42.32 72.6367 41.28C70.1567 44.16 67.1567 45.6 63.6367 45.6ZM64.6567 41.28C66.0967 41.28 67.4767 40.92 68.7967 40.2C70.1567 39.48 71.2767 38.52 72.1567 37.32V30.3C67.8367 30.46 64.7367 31.04 62.8567 32.04C61.0167 33 60.0967 34.58 60.0967 36.78C60.0967 38.3 60.4967 39.44 61.2967 40.2C62.1367 40.92 63.2567 41.28 64.6567 41.28ZM100.145 15C108.145 15 112.145 19.6 112.145 28.8V45H106.745V28.8C106.745 25.64 106.145 23.36 104.945 21.96C103.785 20.52 101.825 19.8 99.0648 19.8C97.3048 19.8 95.7048 20.12 94.2648 20.76C92.8248 21.4 91.7448 22.36 91.0248 23.64V45H85.6248V15.6H89.8248L90.4248 18.72C91.9848 17.32 93.5448 16.36 95.1048 15.84C96.7048 15.28 98.3848 15 100.145 15ZM274.343 8.16H262.103V3H292.283V8.16H280.043V45H274.343V8.16ZM306.209 45.6C302.849 45.6 299.969 44.92 297.569 43.56C295.209 42.16 293.409 40.28 292.169 37.92C290.929 35.56 290.309 32.94 290.309 30.06C290.309 27.3 290.869 24.78 291.989 22.5C293.149 20.18 294.809 18.36 296.969 17.04C299.169 15.68 301.749 15 304.709 15C308.469 15 311.509 16.1 313.829 18.3C316.189 20.5 317.369 23.54 317.369 27.42C317.369 28.42 317.289 29.38 317.129 30.3H295.829C296.189 34.1 297.349 36.8 299.309 38.4C301.269 40 303.789 40.8 306.869 40.8C309.949 40.8 312.769 40.22 315.329 39.06L316.049 43.32C312.649 44.84 309.369 45.6 306.209 45.6ZM311.789 26.58C311.789 24.46 311.189 22.8 309.989 21.6C308.789 20.4 306.989 19.8 304.589 19.8C302.269 19.8 300.449 20.38 299.129 21.54C297.809 22.66 296.869 24.34 296.309 26.58H311.789ZM336.312 45.6C333.112 45.6 330.352 44.94 328.032 43.62C325.752 42.3 324.032 40.5 322.872 38.22C321.712 35.9 321.132 33.32 321.132 30.48C321.132 25.84 322.432 22.1 325.032 19.26C327.672 16.42 331.572 15 336.732 15C339.772 15 342.452 15.58 344.772 16.74L343.932 21.48C341.492 20.36 339.052 19.8 336.612 19.8C333.412 19.8 330.952 20.72 329.232 22.56C327.512 24.36 326.652 26.92 326.652 30.24C326.652 33.56 327.472 36.16 329.112 38.04C330.792 39.92 333.252 40.86 336.492 40.86C339.092 40.86 341.592 40.26 343.992 39.06L344.712 43.38C343.832 43.98 342.612 44.5 341.052 44.94C339.532 45.38 337.952 45.6 336.312 45.6ZM364.098 15C367.818 15 370.658 16.22 372.618 18.66C374.578 21.1 375.558 24.42 375.558 28.62V45H370.158V29.28C370.158 26.04 369.558 23.66 368.358 22.14C367.198 20.58 365.378 19.8 362.898 19.8C361.378 19.8 359.978 20.16 358.698 20.88C357.418 21.56 356.338 22.54 355.458 23.82V45H349.998V-3.57628e-06H355.458V18.42C356.618 17.3 357.878 16.46 359.238 15.9C360.638 15.3 362.258 15 364.098 15Z" fill="#DD384A"/>
<path d="M133.6 15C136.24 15 138.56 15.7 140.56 17.1C142.6 18.5 144.16 20.38 145.24 22.74C146.32 25.06 146.86 27.58 146.86 30.3C146.86 33.1 146.26 35.68 145.06 38.04C143.9 40.36 142.3 42.2 140.26 43.56C138.26 44.92 136.04 45.6 133.6 45.6C131.8 45.6 130.06 45.24 128.38 44.52C126.7 43.76 125.4 42.72 124.48 41.4L123.88 45H119.08V-3.57628e-06H124.48V19.02C125.56 17.78 126.9 16.8 128.5 16.08C130.14 15.36 131.84 15 133.6 15ZM132.94 40.8C135.46 40.8 137.48 39.8 139 37.8C140.56 35.76 141.34 33.26 141.34 30.3C141.34 27.26 140.56 24.76 139 22.8C137.48 20.8 135.46 19.8 132.94 19.8C130.46 19.8 128.38 20.72 126.7 22.56C125.02 24.36 124.18 26.94 124.18 30.3C124.18 33.78 125 36.4 126.64 38.16C128.32 39.92 130.42 40.8 132.94 40.8ZM166.522 45.6C163.162 45.6 160.282 44.92 157.882 43.56C155.522 42.16 153.722 40.28 152.482 37.92C151.242 35.56 150.622 32.94 150.622 30.06C150.622 27.3 151.182 24.78 152.302 22.5C153.462 20.18 155.122 18.36 157.282 17.04C159.482 15.68 162.062 15 165.022 15C168.782 15 171.822 16.1 174.142 18.3C176.502 20.5 177.682 23.54 177.682 27.42C177.682 28.42 177.602 29.38 177.442 30.3H156.142C156.502 34.1 157.662 36.8 159.622 38.4C161.582 40 164.102 40.8 167.182 40.8C170.262 40.8 173.082 40.22 175.642 39.06L176.362 43.32C172.962 44.84 169.682 45.6 166.522 45.6ZM172.102 26.58C172.102 24.46 171.502 22.8 170.302 21.6C169.102 20.4 167.302 19.8 164.902 19.8C162.582 19.8 160.762 20.38 159.442 21.54C158.122 22.66 157.182 24.34 156.622 26.58H172.102ZM183.125 15.6H187.565L188.225 20.46C189.745 18.58 191.185 17.2 192.545 16.32C193.945 15.44 195.405 15 196.925 15C197.405 15 197.865 15.06 198.305 15.18L197.765 21.12C197.245 21 196.645 20.94 195.965 20.94C194.485 20.94 193.085 21.28 191.765 21.96C190.445 22.6 189.485 23.36 188.885 24.24V45H183.125V15.6ZM202.109 15.6H206.549L207.209 20.46C208.729 18.58 210.169 17.2 211.529 16.32C212.929 15.44 214.389 15 215.909 15C216.389 15 216.849 15.06 217.289 15.18L216.749 21.12C216.229 21 215.629 20.94 214.949 20.94C213.469 20.94 212.069 21.28 210.749 21.96C209.429 22.6 208.469 23.36 207.869 24.24V45H202.109V15.6ZM230.094 43.68L217.854 15.6H223.854L233.034 37.44L241.314 15.6H247.314L229.314 59.52H223.314L230.094 43.68ZM397.098 15C405.098 15 409.098 19.6 409.098 28.8V45H403.698V28.8C403.698 25.64 403.098 23.36 401.898 21.96C400.738 20.52 398.778 19.8 396.018 19.8C394.258 19.8 392.658 20.12 391.218 20.76C389.778 21.4 388.698 22.36 387.978 23.64V45H382.578V15.6H386.778L387.378 18.72C388.938 17.32 390.498 16.36 392.058 15.84C393.658 15.28 395.338 15 397.098 15ZM428.934 45.6C425.934 45.6 423.334 44.94 421.134 43.62C418.934 42.26 417.254 40.42 416.094 38.1C414.934 35.78 414.354 33.18 414.354 30.3C414.354 27.42 414.934 24.82 416.094 22.5C417.254 20.18 418.934 18.36 421.134 17.04C423.334 15.68 425.934 15 428.934 15C431.894 15 434.474 15.68 436.674 17.04C438.914 18.36 440.614 20.18 441.774 22.5C442.934 24.82 443.514 27.42 443.514 30.3C443.514 33.18 442.934 35.78 441.774 38.1C440.614 40.42 438.914 42.26 436.674 43.62C434.474 44.94 431.894 45.6 428.934 45.6ZM428.934 40.8C431.814 40.8 434.034 39.88 435.594 38.04C437.194 36.2 437.994 33.62 437.994 30.3C437.994 26.98 437.194 24.4 435.594 22.56C434.034 20.72 431.814 19.8 428.934 19.8C426.054 19.8 423.814 20.72 422.214 22.56C420.654 24.4 419.874 26.98 419.874 30.3C419.874 33.62 420.654 36.2 422.214 38.04C423.814 39.88 426.054 40.8 428.934 40.8ZM456.642 45.6C454.002 45.6 452.062 44.92 450.822 43.56C449.622 42.2 449.022 40.52 449.022 38.52V-3.57628e-06H454.422V35.4C454.422 37.16 454.522 38.44 454.722 39.24C454.962 40.04 455.402 40.58 456.042 40.86C456.682 41.14 457.722 41.28 459.162 41.28L458.382 45.6H456.642ZM475.809 45.6C472.809 45.6 470.209 44.94 468.009 43.62C465.809 42.26 464.129 40.42 462.969 38.1C461.809 35.78 461.229 33.18 461.229 30.3C461.229 27.42 461.809 24.82 462.969 22.5C464.129 20.18 465.809 18.36 468.009 17.04C470.209 15.68 472.809 15 475.809 15C478.769 15 481.349 15.68 483.549 17.04C485.789 18.36 487.489 20.18 488.649 22.5C489.809 24.82 490.389 27.42 490.389 30.3C490.389 33.18 489.809 35.78 488.649 38.1C487.489 40.42 485.789 42.26 483.549 43.62C481.349 44.94 478.769 45.6 475.809 45.6ZM475.809 40.8C478.689 40.8 480.909 39.88 482.469 38.04C484.069 36.2 484.869 33.62 484.869 30.3C484.869 26.98 484.069 24.4 482.469 22.56C480.909 20.72 478.689 19.8 475.809 19.8C472.929 19.8 470.689 20.72 469.089 22.56C467.529 24.4 466.749 26.98 466.749 30.3C466.749 33.62 467.529 36.2 469.089 38.04C470.689 39.88 472.929 40.8 475.809 40.8ZM507.837 60C503.677 60 500.297 59.24 497.697 57.72C495.137 56.2 493.857 54.04 493.857 51.24C493.857 48.16 495.557 45.86 498.957 44.34C497.037 43.38 496.077 42.14 496.077 40.62C496.077 38.7 497.237 37.28 499.557 36.36C497.917 35.36 496.657 34 495.777 32.28C494.897 30.56 494.457 28.62 494.457 26.46C494.457 24.3 494.937 22.36 495.897 20.64C496.897 18.88 498.297 17.5 500.097 16.5C501.937 15.5 504.097 15 506.577 15C509.217 15 511.617 15.76 513.777 17.28C515.897 16.08 518.337 15.48 521.097 15.48H521.577L520.917 19.08H519.537C519.177 19.08 518.657 19.12 517.977 19.2C517.297 19.28 516.697 19.38 516.177 19.5C517.017 20.46 517.657 21.54 518.097 22.74C518.537 23.94 518.757 25.18 518.757 26.46C518.757 28.7 518.257 30.72 517.257 32.52C516.297 34.28 514.897 35.68 513.057 36.72C511.217 37.72 509.057 38.22 506.577 38.22C505.137 38.22 503.817 38.04 502.617 37.68C501.697 38 501.237 38.52 501.237 39.24C501.237 40.2 502.337 40.84 504.537 41.16L512.397 42.42C515.677 42.94 518.157 43.88 519.837 45.24C521.517 46.6 522.357 48.48 522.357 50.88C522.357 53.88 521.057 56.14 518.457 57.66C515.897 59.22 512.357 60 507.837 60ZM506.577 33.9C508.817 33.9 510.537 33.24 511.737 31.92C512.977 30.56 513.597 28.76 513.597 26.52C513.597 24.36 512.977 22.62 511.737 21.3C510.537 19.98 508.817 19.32 506.577 19.32C504.337 19.32 502.617 19.98 501.417 21.3C500.217 22.62 499.617 24.36 499.617 26.52C499.617 28.76 500.217 30.56 501.417 31.92C502.617 33.24 504.337 33.9 506.577 33.9ZM508.317 55.2C511.077 55.2 513.197 54.84 514.677 54.12C516.157 53.4 516.897 52.36 516.897 51C516.897 49.96 516.437 49.12 515.517 48.48C514.637 47.88 513.297 47.4 511.497 47.04L503.097 45.6C501.897 46.16 500.917 46.84 500.157 47.64C499.397 48.48 499.017 49.4 499.017 50.4C499.017 52.04 499.837 53.24 501.477 54C503.117 54.8 505.397 55.2 508.317 55.2ZM525.84 3H531.24V9H525.84V3ZM525.84 15.6H531.24V45H525.84V15.6ZM552.655 45.6C549.295 45.6 546.415 44.92 544.015 43.56C541.655 42.16 539.855 40.28 538.615 37.92C537.375 35.56 536.755 32.94 536.755 30.06C536.755 27.3 537.315 24.78 538.435 22.5C539.595 20.18 541.255 18.36 543.415 17.04C545.615 15.68 548.195 15 551.155 15C554.915 15 557.955 16.1 560.275 18.3C562.635 20.5 563.815 23.54 563.815 27.42C563.815 28.42 563.735 29.38 563.575 30.3H542.275C542.635 34.1 543.795 36.8 545.755 38.4C547.715 40 550.235 40.8 553.315 40.8C556.395 40.8 559.215 40.22 561.775 39.06L562.495 43.32C559.095 44.84 555.815 45.6 552.655 45.6ZM558.235 26.58C558.235 24.46 557.635 22.8 556.435 21.6C555.235 20.4 553.435 19.8 551.035 19.8C548.715 19.8 546.895 20.38 545.575 21.54C544.255 22.66 543.315 24.34 542.755 26.58H558.235ZM577.598 45.6C575.278 45.6 573.238 45.34 571.478 44.82C569.758 44.26 568.438 43.66 567.518 43.02L568.178 37.8C568.978 38.52 570.198 39.2 571.838 39.84C573.518 40.48 575.358 40.8 577.358 40.8C579.238 40.8 580.678 40.48 581.678 39.84C582.718 39.2 583.238 38.3 583.238 37.14C583.238 35.78 582.678 34.76 581.558 34.08C580.438 33.36 579.038 32.76 577.358 32.28C575.518 31.8 573.958 31.3 572.678 30.78C571.438 30.22 570.358 29.38 569.438 28.26C568.558 27.14 568.118 25.66 568.118 23.82C568.118 21.3 569.018 19.2 570.818 17.52C572.618 15.84 575.398 15 579.158 15C580.878 15 582.338 15.18 583.538 15.54C584.738 15.86 585.938 16.32 587.138 16.92L586.478 21.84C585.518 21.04 584.458 20.42 583.298 19.98C582.138 19.5 580.798 19.26 579.278 19.26C577.518 19.26 576.118 19.6 575.078 20.28C574.078 20.92 573.578 21.9 573.578 23.22C573.578 24.1 573.818 24.82 574.298 25.38C574.778 25.9 575.458 26.34 576.338 26.7C577.218 27.06 578.578 27.52 580.418 28.08C582.698 28.76 584.658 29.72 586.298 30.96C587.978 32.2 588.818 34.16 588.818 36.84C588.818 39.24 587.958 41.3 586.238 43.02C584.558 44.74 581.678 45.6 577.598 45.6Z" fill="black"/>
</svg>
