<svg width="180" height="230" viewBox="0 0 180 230" fill="none" xmlns="http://www.w3.org/2000/svg">
<path d="M45 149.807C45 134.208 54.8 121.639 74.4 112.099C70.6667 110.166 67.2 108.168 64 106.105C60.8 104.042 58 101.722 55.6 99.1436C53.3333 96.5654 51.5333 93.6004 50.2 90.2486C48.8667 86.8969 48.2 83.0295 48.2 78.6464C48.2 73.8766 49.2 69.4291 51.2 65.3039C53.2 61.1786 56.0667 57.6335 59.8 54.6685C63.5333 51.7035 68.0667 49.3831 73.4 47.7072C78.7333 45.9024 84.6667 45 91.2 45C97.3333 45 102.867 45.7735 107.8 47.3204C112.867 48.8674 117.133 51.0589 120.6 53.895C124.2 56.6022 126.933 59.825 128.8 63.5635C130.667 67.302 131.6 71.2983 131.6 75.5525C131.6 82.9006 129.667 89.6685 125.8 95.8563C122.067 101.915 116 107.459 107.6 112.486C111.467 114.42 115.067 116.483 118.4 118.674C121.733 120.866 124.6 123.315 127 126.022C129.533 128.729 131.467 131.823 132.8 135.304C134.267 138.656 135 142.523 135 146.906C135 152.32 134 157.413 132 162.182C130 166.823 127 170.82 123 174.171C119.133 177.523 114.333 180.166 108.6 182.099C102.867 184.033 96.2 185 88.6 185C81.5333 185 75.2667 184.033 69.8 182.099C64.3333 180.166 59.7333 177.587 56 174.365C52.4 171.142 49.6667 167.403 47.8 163.149C45.9333 158.895 45 154.448 45 149.807ZM119.2 147.873C119.2 144.134 118.267 140.847 116.4 138.011C114.667 135.046 112.267 132.403 109.2 130.083C106.267 127.762 102.867 125.635 99 123.702C95.1333 121.768 91.1333 119.834 87 117.901C77.4 122.413 70.5333 127.376 66.4 132.79C62.4 138.204 60.4 143.296 60.4 148.066C60.4 151.289 61 154.383 62.2 157.348C63.5333 160.184 65.4 162.698 67.8 164.89C70.3333 167.081 73.4 168.821 77 170.11C80.7333 171.4 85 172.044 89.8 172.044C93.6667 172.044 97.3333 171.529 100.8 170.497C104.4 169.466 107.533 167.983 110.2 166.05C113 163.987 115.2 161.473 116.8 158.508C118.4 155.414 119.2 151.869 119.2 147.873ZM63.8 78.0663C63.8 81.6759 64.6667 84.8987 66.4 87.7348C68.1333 90.5709 70.4 93.1492 73.2 95.4696C76.1333 97.6611 79.4667 99.7238 83.2 101.657C86.9333 103.462 90.8667 105.267 95 107.072C102.067 102.56 107.333 98.0479 110.8 93.5359C114.4 89.0239 116.2 84.0608 116.2 78.6464C116.2 75.4236 115.467 72.5875 114 70.1381C112.667 67.5598 110.8 65.3683 108.4 63.5635C106.133 61.7587 103.467 60.4052 100.4 59.5028C97.3333 58.4715 94.1333 57.9558 90.8 57.9558C86.5333 57.9558 82.7333 58.5359 79.4 59.6961C76.0667 60.8563 73.2667 62.4033 71 64.337C68.7333 66.2707 66.9333 68.4622 65.6 70.9116C64.4 73.232 63.8 75.6169 63.8 78.0663Z" fill="#DD384A" fill-opacity="0.1"/>
</svg>
