<svg width="180" height="230" viewBox="0 0 180 230" fill="none" xmlns="http://www.w3.org/2000/svg">
<path d="M81.8085 171.236C87.1986 171.236 92.1631 170.646 96.7021 169.466C101.241 168.155 105.071 166.255 108.191 163.764C111.454 161.142 113.936 157.931 115.638 154.129C117.482 150.328 118.404 145.871 118.404 140.758C118.404 131.32 114.716 124.176 107.34 119.326C100.106 114.345 90.1773 111.854 77.5532 111.854L57.5532 112.837V45H130.532V59.1573H73.5106V99.073L84.1489 98.6798C99.8936 98.6798 112.305 102.219 121.383 109.298C130.461 116.376 135 126.47 135 139.579C135 146.919 133.582 153.408 130.745 159.045C128.05 164.682 124.291 169.466 119.468 173.399C114.645 177.2 108.901 180.084 102.234 182.051C95.7092 184.017 88.5461 185 80.7447 185C76.4894 185 72.4468 184.672 68.617 184.017C64.7872 183.493 61.3121 182.837 58.1915 182.051C55.0709 181.133 52.305 180.215 49.8936 179.298C47.6241 178.249 45.9929 177.331 45 176.545L51.8085 163.764C54.2199 165.075 57.9078 166.648 62.8723 168.483C67.8369 170.318 74.1489 171.236 81.8085 171.236Z" fill="#DD384A" fill-opacity="0.1"/>
</svg>
