<svg width="32" height="32" viewBox="0 0 32 32" fill="none" xmlns="http://www.w3.org/2000/svg">
<path d="M29.1875 4.75H2.8125C1.25856 4.75 0 6.1008 0 7.75V25.75C0 27.409 1.26781 28.75 2.8125 28.75H29.1875C30.7284 28.75 32 27.4147 32 25.75V7.75C32 6.10373 30.7464 4.75 29.1875 4.75ZM28.7936 6.75C28.219 7.35967 18.3302 17.8522 17.9888 18.2145C17.4575 18.7811 16.7513 19.0931 16 19.0931C15.2487 19.0931 14.5425 18.7811 14.0095 18.2126C13.7799 17.9689 4.00019 7.59227 3.20637 6.75H28.7936ZM1.875 25.3429V8.15833L9.97738 16.7553L1.875 25.3429ZM3.20756 26.75L11.3068 18.1658L12.6854 19.6287C13.5708 20.5731 14.7479 21.0931 16 21.0931C17.2521 21.0931 18.4292 20.5731 19.3128 19.6305L20.6933 18.1658L28.7924 26.75H3.20756ZM30.125 25.3429L22.0226 16.7553L30.125 8.15833V25.3429Z" fill="#AB0000"/>
</svg>
