<svg width="32" height="32" viewBox="0 0 32 32" fill="none" xmlns="http://www.w3.org/2000/svg">
<path d="M30.8577 4C30.6802 3.99995 30.5051 4.03089 30.3463 4.0904L21.6859 7.33893L11.8929 4.07413C11.8769 4.06901 11.8586 4.0681 11.8415 4.06298C11.7974 4.05062 11.7523 4.04033 11.7066 4.03214C11.6611 4.02295 11.6149 4.01577 11.5683 4.0107C11.4755 4.00497 11.3822 4.00497 11.2895 4.0107C11.2429 4.01577 11.1967 4.02295 11.1512 4.03214C11.1055 4.04033 11.0604 4.05062 11.0163 4.06298C10.9992 4.0681 10.9809 4.06896 10.9649 4.07413L0.679362 7.50266C0.266466 7.64017 0.000421331 7.94723 0.000488294 8.28603V27.1429C0.000689184 27.4328 0.196289 27.7031 0.520458 27.8611C0.844694 28.0194 1.25364 28.044 1.60727 27.9263L11.4288 24.652L21.2504 27.9263C21.2676 27.9314 21.2858 27.9263 21.303 27.934C21.5797 28.0268 21.8973 28.0215 22.1681 27.9195C22.1864 27.9135 22.2069 27.9195 22.2252 27.91L31.3679 24.4815C31.7553 24.3363 32.0001 24.0392 31.9999 23.7143V4.85755C32.0003 4.38415 31.4888 4.0002 30.8577 4ZM10.286 23.1572L2.28615 25.8237V8.84319L10.286 6.17664V23.1572ZM20.5716 25.8237L12.5717 23.1572V6.17664L20.5716 8.84314V25.8237ZM29.7143 23.1846L22.8573 25.756V8.81572L29.7143 6.24434V23.1846V23.1846Z" fill="#AB0000"/>
</svg>
