<svg width="32" height="32" viewBox="0 0 32 32" fill="none" xmlns="http://www.w3.org/2000/svg">
<g clip-path="url(#clip0)">
<path d="M30.8577 8.13995e-08C30.6802 -6.68819e-05 30.5051 0.0411825 30.3463 0.120534L21.6859 4.45192L11.8929 0.0988379C11.8769 0.0920076 11.8586 0.0908023 11.8415 0.083972C11.7974 0.067499 11.7523 0.0537716 11.7066 0.0428566C11.6611 0.0306023 11.6149 0.0210265 11.5683 0.0142633C11.4755 0.00662944 11.3822 0.00662944 11.2895 0.0142633C11.2429 0.0210265 11.1967 0.0306023 11.1512 0.0428566C11.1055 0.0537716 11.0604 0.067499 11.0163 0.083972C10.9992 0.0908023 10.9809 0.0919406 10.9649 0.0988379L0.679362 4.67022C0.266466 4.85356 0.000421331 5.26298 0.000488294 5.71471V30.8572C0.000689184 31.2439 0.196289 31.6042 0.520458 31.8149C0.844694 32.026 1.25364 32.0587 1.60727 31.9018L11.4288 27.5361L21.2504 31.9018C21.2676 31.9086 21.2858 31.9018 21.303 31.9121C21.5797 32.0358 21.8973 32.0287 22.1681 31.8927C22.1864 31.8847 22.2069 31.8927 22.2252 31.8801L31.3679 27.3087C31.7553 27.1151 32.0001 26.719 31.9999 26.2858V1.1434C32.0003 0.512202 31.4888 0.000267934 30.8577 8.13995e-08ZM10.286 25.543L2.28615 29.0983V6.4576L10.286 2.90219V25.543ZM20.5716 29.0983L12.5717 25.543V2.90219L20.5716 6.45754V29.0983ZM29.7143 25.5796L22.8573 29.0081V6.42097L29.7143 2.99245V25.5796V25.5796Z" fill="#AB0000"/>
</g>
<defs>
<clipPath id="clip0">
<rect width="32" height="32" fill="white"/>
</clipPath>
</defs>
</svg>
