<svg width="180" height="230" viewBox="0 0 180 230" fill="none" xmlns="http://www.w3.org/2000/svg">
<path d="M135 141.878C135 147.422 133.996 152.772 131.987 157.928C130.105 163.085 127.28 167.661 123.515 171.657C119.749 175.654 115.105 178.877 109.582 181.326C104.059 183.775 97.6569 185 90.3766 185C83.5983 185 77.4477 183.904 71.9247 181.713C66.4017 179.521 61.6318 176.427 57.6151 172.431C53.5983 168.306 50.4602 163.278 48.2008 157.348C46.0669 151.418 45 144.779 45 137.431C45 125.313 46.6946 113.84 50.0837 103.011C53.5983 92.1823 58.431 82.6427 64.5816 74.3923C70.8577 66.1418 78.2636 59.4383 86.7992 54.2818C95.4603 49.1252 104.937 46.0313 115.23 45L117.866 57.3757C109.958 58.407 102.678 60.7919 96.0251 64.5304C89.4979 68.2689 83.7866 72.9098 78.8912 78.453C73.9958 83.9963 69.9791 90.1197 66.841 96.8232C63.8285 103.527 61.8828 110.359 61.0042 117.32C62.0084 115.645 63.4519 113.904 65.3347 112.099C67.3431 110.295 69.6653 108.748 72.3013 107.459C75.0628 106.041 78.0753 104.88 81.3389 103.978C84.728 103.076 88.3682 102.624 92.2594 102.624C98.9121 102.624 104.874 103.591 110.146 105.525C115.418 107.33 119.874 109.972 123.515 113.453C127.28 116.805 130.105 120.93 131.987 125.829C133.996 130.599 135 135.948 135 141.878ZM119.561 143.425C119.561 134.401 117.113 127.505 112.218 122.735C107.322 117.965 99.7908 115.58 89.6234 115.58C85.9833 115.58 82.5941 116.031 79.4561 116.934C76.318 117.836 73.4937 119.061 70.9833 120.608C68.4728 122.026 66.2761 123.702 64.3933 125.635C62.5105 127.569 61.0669 129.503 60.0628 131.436C59.8117 133.241 59.6862 134.659 59.6862 135.691C59.6862 136.722 59.6862 137.947 59.6862 139.365C59.6862 143.232 60.3138 147.164 61.569 151.16C62.8243 155.028 64.7071 158.508 67.2176 161.602C69.8536 164.696 73.1172 167.21 77.0084 169.144C80.8996 171.077 85.4812 172.044 90.7531 172.044C95.0209 172.044 98.9121 171.271 102.427 169.724C105.941 168.177 108.954 166.114 111.464 163.536C114.1 160.958 116.109 157.928 117.49 154.448C118.87 150.967 119.561 147.293 119.561 143.425Z" fill="#DD384A" fill-opacity="0.1"/>
</svg>
