<svg width="180" height="230" viewBox="0 0 180 230" fill="none" xmlns="http://www.w3.org/2000/svg">
<path d="M79.0425 171.433C84.7163 171.433 89.8936 170.777 94.5745 169.466C99.3972 168.024 103.582 166.058 107.128 163.567C110.674 161.077 113.44 158.062 115.426 154.522C117.411 150.983 118.404 147.051 118.404 142.725C118.404 133.68 114.929 127.257 107.979 123.455C101.17 119.522 91.9504 117.556 80.3191 117.556H66.7021V108.118L108.617 59.1573H45V45H129.043V59.1573L87.1277 104.579H90.5319C97.0567 104.579 103.014 105.431 108.404 107.135C113.794 108.839 118.475 111.264 122.447 114.41C126.418 117.556 129.468 121.358 131.596 125.815C133.865 130.272 135 135.318 135 140.955C135 148.034 133.511 154.326 130.532 159.831C127.553 165.337 123.511 169.991 118.404 173.792C113.298 177.463 107.269 180.281 100.319 182.247C93.5106 184.082 86.2057 185 78.4043 185C71.1702 185 64.8582 184.476 59.4681 183.427C54.2199 182.509 49.3972 181.33 45 179.888L49.2553 166.124C52.9433 167.697 57.2695 169.007 62.234 170.056C67.1986 170.974 72.8014 171.433 79.0425 171.433Z" fill="#DD384A" fill-opacity="0.1"/>
</svg>
