<svg width="180" height="230" viewBox="0 0 180 230" fill="none" xmlns="http://www.w3.org/2000/svg">
<path d="M130.541 82.1629C130.541 94.2228 124.662 107.659 112.905 122.472C101.149 137.285 84.7297 153.408 63.6486 170.843H135V185H45V170.843C47.5676 168.483 51.0811 165.403 55.5405 161.601C60 157.8 64.7973 153.605 69.9324 149.017C75.0676 144.298 80.2703 139.251 85.5405 133.876C90.9459 128.502 95.8108 122.996 100.135 117.36C104.459 111.723 107.973 106.086 110.676 100.449C113.378 94.8127 114.73 89.3727 114.73 84.1292C114.73 76.264 112.568 70.103 108.243 65.6461C104.054 61.058 97.7027 58.764 89.1892 58.764C81.8919 58.764 75.7432 59.5506 70.7432 61.1236C65.7432 62.6966 61.2162 64.9906 57.1622 68.0056L50.2703 57.191C56.3514 52.9962 62.7703 49.9157 69.527 47.9494C76.4189 45.9831 83.9189 45 92.027 45C104.73 45 114.324 48.3427 120.811 55.0281C127.297 61.7135 130.541 70.7584 130.541 82.1629Z" fill="#DD384A" fill-opacity="0.1"/>
</svg>
