<svg width="711" height="214" viewBox="0 0 711 214" fill="none" xmlns="http://www.w3.org/2000/svg">
<path d="M1.968 6.44H7.392L16.32 31.688L22.368 15.992L18.672 6.44H23.28L32.928 31.16L41.472 6.44H46.464L32.784 42.536L24.672 21.848L15.792 42.584L1.968 6.44ZM57.0259 41.48C54.7859 41.48 52.8339 41.032 51.1699 40.136C49.5379 39.208 48.2739 37.944 47.3779 36.344C46.5139 34.744 46.0819 32.936 46.0819 30.92C46.0819 28.968 46.5619 27.192 47.5219 25.592C48.5139 23.96 49.8419 22.68 51.5059 21.752C53.2019 20.792 55.0739 20.312 57.1219 20.312C59.7459 20.312 61.9219 21.08 63.6499 22.616C65.3779 24.152 66.5619 26.264 67.2019 28.952L51.4579 34.472C52.0019 35.464 52.7699 36.248 53.7619 36.824C54.7539 37.368 55.8739 37.64 57.1219 37.64C58.0179 37.64 58.8659 37.48 59.6659 37.16C60.4659 36.84 61.2339 36.424 61.9699 35.912L64.0339 39.224C63.0099 39.896 61.8739 40.44 60.6259 40.856C59.4099 41.272 58.2099 41.48 57.0259 41.48ZM50.4979 30.68C50.4659 31.064 50.4819 31.432 50.5459 31.784L62.1139 27.512C61.6659 26.552 61.0099 25.704 60.1459 24.968C59.3139 24.232 58.1939 23.864 56.7859 23.864C54.9619 23.864 53.4579 24.504 52.2739 25.784C51.0899 27.064 50.4979 28.696 50.4979 30.68ZM72.7474 3.8H77.2114V41H72.7474V3.8ZM101.11 39.128C100.214 39.864 99.1418 40.44 97.8938 40.856C96.6458 41.272 95.3978 41.48 94.1498 41.48C92.0058 41.48 90.1018 41.048 88.4378 40.184C86.8058 39.32 85.5258 38.104 84.5978 36.536C83.7018 34.968 83.2538 33.128 83.2538 31.016C83.2538 28.904 83.7338 27.08 84.6938 25.544C85.6858 23.976 86.9658 22.76 88.5338 21.896C90.1338 21.032 91.8618 20.6 93.7178 20.6C95.3178 20.6 96.7418 20.824 97.9898 21.272C99.2378 21.72 100.326 22.328 101.254 23.096L98.9978 26.024C98.4218 25.608 97.7178 25.224 96.8858 24.872C96.0538 24.488 95.1258 24.296 94.1018 24.296C92.9178 24.296 91.8458 24.6 90.8858 25.208C89.9258 25.784 89.1578 26.584 88.5818 27.608C88.0058 28.6 87.7178 29.736 87.7178 31.016C87.7178 32.264 88.0058 33.4 88.5818 34.424C89.1578 35.448 89.9578 36.264 90.9818 36.872C92.0058 37.48 93.1898 37.784 94.5338 37.784C95.3658 37.784 96.1338 37.656 96.8378 37.4C97.5738 37.144 98.2298 36.792 98.8058 36.344L101.11 39.128ZM105.144 30.872C105.144 28.888 105.608 27.096 106.536 25.496C107.496 23.896 108.808 22.632 110.472 21.704C112.136 20.776 114.04 20.312 116.184 20.312C118.328 20.312 120.216 20.776 121.848 21.704C123.48 22.632 124.744 23.896 125.64 25.496C126.568 27.096 127.032 28.888 127.032 30.872C127.032 32.856 126.568 34.648 125.64 36.248C124.744 37.848 123.464 39.128 121.8 40.088C120.168 41.016 118.264 41.48 116.088 41.48C113.976 41.48 112.088 41.048 110.424 40.184C108.792 39.32 107.496 38.088 106.536 36.488C105.608 34.888 105.144 33.016 105.144 30.872ZM109.656 30.92C109.656 32.2 109.928 33.368 110.472 34.424C111.048 35.448 111.816 36.264 112.776 36.872C113.736 37.48 114.824 37.784 116.04 37.784C117.288 37.784 118.392 37.48 119.352 36.872C120.312 36.264 121.064 35.448 121.608 34.424C122.184 33.368 122.472 32.2 122.472 30.92C122.472 29.64 122.184 28.488 121.608 27.464C121.064 26.408 120.312 25.576 119.352 24.968C118.392 24.328 117.288 24.008 116.04 24.008C114.824 24.008 113.72 24.328 112.728 24.968C111.768 25.608 111.016 26.456 110.472 27.512C109.928 28.536 109.656 29.672 109.656 30.92ZM137.061 21.128L137.349 24.92C138.117 23.48 139.157 22.36 140.469 21.56C141.813 20.728 143.349 20.312 145.077 20.312C146.709 20.312 148.069 20.696 149.157 21.464C150.277 22.232 150.965 23.272 151.221 24.584C152.021 23.24 153.061 22.2 154.341 21.464C155.653 20.696 157.045 20.312 158.517 20.312C160.437 20.312 161.957 20.872 163.077 21.992C164.229 23.112 164.837 24.536 164.901 26.264V41H160.437V27.944C160.373 26.92 160.101 26.072 159.621 25.4C159.173 24.696 158.389 24.312 157.269 24.248C156.085 24.248 155.045 24.6 154.149 25.304C153.253 25.976 152.549 26.872 152.037 27.992C151.525 29.112 151.253 30.296 151.221 31.544V41H146.709V27.944C146.677 26.92 146.405 26.072 145.893 25.4C145.413 24.696 144.597 24.312 143.445 24.248C142.293 24.248 141.269 24.6 140.373 25.304C139.477 25.976 138.773 26.872 138.261 27.992C137.749 29.112 137.493 30.312 137.493 31.592V41H133.029V21.128H137.061ZM181.854 41.48C179.614 41.48 177.662 41.032 175.998 40.136C174.366 39.208 173.102 37.944 172.206 36.344C171.342 34.744 170.91 32.936 170.91 30.92C170.91 28.968 171.39 27.192 172.35 25.592C173.342 23.96 174.67 22.68 176.334 21.752C178.03 20.792 179.902 20.312 181.95 20.312C184.574 20.312 186.75 21.08 188.478 22.616C190.206 24.152 191.39 26.264 192.03 28.952L176.286 34.472C176.83 35.464 177.598 36.248 178.59 36.824C179.582 37.368 180.702 37.64 181.95 37.64C182.846 37.64 183.694 37.48 184.494 37.16C185.294 36.84 186.062 36.424 186.798 35.912L188.862 39.224C187.838 39.896 186.702 40.44 185.454 40.856C184.238 41.272 183.038 41.48 181.854 41.48ZM175.326 30.68C175.294 31.064 175.31 31.432 175.374 31.784L186.942 27.512C186.494 26.552 185.838 25.704 184.974 24.968C184.142 24.232 183.022 23.864 181.614 23.864C179.79 23.864 178.286 24.504 177.102 25.784C175.918 27.064 175.326 28.696 175.326 30.68ZM214.683 12.392H219.195V21.176H224.619V24.728H219.195V41H214.683V24.728H211.035V21.176H214.683V12.392ZM228.332 30.872C228.332 28.888 228.796 27.096 229.724 25.496C230.684 23.896 231.996 22.632 233.66 21.704C235.324 20.776 237.228 20.312 239.372 20.312C241.516 20.312 243.404 20.776 245.036 21.704C246.668 22.632 247.932 23.896 248.828 25.496C249.756 27.096 250.22 28.888 250.22 30.872C250.22 32.856 249.756 34.648 248.828 36.248C247.932 37.848 246.652 39.128 244.988 40.088C243.356 41.016 241.452 41.48 239.276 41.48C237.164 41.48 235.276 41.048 233.612 40.184C231.98 39.32 230.684 38.088 229.724 36.488C228.796 34.888 228.332 33.016 228.332 30.872ZM232.844 30.92C232.844 32.2 233.116 33.368 233.66 34.424C234.236 35.448 235.004 36.264 235.964 36.872C236.924 37.48 238.012 37.784 239.228 37.784C240.476 37.784 241.58 37.48 242.54 36.872C243.5 36.264 244.252 35.448 244.796 34.424C245.372 33.368 245.66 32.2 245.66 30.92C245.66 29.64 245.372 28.488 244.796 27.464C244.252 26.408 243.5 25.576 242.54 24.968C241.58 24.328 240.476 24.008 239.228 24.008C238.012 24.008 236.908 24.328 235.916 24.968C234.956 25.608 234.204 26.456 233.66 27.512C233.116 28.536 232.844 29.672 232.844 30.92ZM152.052 113.6C149.932 113.6 148.052 113.2 146.412 112.4C144.812 111.56 143.492 110.5 142.452 109.22V113H136.872V66.5H142.452V91.52C143.452 90.2 144.852 89.14 146.652 88.34C148.452 87.54 150.492 87.14 152.772 87.14C154.972 87.14 156.992 87.68 158.832 88.76C160.672 89.8 162.152 91.3 163.272 93.26C164.392 95.22 164.952 97.52 164.952 100.16C164.952 103 164.352 105.42 163.152 107.42C161.952 109.42 160.372 110.96 158.412 112.04C156.452 113.08 154.332 113.6 152.052 113.6ZM150.852 108.8C153.292 108.8 155.292 108 156.852 106.4C158.452 104.76 159.252 102.68 159.252 100.16C159.252 98.56 158.872 97.12 158.112 95.84C157.392 94.52 156.392 93.48 155.112 92.72C153.872 91.96 152.452 91.58 150.852 91.58C148.772 91.58 146.972 92.14 145.452 93.26C143.932 94.38 142.932 95.82 142.452 97.58V102.68C142.932 104.44 143.912 105.9 145.392 107.06C146.872 108.22 148.692 108.8 150.852 108.8ZM183.958 113.6C181.158 113.6 178.718 113.04 176.638 111.92C174.598 110.76 173.018 109.18 171.898 107.18C170.818 105.18 170.278 102.92 170.278 100.4C170.278 97.96 170.878 95.74 172.078 93.74C173.318 91.7 174.978 90.1 177.058 88.94C179.178 87.74 181.518 87.14 184.078 87.14C187.358 87.14 190.078 88.1 192.238 90.02C194.398 91.94 195.878 94.58 196.678 97.94L176.998 104.84C177.678 106.08 178.638 107.06 179.878 107.78C181.118 108.46 182.518 108.8 184.078 108.8C185.198 108.8 186.258 108.6 187.258 108.2C188.258 107.8 189.218 107.28 190.138 106.64L192.718 110.78C191.438 111.62 190.018 112.3 188.458 112.82C186.938 113.34 185.438 113.6 183.958 113.6ZM175.798 100.1C175.758 100.58 175.778 101.04 175.858 101.48L190.318 96.14C189.758 94.94 188.938 93.88 187.858 92.96C186.818 92.04 185.418 91.58 183.658 91.58C181.378 91.58 179.498 92.38 178.018 93.98C176.538 95.58 175.798 97.62 175.798 100.1ZM208.59 88.16L209.01 93.98C209.69 92.58 210.63 91.38 211.83 90.38C213.03 89.34 214.27 88.56 215.55 88.04C216.87 87.48 218.01 87.18 218.97 87.14L218.73 92.72C216.85 92.64 215.19 93.02 213.75 93.86C212.31 94.66 211.19 95.76 210.39 97.16C209.59 98.56 209.19 100.06 209.19 101.66V113H203.61V88.16H208.59ZM231.149 88.16L231.569 93.98C232.249 92.58 233.189 91.38 234.389 90.38C235.589 89.34 236.829 88.56 238.109 88.04C239.429 87.48 240.569 87.18 241.529 87.14L241.289 92.72C239.409 92.64 237.749 93.02 236.309 93.86C234.869 94.66 233.749 95.76 232.949 97.16C232.149 98.56 231.749 100.06 231.749 101.66V113H226.169V88.16H231.149ZM250.827 124.94L256.527 112.22L245.007 88.16H251.307L259.287 105.86L267.207 88.16H272.367L256.347 124.94H250.827ZM422.576 88.16L422.936 92.96C423.776 91.2 425.076 89.8 426.836 88.76C428.596 87.72 430.636 87.2 432.956 87.2C435.276 87.2 437.176 87.9 438.656 89.3C440.176 90.66 440.976 92.44 441.056 94.64V113H435.416V96.56C435.336 95.24 434.916 94.16 434.156 93.32C433.436 92.48 432.296 92.04 430.736 92C428.576 92 426.756 92.88 425.276 94.64C423.836 96.36 423.116 98.6 423.116 101.36V113H417.536V88.16H422.576ZM448.54 100.34C448.54 97.86 449.12 95.62 450.28 93.62C451.48 91.62 453.12 90.04 455.2 88.88C457.28 87.72 459.66 87.14 462.34 87.14C465.02 87.14 467.38 87.72 469.42 88.88C471.46 90.04 473.04 91.62 474.16 93.62C475.32 95.62 475.9 97.86 475.9 100.34C475.9 102.82 475.32 105.06 474.16 107.06C473.04 109.06 471.44 110.66 469.36 111.86C467.32 113.02 464.94 113.6 462.22 113.6C459.58 113.6 457.22 113.06 455.14 111.98C453.1 110.9 451.48 109.36 450.28 107.36C449.12 105.36 448.54 103.02 448.54 100.34ZM454.18 100.4C454.18 102 454.52 103.46 455.2 104.78C455.92 106.06 456.88 107.08 458.08 107.84C459.28 108.6 460.64 108.98 462.16 108.98C463.72 108.98 465.1 108.6 466.3 107.84C467.5 107.08 468.44 106.06 469.12 104.78C469.84 103.46 470.2 102 470.2 100.4C470.2 98.8 469.84 97.36 469.12 96.08C468.44 94.76 467.5 93.72 466.3 92.96C465.1 92.16 463.72 91.76 462.16 91.76C460.64 91.76 459.26 92.16 458.02 92.96C456.82 93.76 455.88 94.82 455.2 96.14C454.52 97.42 454.18 98.84 454.18 100.4ZM483.395 66.5H488.975V113H483.395V66.5ZM496.528 100.34C496.528 97.86 497.108 95.62 498.268 93.62C499.468 91.62 501.108 90.04 503.188 88.88C505.268 87.72 507.648 87.14 510.328 87.14C513.008 87.14 515.368 87.72 517.408 88.88C519.448 90.04 521.028 91.62 522.148 93.62C523.308 95.62 523.888 97.86 523.888 100.34C523.888 102.82 523.308 105.06 522.148 107.06C521.028 109.06 519.428 110.66 517.348 111.86C515.308 113.02 512.928 113.6 510.208 113.6C507.568 113.6 505.208 113.06 503.128 111.98C501.088 110.9 499.468 109.36 498.268 107.36C497.108 105.36 496.528 103.02 496.528 100.34ZM502.168 100.4C502.168 102 502.508 103.46 503.188 104.78C503.908 106.06 504.868 107.08 506.068 107.84C507.268 108.6 508.628 108.98 510.148 108.98C511.708 108.98 513.088 108.6 514.288 107.84C515.488 107.08 516.428 106.06 517.108 104.78C517.828 103.46 518.188 102 518.188 100.4C518.188 98.8 517.828 97.36 517.108 96.08C516.428 94.76 515.488 93.72 514.288 92.96C513.088 92.16 511.708 91.76 510.148 91.76C508.628 91.76 507.248 92.16 506.008 92.96C504.808 93.76 503.868 94.82 503.188 96.14C502.508 97.42 502.168 98.84 502.168 100.4ZM543.383 125.3C540.623 125.3 538.323 124.82 536.483 123.86C534.643 122.94 532.943 121.76 531.383 120.32L534.683 116.48C535.963 117.76 537.283 118.72 538.643 119.36C540.003 120.04 541.543 120.38 543.263 120.38C546.063 120.38 548.203 119.7 549.683 118.34C551.163 117.02 551.923 115.26 551.963 113.06V108.5C551.123 109.98 549.823 111.2 548.063 112.16C546.303 113.12 544.223 113.6 541.823 113.6C539.503 113.6 537.383 113.02 535.463 111.86C533.583 110.7 532.063 109.14 530.903 107.18C529.783 105.18 529.223 102.94 529.223 100.46C529.223 97.86 529.823 95.56 531.023 93.56C532.223 91.56 533.803 90 535.763 88.88C537.723 87.72 539.863 87.14 542.183 87.14C544.343 87.14 546.303 87.56 548.063 88.4C549.823 89.24 551.143 90.32 552.023 91.64L552.503 88.16H557.603V113.18C557.603 115.42 557.023 117.46 555.863 119.3C554.703 121.14 553.063 122.6 550.943 123.68C548.823 124.76 546.303 125.3 543.383 125.3ZM534.863 100.28C534.863 101.92 535.243 103.4 536.003 104.72C536.763 106 537.783 107.04 539.063 107.84C540.383 108.6 541.843 108.98 543.443 108.98C545.603 108.98 547.443 108.4 548.963 107.24C550.523 106.04 551.523 104.52 551.963 102.68V97.76C551.443 96 550.403 94.56 548.843 93.44C547.283 92.32 545.483 91.76 543.443 91.76C541.803 91.76 540.323 92.12 539.003 92.84C537.723 93.56 536.703 94.56 535.943 95.84C535.223 97.12 534.863 98.6 534.863 100.28ZM567.301 88.16H572.881V113H567.301V88.16ZM566.881 79.22C566.881 78.3 567.221 77.56 567.901 77C568.621 76.4 569.401 76.1 570.241 76.1C571.081 76.1 571.841 76.4 572.521 77C573.201 77.56 573.541 78.3 573.541 79.22C573.541 80.14 573.201 80.9 572.521 81.5C571.841 82.06 571.081 82.34 570.241 82.34C569.401 82.34 568.621 82.06 567.901 81.5C567.221 80.9 566.881 80.14 566.881 79.22ZM594.114 113.6C591.314 113.6 588.874 113.04 586.794 111.92C584.754 110.76 583.174 109.18 582.054 107.18C580.974 105.18 580.434 102.92 580.434 100.4C580.434 97.96 581.034 95.74 582.234 93.74C583.474 91.7 585.134 90.1 587.214 88.94C589.334 87.74 591.674 87.14 594.234 87.14C597.514 87.14 600.234 88.1 602.394 90.02C604.554 91.94 606.034 94.58 606.834 97.94L587.154 104.84C587.834 106.08 588.794 107.06 590.034 107.78C591.274 108.46 592.674 108.8 594.234 108.8C595.354 108.8 596.414 108.6 597.414 108.2C598.414 107.8 599.374 107.28 600.294 106.64L602.874 110.78C601.594 111.62 600.174 112.3 598.614 112.82C597.094 113.34 595.594 113.6 594.114 113.6ZM585.954 100.1C585.914 100.58 585.934 101.04 586.014 101.48L600.474 96.14C599.914 94.94 599.094 93.88 598.014 92.96C596.974 92.04 595.574 91.58 593.814 91.58C591.534 91.58 589.654 92.38 588.174 93.98C586.694 95.58 585.954 97.62 585.954 100.1ZM620.786 113.48C618.986 113.48 617.246 113.18 615.566 112.58C613.926 111.94 612.566 111 611.486 109.76L613.886 106.52C614.886 107.52 615.946 108.28 617.066 108.8C618.186 109.28 619.266 109.52 620.306 109.52C621.506 109.52 622.546 109.28 623.426 108.8C624.346 108.32 624.806 107.5 624.806 106.34C624.806 105.46 624.506 104.76 623.906 104.24C623.346 103.72 622.606 103.32 621.686 103.04C620.806 102.72 619.886 102.4 618.926 102.08C614.686 100.72 612.566 98.3 612.566 94.82C612.566 93.54 612.886 92.32 613.526 91.16C614.206 90 615.186 89.06 616.466 88.34C617.786 87.62 619.406 87.26 621.326 87.26C623.046 87.26 624.586 87.48 625.946 87.92C627.306 88.36 628.586 89.06 629.786 90.02L627.566 93.44C626.846 92.72 625.986 92.18 624.986 91.82C624.026 91.42 623.146 91.2 622.346 91.16C621.266 91.16 620.306 91.42 619.466 91.94C618.666 92.46 618.266 93.18 618.266 94.1C618.226 94.94 618.486 95.62 619.046 96.14C619.606 96.62 620.326 97.02 621.206 97.34C622.126 97.66 623.046 97.96 623.966 98.24C625.766 98.84 627.286 99.66 628.526 100.7C629.806 101.74 630.446 103.26 630.446 105.26C630.446 107.5 629.646 109.44 628.046 111.08C626.446 112.68 624.026 113.48 620.786 113.48ZM635.438 109.82C635.438 108.9 635.758 108.14 636.398 107.54C637.078 106.9 637.818 106.58 638.618 106.58C639.338 106.58 640.038 106.9 640.718 107.54C641.398 108.14 641.738 108.9 641.738 109.82C641.738 110.78 641.398 111.56 640.718 112.16C640.038 112.72 639.338 113 638.618 113C637.818 113 637.078 112.72 636.398 112.16C635.758 111.56 635.438 110.78 635.438 109.82ZM645.575 109.82C645.575 108.9 645.895 108.14 646.535 107.54C647.215 106.9 647.955 106.58 648.755 106.58C649.475 106.58 650.175 106.9 650.855 107.54C651.535 108.14 651.875 108.9 651.875 109.82C651.875 110.78 651.535 111.56 650.855 112.16C650.175 112.72 649.475 113 648.755 113C647.955 113 647.215 112.72 646.535 112.16C645.895 111.56 645.575 110.78 645.575 109.82ZM655.712 109.82C655.712 108.9 656.032 108.14 656.672 107.54C657.352 106.9 658.092 106.58 658.892 106.58C659.612 106.58 660.312 106.9 660.992 107.54C661.672 108.14 662.012 108.9 662.012 109.82C662.012 110.78 661.672 111.56 660.992 112.16C660.312 112.72 659.612 113 658.892 113C658.092 113 657.352 112.72 656.672 112.16C656.032 111.56 655.712 110.78 655.712 109.82Z" fill="black"/>
<path d="M38.1 109.76C37.38 110.24 36.4 110.78 35.16 111.38C33.92 111.98 32.46 112.5 30.78 112.94C29.14 113.34 27.34 113.52 25.38 113.48C21.98 113.44 18.94 112.84 16.26 111.68C13.58 110.52 11.28 108.94 9.36 106.94C7.48 104.9 6.04 102.58 5.04 99.98C4.04 97.38 3.54 94.6 3.54 91.64C3.54 88.4 4.06 85.42 5.1 82.7C6.18 79.94 7.68 77.56 9.6 75.56C11.52 73.52 13.78 71.94 16.38 70.82C19.02 69.7 21.9 69.14 25.02 69.14C27.62 69.14 29.98 69.5 32.1 70.22C34.22 70.9 36.04 71.7 37.56 72.62L35.22 78.08C34.02 77.28 32.56 76.52 30.84 75.8C29.12 75.08 27.24 74.72 25.2 74.72C23.08 74.72 21.08 75.16 19.2 76.04C17.32 76.88 15.66 78.06 14.22 79.58C12.78 81.06 11.64 82.82 10.8 84.86C10 86.86 9.6 89.02 9.6 91.34C9.6 94.46 10.24 97.28 11.52 99.8C12.84 102.28 14.68 104.24 17.04 105.68C19.44 107.12 22.24 107.84 25.44 107.84C27.68 107.84 29.64 107.52 31.32 106.88C33.04 106.2 34.46 105.42 35.58 104.54L38.1 109.76ZM51.5002 88.16L51.9202 93.98C52.6002 92.58 53.5402 91.38 54.7402 90.38C55.9402 89.34 57.1802 88.56 58.4602 88.04C59.7802 87.48 60.9202 87.18 61.8802 87.14L61.6402 92.72C59.7602 92.64 58.1002 93.02 56.6602 93.86C55.2202 94.66 54.1002 95.76 53.3002 97.16C52.5002 98.56 52.1002 100.06 52.1002 101.66V113H46.5202V88.16H51.5002ZM78.8728 113.6C76.5128 113.6 74.3728 113.1 72.4528 112.1C70.5728 111.1 69.0728 109.64 67.9528 107.72C66.8728 105.76 66.3328 103.38 66.3328 100.58C66.3328 97.78 66.8928 95.38 68.0128 93.38C69.1728 91.38 70.7128 89.84 72.6328 88.76C74.5928 87.68 76.7328 87.14 79.0528 87.14C81.2928 87.14 83.1928 87.62 84.7528 88.58C86.3128 89.54 87.5328 90.7 88.4128 92.06L88.8328 88.16H93.9928V113H88.4128V108.92C87.9328 109.56 87.2328 110.24 86.3128 110.96C85.4328 111.68 84.3528 112.3 83.0728 112.82C81.8328 113.34 80.4328 113.6 78.8728 113.6ZM80.3728 108.98C82.4128 108.98 84.1528 108.42 85.5928 107.3C87.0328 106.14 87.9728 104.58 88.4128 102.62V97.7C87.9328 95.98 86.9328 94.56 85.4128 93.44C83.8928 92.32 82.1528 91.76 80.1928 91.76C78.6728 91.76 77.2928 92.12 76.0528 92.84C74.8128 93.56 73.8128 94.56 73.0528 95.84C72.3328 97.12 71.9728 98.6 71.9728 100.28C71.9728 101.92 72.3528 103.4 73.1128 104.72C73.8728 106 74.8928 107.04 76.1728 107.84C77.4528 108.6 78.8528 108.98 80.3728 108.98ZM108.748 88.16L109.108 92.96C109.948 91.2 111.248 89.8 113.008 88.76C114.768 87.72 116.808 87.2 119.128 87.2C121.448 87.2 123.348 87.9 124.828 89.3C126.348 90.66 127.148 92.44 127.228 94.64V113H121.588V96.56C121.508 95.24 121.088 94.16 120.328 93.32C119.608 92.48 118.468 92.04 116.908 92C114.748 92 112.928 92.88 111.448 94.64C110.008 96.36 109.288 98.6 109.288 101.36V113H103.708V88.16H108.748ZM295.56 69.62H324.36V75.2H312.72V113H306.9V75.2H295.56V69.62ZM337.357 113.6C334.557 113.6 332.117 113.04 330.037 111.92C327.997 110.76 326.417 109.18 325.297 107.18C324.217 105.18 323.677 102.92 323.677 100.4C323.677 97.96 324.277 95.74 325.477 93.74C326.717 91.7 328.377 90.1 330.457 88.94C332.577 87.74 334.917 87.14 337.477 87.14C340.757 87.14 343.477 88.1 345.637 90.02C347.797 91.94 349.277 94.58 350.077 97.94L330.397 104.84C331.077 106.08 332.037 107.06 333.277 107.78C334.517 108.46 335.917 108.8 337.477 108.8C338.597 108.8 339.657 108.6 340.657 108.2C341.657 107.8 342.617 107.28 343.537 106.64L346.117 110.78C344.837 111.62 343.417 112.3 341.857 112.82C340.337 113.34 338.837 113.6 337.357 113.6ZM329.197 100.1C329.157 100.58 329.177 101.04 329.257 101.48L343.717 96.14C343.157 94.94 342.337 93.88 341.257 92.96C340.217 92.04 338.817 91.58 337.057 91.58C334.777 91.58 332.897 92.38 331.417 93.98C329.937 95.58 329.197 97.62 329.197 100.1ZM377.168 110.66C376.048 111.58 374.708 112.3 373.148 112.82C371.588 113.34 370.028 113.6 368.468 113.6C365.788 113.6 363.408 113.06 361.328 111.98C359.288 110.9 357.688 109.38 356.528 107.42C355.408 105.46 354.848 103.16 354.848 100.52C354.848 97.88 355.448 95.6 356.648 93.68C357.888 91.72 359.488 90.2 361.448 89.12C363.448 88.04 365.608 87.5 367.928 87.5C369.928 87.5 371.708 87.78 373.268 88.34C374.828 88.9 376.188 89.66 377.348 90.62L374.528 94.28C373.808 93.76 372.928 93.28 371.888 92.84C370.848 92.36 369.688 92.12 368.408 92.12C366.928 92.12 365.588 92.5 364.388 93.26C363.188 93.98 362.228 94.98 361.508 96.26C360.788 97.5 360.428 98.92 360.428 100.52C360.428 102.08 360.788 103.5 361.508 104.78C362.228 106.06 363.228 107.08 364.508 107.84C365.788 108.6 367.268 108.98 368.948 108.98C369.988 108.98 370.948 108.82 371.828 108.5C372.748 108.18 373.568 107.74 374.288 107.18L377.168 110.66ZM384.372 113V66.5H389.832V92.66C390.712 91.06 392.012 89.76 393.732 88.76C395.452 87.72 397.472 87.2 399.792 87.2C402.112 87.2 404.012 87.9 405.492 89.3C407.012 90.66 407.812 92.44 407.892 94.64V113H402.252V96.56C402.172 95.24 401.752 94.16 400.992 93.32C400.272 92.48 399.132 92.04 397.572 92C396.132 92 394.832 92.42 393.672 93.26C392.552 94.06 391.652 95.16 390.972 96.56C390.292 97.96 389.952 99.56 389.952 101.36V113H384.372Z" fill="#DD384A"/>
<path d="M20.076 179.052C19.04 178.52 17.906 178.058 16.674 177.666C15.442 177.274 14.252 177.078 13.104 177.078C11.452 177.078 10.136 177.456 9.156 178.212C8.204 178.968 7.728 179.99 7.728 181.278C7.728 182.202 8.036 182.986 8.652 183.63C9.296 184.274 10.108 184.848 11.088 185.352C12.096 185.828 13.16 186.276 14.28 186.696C15.54 187.172 16.758 187.746 17.934 188.418C19.11 189.09 20.076 190 20.832 191.148C21.616 192.268 22.008 193.78 22.008 195.684C22.008 197.308 21.602 198.778 20.79 200.094C19.978 201.382 18.83 202.418 17.346 203.202C15.862 203.958 14.098 204.336 12.054 204.336C10.038 204.336 8.162 204.014 6.426 203.37C4.718 202.726 3.262 201.984 2.058 201.144L3.864 197.91C4.844 198.666 6.048 199.324 7.476 199.884C8.932 200.444 10.318 200.724 11.634 200.724C12.614 200.724 13.566 200.556 14.49 200.22C15.442 199.884 16.226 199.352 16.842 198.624C17.458 197.868 17.766 196.902 17.766 195.726C17.766 194.718 17.486 193.864 16.926 193.164C16.366 192.464 15.638 191.876 14.742 191.4C13.874 190.896 12.922 190.448 11.886 190.056C10.934 189.72 9.968 189.328 8.988 188.88C8.008 188.432 7.098 187.9 6.258 187.284C5.446 186.64 4.788 185.856 4.284 184.932C3.78 184.008 3.528 182.888 3.528 181.572C3.528 179.976 3.906 178.59 4.662 177.414C5.446 176.21 6.51 175.272 7.854 174.6C9.198 173.9 10.752 173.522 12.516 173.466C14.448 173.466 16.156 173.704 17.64 174.18C19.152 174.656 20.482 175.23 21.63 175.902L20.076 179.052ZM27.8473 186.612H31.7533V204H27.8473V186.612ZM27.5533 180.354C27.5533 179.71 27.7913 179.192 28.2673 178.8C28.7713 178.38 29.3173 178.17 29.9053 178.17C30.4933 178.17 31.0253 178.38 31.5013 178.8C31.9773 179.192 32.2153 179.71 32.2153 180.354C32.2153 180.998 31.9773 181.53 31.5013 181.95C31.0253 182.342 30.4933 182.538 29.9053 182.538C29.3173 182.538 28.7713 182.342 28.2673 181.95C27.7913 181.53 27.5533 180.998 27.5533 180.354ZM42.0804 186.612L42.3324 189.93C43.0044 188.67 43.9144 187.69 45.0624 186.99C46.2384 186.262 47.5824 185.898 49.0944 185.898C50.5224 185.898 51.7124 186.234 52.6644 186.906C53.6444 187.578 54.2464 188.488 54.4704 189.636C55.1704 188.46 56.0804 187.55 57.2004 186.906C58.3484 186.234 59.5664 185.898 60.8544 185.898C62.5344 185.898 63.8644 186.388 64.8444 187.368C65.8524 188.348 66.3844 189.594 66.4404 191.106V204H62.5344V192.576C62.4784 191.68 62.2404 190.938 61.8204 190.35C61.4284 189.734 60.7424 189.398 59.7624 189.342C58.7264 189.342 57.8164 189.65 57.0324 190.266C56.2484 190.854 55.6324 191.638 55.1844 192.618C54.7364 193.598 54.4984 194.634 54.4704 195.726V204H50.5224V192.576C50.4944 191.68 50.2564 190.938 49.8084 190.35C49.3884 189.734 48.6744 189.398 47.6664 189.342C46.6584 189.342 45.7624 189.65 44.9784 190.266C44.1944 190.854 43.5784 191.638 43.1304 192.618C42.6824 193.598 42.4584 194.648 42.4584 195.768V204H38.5524V186.612H42.0804ZM83.5006 204.42C82.2406 204.42 81.0226 204.154 79.8466 203.622C78.6986 203.062 77.7886 202.32 77.1166 201.396V212.358H73.2106V186.318H76.6126L76.9486 189.258C77.7886 188.278 78.8246 187.48 80.0566 186.864C81.3166 186.22 82.7026 185.898 84.2146 185.898C85.8666 185.898 87.3366 186.29 88.6246 187.074C89.9406 187.858 90.9766 188.95 91.7326 190.35C92.4886 191.75 92.8666 193.388 92.8666 195.264C92.8666 197.14 92.4466 198.764 91.6066 200.136C90.7946 201.508 89.6746 202.572 88.2466 203.328C86.8466 204.056 85.2646 204.42 83.5006 204.42ZM82.7446 201.27C83.8366 201.27 84.8446 201.018 85.7686 200.514C86.7206 199.982 87.4766 199.268 88.0366 198.372C88.5966 197.476 88.8766 196.454 88.8766 195.306C88.8766 194.13 88.6106 193.094 88.0786 192.198C87.5466 191.274 86.8326 190.56 85.9366 190.056C85.0686 189.524 84.0886 189.258 82.9966 189.258C81.4846 189.258 80.2106 189.678 79.1746 190.518C78.1386 191.358 77.4526 192.45 77.1166 193.794V196.734C77.3406 198.05 77.9706 199.142 79.0066 200.01C80.0706 200.85 81.3166 201.27 82.7446 201.27ZM98.1071 171.45H102.013V204H98.1071V171.45ZM108.812 186.612H112.718V204H108.812V186.612ZM108.518 180.354C108.518 179.71 108.756 179.192 109.232 178.8C109.736 178.38 110.282 178.17 110.87 178.17C111.458 178.17 111.99 178.38 112.466 178.8C112.942 179.192 113.18 179.71 113.18 180.354C113.18 180.998 112.942 181.53 112.466 181.95C111.99 182.342 111.458 182.538 110.87 182.538C110.282 182.538 109.736 182.342 109.232 181.95C108.756 181.53 108.518 180.998 108.518 180.354ZM120.945 204V190.098H117.963V186.57H120.945V179.262C120.945 176.742 121.519 174.81 122.667 173.466C123.815 172.122 125.495 171.45 127.707 171.45C128.267 171.45 128.897 171.534 129.597 171.702C130.325 171.87 130.969 172.136 131.529 172.5L129.849 175.356C129.597 175.104 129.317 174.936 129.009 174.852C128.701 174.74 128.393 174.684 128.085 174.684C127.077 174.684 126.279 175.034 125.691 175.734C125.131 176.434 124.851 177.624 124.851 179.304V186.57H130.395V190.098H124.851V204H120.945ZM136.942 212.358L140.932 203.454L132.868 186.612H137.278L142.864 199.002L148.408 186.612H152.02L140.806 212.358H136.942ZM156.226 186.612H160.132V204H156.226V186.612ZM155.932 180.354C155.932 179.71 156.17 179.192 156.646 178.8C157.15 178.38 157.696 178.17 158.284 178.17C158.872 178.17 159.404 178.38 159.88 178.8C160.356 179.192 160.594 179.71 160.594 180.354C160.594 180.998 160.356 181.53 159.88 181.95C159.404 182.342 158.872 182.538 158.284 182.538C157.696 182.538 157.15 182.342 156.646 181.95C156.17 181.53 155.932 180.998 155.932 180.354ZM170.459 186.612L170.711 189.972C171.299 188.74 172.209 187.76 173.441 187.032C174.673 186.304 176.101 185.94 177.725 185.94C179.349 185.94 180.679 186.43 181.715 187.41C182.779 188.362 183.339 189.608 183.395 191.148V204H179.447V192.492C179.391 191.568 179.097 190.812 178.565 190.224C178.061 189.636 177.263 189.328 176.171 189.3C174.659 189.3 173.385 189.916 172.349 191.148C171.341 192.352 170.837 193.92 170.837 195.852V204H166.931V186.612H170.459ZM198.546 212.61C196.614 212.61 195.004 212.274 193.716 211.602C192.428 210.958 191.238 210.132 190.146 209.124L192.456 206.436C193.352 207.332 194.276 208.004 195.228 208.452C196.18 208.928 197.258 209.166 198.462 209.166C200.422 209.166 201.92 208.69 202.956 207.738C203.992 206.814 204.524 205.582 204.552 204.042V200.85C203.964 201.886 203.054 202.74 201.822 203.412C200.59 204.084 199.134 204.42 197.454 204.42C195.83 204.42 194.346 204.014 193.002 203.202C191.686 202.39 190.622 201.298 189.81 199.926C189.026 198.526 188.634 196.958 188.634 195.222C188.634 193.402 189.054 191.792 189.894 190.392C190.734 188.992 191.84 187.9 193.212 187.116C194.584 186.304 196.082 185.898 197.706 185.898C199.218 185.898 200.59 186.192 201.822 186.78C203.054 187.368 203.978 188.124 204.594 189.048L204.93 186.612H208.5V204.126C208.5 205.694 208.094 207.122 207.282 208.41C206.47 209.698 205.322 210.72 203.838 211.476C202.354 212.232 200.59 212.61 198.546 212.61ZM192.582 195.096C192.582 196.244 192.848 197.28 193.38 198.204C193.912 199.1 194.626 199.828 195.522 200.388C196.446 200.92 197.468 201.186 198.588 201.186C200.1 201.186 201.388 200.78 202.452 199.968C203.544 199.128 204.244 198.064 204.552 196.776V193.332C204.188 192.1 203.46 191.092 202.368 190.308C201.276 189.524 200.016 189.132 198.588 189.132C197.44 189.132 196.404 189.384 195.48 189.888C194.584 190.392 193.87 191.092 193.338 191.988C192.834 192.884 192.582 193.92 192.582 195.096ZM227.318 173.634H247.478V177.54H239.33V204H235.256V177.54H227.318V173.634ZM256.575 204.42C254.615 204.42 252.907 204.028 251.451 203.244C250.023 202.432 248.917 201.326 248.133 199.926C247.377 198.526 246.999 196.944 246.999 195.18C246.999 193.472 247.419 191.918 248.259 190.518C249.127 189.09 250.289 187.97 251.745 187.158C253.229 186.318 254.867 185.898 256.659 185.898C258.955 185.898 260.859 186.57 262.371 187.914C263.883 189.258 264.919 191.106 265.479 193.458L251.703 198.288C252.179 199.156 252.851 199.842 253.719 200.346C254.587 200.822 255.567 201.06 256.659 201.06C257.443 201.06 258.185 200.92 258.885 200.64C259.585 200.36 260.257 199.996 260.901 199.548L262.707 202.446C261.811 203.034 260.817 203.51 259.725 203.874C258.661 204.238 257.611 204.42 256.575 204.42ZM250.863 194.97C250.835 195.306 250.849 195.628 250.905 195.936L261.027 192.198C260.635 191.358 260.061 190.616 259.305 189.972C258.577 189.328 257.597 189.006 256.365 189.006C254.769 189.006 253.453 189.566 252.417 190.686C251.381 191.806 250.863 193.234 250.863 194.97ZM284.444 202.362C283.66 203.006 282.722 203.51 281.63 203.874C280.538 204.238 279.446 204.42 278.354 204.42C276.478 204.42 274.812 204.042 273.356 203.286C271.928 202.53 270.808 201.466 269.996 200.094C269.212 198.722 268.82 197.112 268.82 195.264C268.82 193.416 269.24 191.82 270.08 190.476C270.948 189.104 272.068 188.04 273.44 187.284C274.84 186.528 276.352 186.15 277.976 186.15C279.376 186.15 280.622 186.346 281.714 186.738C282.806 187.13 283.758 187.662 284.57 188.334L282.596 190.896C282.092 190.532 281.476 190.196 280.748 189.888C280.02 189.552 279.208 189.384 278.312 189.384C277.276 189.384 276.338 189.65 275.498 190.182C274.658 190.686 273.986 191.386 273.482 192.282C272.978 193.15 272.726 194.144 272.726 195.264C272.726 196.356 272.978 197.35 273.482 198.246C273.986 199.142 274.686 199.856 275.582 200.388C276.478 200.92 277.514 201.186 278.69 201.186C279.418 201.186 280.09 201.074 280.706 200.85C281.35 200.626 281.924 200.318 282.428 199.926L284.444 202.362ZM289.486 204V171.45H293.308V189.762C293.924 188.642 294.834 187.732 296.038 187.032C297.242 186.304 298.656 185.94 300.28 185.94C301.904 185.94 303.234 186.43 304.27 187.41C305.334 188.362 305.894 189.608 305.95 191.148V204H302.002V192.492C301.946 191.568 301.652 190.812 301.12 190.224C300.616 189.636 299.818 189.328 298.726 189.3C297.718 189.3 296.808 189.594 295.996 190.182C295.212 190.742 294.582 191.512 294.106 192.492C293.63 193.472 293.392 194.592 293.392 195.852V204H289.486ZM316.229 186.612L316.481 189.972C317.069 188.74 317.979 187.76 319.211 187.032C320.443 186.304 321.871 185.94 323.495 185.94C325.119 185.94 326.449 186.43 327.485 187.41C328.549 188.362 329.109 189.608 329.165 191.148V204H325.217V192.492C325.161 191.568 324.867 190.812 324.335 190.224C323.831 189.636 323.033 189.328 321.941 189.3C320.429 189.3 319.155 189.916 318.119 191.148C317.111 192.352 316.607 193.92 316.607 195.852V204H312.701V186.612H316.229ZM334.404 195.138C334.404 193.402 334.81 191.834 335.622 190.434C336.462 189.034 337.61 187.928 339.066 187.116C340.522 186.304 342.188 185.898 344.064 185.898C345.94 185.898 347.592 186.304 349.02 187.116C350.448 187.928 351.554 189.034 352.338 190.434C353.15 191.834 353.556 193.402 353.556 195.138C353.556 196.874 353.15 198.442 352.338 199.842C351.554 201.242 350.434 202.362 348.978 203.202C347.55 204.014 345.884 204.42 343.98 204.42C342.132 204.42 340.48 204.042 339.024 203.286C337.596 202.53 336.462 201.452 335.622 200.052C334.81 198.652 334.404 197.014 334.404 195.138ZM338.352 195.18C338.352 196.3 338.59 197.322 339.066 198.246C339.57 199.142 340.242 199.856 341.082 200.388C341.922 200.92 342.874 201.186 343.938 201.186C345.03 201.186 345.996 200.92 346.836 200.388C347.676 199.856 348.334 199.142 348.81 198.246C349.314 197.322 349.566 196.3 349.566 195.18C349.566 194.06 349.314 193.052 348.81 192.156C348.334 191.232 347.676 190.504 346.836 189.972C345.996 189.412 345.03 189.132 343.938 189.132C342.874 189.132 341.908 189.412 341.04 189.972C340.2 190.532 339.542 191.274 339.066 192.198C338.59 193.094 338.352 194.088 338.352 195.18ZM358.802 171.45H362.708V204H358.802V171.45ZM367.995 195.138C367.995 193.402 368.401 191.834 369.213 190.434C370.053 189.034 371.201 187.928 372.657 187.116C374.113 186.304 375.779 185.898 377.655 185.898C379.531 185.898 381.183 186.304 382.611 187.116C384.039 187.928 385.145 189.034 385.929 190.434C386.741 191.834 387.147 193.402 387.147 195.138C387.147 196.874 386.741 198.442 385.929 199.842C385.145 201.242 384.025 202.362 382.569 203.202C381.141 204.014 379.475 204.42 377.571 204.42C375.723 204.42 374.071 204.042 372.615 203.286C371.187 202.53 370.053 201.452 369.213 200.052C368.401 198.652 367.995 197.014 367.995 195.138ZM371.943 195.18C371.943 196.3 372.181 197.322 372.657 198.246C373.161 199.142 373.833 199.856 374.673 200.388C375.513 200.92 376.465 201.186 377.529 201.186C378.621 201.186 379.587 200.92 380.427 200.388C381.267 199.856 381.925 199.142 382.401 198.246C382.905 197.322 383.157 196.3 383.157 195.18C383.157 194.06 382.905 193.052 382.401 192.156C381.925 191.232 381.267 190.504 380.427 189.972C379.587 189.412 378.621 189.132 377.529 189.132C376.465 189.132 375.499 189.412 374.631 189.972C373.791 190.532 373.133 191.274 372.657 192.198C372.181 193.094 371.943 194.088 371.943 195.18ZM400.794 212.61C398.862 212.61 397.252 212.274 395.964 211.602C394.676 210.958 393.486 210.132 392.394 209.124L394.704 206.436C395.6 207.332 396.524 208.004 397.476 208.452C398.428 208.928 399.506 209.166 400.71 209.166C402.67 209.166 404.168 208.69 405.204 207.738C406.24 206.814 406.772 205.582 406.8 204.042V200.85C406.212 201.886 405.302 202.74 404.07 203.412C402.838 204.084 401.382 204.42 399.702 204.42C398.078 204.42 396.594 204.014 395.25 203.202C393.934 202.39 392.87 201.298 392.058 199.926C391.274 198.526 390.882 196.958 390.882 195.222C390.882 193.402 391.302 191.792 392.142 190.392C392.982 188.992 394.088 187.9 395.46 187.116C396.832 186.304 398.33 185.898 399.954 185.898C401.466 185.898 402.838 186.192 404.07 186.78C405.302 187.368 406.226 188.124 406.842 189.048L407.178 186.612H410.748V204.126C410.748 205.694 410.342 207.122 409.53 208.41C408.718 209.698 407.57 210.72 406.086 211.476C404.602 212.232 402.838 212.61 400.794 212.61ZM394.83 195.096C394.83 196.244 395.096 197.28 395.628 198.204C396.16 199.1 396.874 199.828 397.77 200.388C398.694 200.92 399.716 201.186 400.836 201.186C402.348 201.186 403.636 200.78 404.7 199.968C405.792 199.128 406.492 198.064 406.8 196.776V193.332C406.436 192.1 405.708 191.092 404.616 190.308C403.524 189.524 402.264 189.132 400.836 189.132C399.688 189.132 398.652 189.384 397.728 189.888C396.832 190.392 396.118 191.092 395.586 191.988C395.082 192.884 394.83 193.92 394.83 195.096ZM419.007 212.358L422.997 203.454L414.933 186.612H419.343L424.929 199.002L430.473 186.612H434.085L422.871 212.358H419.007ZM452.546 173.634H470.564V177.54H456.62V187.2H468.842V191.106H456.62V204H452.546V173.634ZM472.544 195.138C472.544 193.402 472.95 191.834 473.762 190.434C474.602 189.034 475.75 187.928 477.206 187.116C478.662 186.304 480.328 185.898 482.204 185.898C484.08 185.898 485.732 186.304 487.16 187.116C488.588 187.928 489.694 189.034 490.478 190.434C491.29 191.834 491.696 193.402 491.696 195.138C491.696 196.874 491.29 198.442 490.478 199.842C489.694 201.242 488.574 202.362 487.118 203.202C485.69 204.014 484.024 204.42 482.12 204.42C480.272 204.42 478.62 204.042 477.164 203.286C475.736 202.53 474.602 201.452 473.762 200.052C472.95 198.652 472.544 197.014 472.544 195.138ZM476.492 195.18C476.492 196.3 476.73 197.322 477.206 198.246C477.71 199.142 478.382 199.856 479.222 200.388C480.062 200.92 481.014 201.186 482.078 201.186C483.17 201.186 484.136 200.92 484.976 200.388C485.816 199.856 486.474 199.142 486.95 198.246C487.454 197.322 487.706 196.3 487.706 195.18C487.706 194.06 487.454 193.052 486.95 192.156C486.474 191.232 485.816 190.504 484.976 189.972C484.136 189.412 483.17 189.132 482.078 189.132C481.014 189.132 480.048 189.412 479.18 189.972C478.34 190.532 477.682 191.274 477.206 192.198C476.73 193.094 476.492 194.088 476.492 195.18ZM500.429 186.612L500.723 190.686C501.199 189.706 501.857 188.866 502.697 188.166C503.537 187.438 504.405 186.892 505.301 186.528C506.225 186.136 507.023 185.926 507.695 185.898L507.527 189.804C506.211 189.748 505.049 190.014 504.041 190.602C503.033 191.162 502.249 191.932 501.689 192.912C501.129 193.892 500.849 194.942 500.849 196.062V204H496.943V186.612H500.429ZM526.989 173.634H546.729V177.54H531.063V186.78H545.049V190.686H531.063V200.052H547.317V204H526.989V173.634ZM560.519 204.504L550.859 186.612H555.521L560.771 197.742L565.643 186.612H570.011L560.729 204.504H560.519ZM581.87 204.42C579.91 204.42 578.202 204.028 576.746 203.244C575.318 202.432 574.212 201.326 573.428 199.926C572.672 198.526 572.294 196.944 572.294 195.18C572.294 193.472 572.714 191.918 573.554 190.518C574.422 189.09 575.584 187.97 577.04 187.158C578.524 186.318 580.162 185.898 581.954 185.898C584.25 185.898 586.154 186.57 587.666 187.914C589.178 189.258 590.214 191.106 590.774 193.458L576.998 198.288C577.474 199.156 578.146 199.842 579.014 200.346C579.882 200.822 580.862 201.06 581.954 201.06C582.738 201.06 583.48 200.92 584.18 200.64C584.88 200.36 585.552 199.996 586.196 199.548L588.002 202.446C587.106 203.034 586.112 203.51 585.02 203.874C583.956 204.238 582.906 204.42 581.87 204.42ZM576.158 194.97C576.13 195.306 576.144 195.628 576.2 195.936L586.322 192.198C585.93 191.358 585.356 190.616 584.6 189.972C583.872 189.328 582.892 189.006 581.66 189.006C580.064 189.006 578.748 189.566 577.712 190.686C576.676 191.806 576.158 193.234 576.158 194.97ZM599.113 186.612L599.407 190.686C599.883 189.706 600.541 188.866 601.381 188.166C602.221 187.438 603.089 186.892 603.985 186.528C604.909 186.136 605.707 185.926 606.379 185.898L606.211 189.804C604.895 189.748 603.733 190.014 602.725 190.602C601.717 191.162 600.933 191.932 600.373 192.912C599.813 193.892 599.533 194.942 599.533 196.062V204H595.627V186.612H599.113ZM612.888 212.358L616.878 203.454L608.814 186.612H613.224L618.81 199.002L624.354 186.612H627.966L616.752 212.358H612.888ZM630.126 195.138C630.126 193.402 630.532 191.834 631.344 190.434C632.184 189.034 633.332 187.928 634.788 187.116C636.244 186.304 637.91 185.898 639.786 185.898C641.662 185.898 643.314 186.304 644.742 187.116C646.17 187.928 647.276 189.034 648.06 190.434C648.872 191.834 649.278 193.402 649.278 195.138C649.278 196.874 648.872 198.442 648.06 199.842C647.276 201.242 646.156 202.362 644.7 203.202C643.272 204.014 641.606 204.42 639.702 204.42C637.854 204.42 636.202 204.042 634.746 203.286C633.318 202.53 632.184 201.452 631.344 200.052C630.532 198.652 630.126 197.014 630.126 195.138ZM634.074 195.18C634.074 196.3 634.312 197.322 634.788 198.246C635.292 199.142 635.964 199.856 636.804 200.388C637.644 200.92 638.596 201.186 639.66 201.186C640.752 201.186 641.718 200.92 642.558 200.388C643.398 199.856 644.056 199.142 644.532 198.246C645.036 197.322 645.288 196.3 645.288 195.18C645.288 194.06 645.036 193.052 644.532 192.156C644.056 191.232 643.398 190.504 642.558 189.972C641.718 189.412 640.752 189.132 639.66 189.132C638.596 189.132 637.63 189.412 636.762 189.972C635.922 190.532 635.264 191.274 634.788 192.198C634.312 193.094 634.074 194.088 634.074 195.18ZM658.053 186.612L658.305 189.972C658.893 188.74 659.803 187.76 661.035 187.032C662.267 186.304 663.695 185.94 665.319 185.94C666.943 185.94 668.273 186.43 669.309 187.41C670.373 188.362 670.933 189.608 670.989 191.148V204H667.041V192.492C666.985 191.568 666.691 190.812 666.159 190.224C665.655 189.636 664.857 189.328 663.765 189.3C662.253 189.3 660.979 189.916 659.943 191.148C658.935 192.352 658.431 193.92 658.431 195.852V204H654.525V186.612H658.053ZM685.804 204.42C683.844 204.42 682.136 204.028 680.68 203.244C679.252 202.432 678.146 201.326 677.362 199.926C676.606 198.526 676.228 196.944 676.228 195.18C676.228 193.472 676.648 191.918 677.488 190.518C678.356 189.09 679.518 187.97 680.974 187.158C682.458 186.318 684.096 185.898 685.888 185.898C688.184 185.898 690.088 186.57 691.6 187.914C693.112 189.258 694.148 191.106 694.708 193.458L680.932 198.288C681.408 199.156 682.08 199.842 682.948 200.346C683.816 200.822 684.796 201.06 685.888 201.06C686.672 201.06 687.414 200.92 688.114 200.64C688.814 200.36 689.486 199.996 690.13 199.548L691.936 202.446C691.04 203.034 690.046 203.51 688.954 203.874C687.89 204.238 686.84 204.42 685.804 204.42ZM680.092 194.97C680.064 195.306 680.078 195.628 680.134 195.936L690.256 192.198C689.864 191.358 689.29 190.616 688.534 189.972C687.806 189.328 686.826 189.006 685.594 189.006C683.998 189.006 682.682 189.566 681.646 190.686C680.61 191.806 680.092 193.234 680.092 194.97ZM698.552 172.08H702.08V196.146H698.552V172.08ZM700.442 203.832C699.714 203.832 699.098 203.622 698.594 203.202C698.118 202.782 697.88 202.236 697.88 201.564C697.88 200.948 698.118 200.416 698.594 199.968C699.098 199.52 699.714 199.296 700.442 199.296C701.142 199.296 701.716 199.52 702.164 199.968C702.64 200.416 702.878 200.948 702.878 201.564C702.878 202.236 702.64 202.782 702.164 203.202C701.716 203.622 701.142 203.832 700.442 203.832Z" fill="black"/>
</svg>
